<svg width="72" height="73" viewBox="0 0 72 73" fill="none" xmlns="http://www.w3.org/2000/svg">
<path d="M35.9986 70.8628C54.9265 70.8628 70.2706 55.5188 70.2706 36.5908C70.2706 17.6629 54.9265 2.31885 35.9986 2.31885C17.0707 2.31885 1.72656 17.6629 1.72656 36.5908C1.72656 55.5188 17.0707 70.8628 35.9986 70.8628Z" fill="url(#paint0_linear_4400_10268)"/>
<path d="M35.9983 63.5191C50.8702 63.5191 62.9263 51.463 62.9263 36.5911C62.9263 21.7192 50.8702 9.66309 35.9983 9.66309C21.1264 9.66309 9.07031 21.7192 9.07031 36.5911C9.07031 51.463 21.1264 63.5191 35.9983 63.5191Z" fill="url(#paint1_linear_4400_10268)"/>
<path d="M14.8657 59.0912C14.7217 58.8392 14.6497 58.6592 14.6497 58.4792C14.6497 58.2992 14.6857 58.1912 14.7937 58.0472C14.9377 57.9032 15.0817 57.8672 15.2617 57.8672C15.4417 57.8672 15.6217 57.9752 15.8017 58.1192C15.9097 58.2272 16.0177 58.3352 16.0537 58.4792C16.0897 58.6232 16.1257 58.7312 16.0897 58.8752C16.0537 59.0192 16.0177 59.1272 15.9097 59.1992L15.6937 58.9832C15.8017 58.8752 15.8377 58.7672 15.8377 58.6592C15.8377 58.5512 15.7657 58.4072 15.6577 58.2992C15.5497 58.1912 15.4417 58.1552 15.3337 58.1192C15.2257 58.1192 15.1177 58.1552 15.0457 58.2272C14.9737 58.2992 14.9377 58.3712 14.9737 58.4792C14.9737 58.5872 15.0457 58.7312 15.1537 58.9112C15.2617 59.0912 15.3337 59.2352 15.3697 59.3432C15.4057 59.4512 15.4057 59.5952 15.4057 59.6672C15.3697 59.7752 15.3337 59.8472 15.2617 59.9552C15.1177 60.0992 14.9737 60.1712 14.7937 60.1352C14.6137 60.0992 14.4337 60.0272 14.2537 59.8472C14.1457 59.7392 14.0377 59.5952 14.0017 59.4872C13.9297 59.3432 13.9297 59.1992 13.9297 59.0912C13.9297 58.9472 14.0017 58.8392 14.1097 58.7312L14.3257 58.9472C14.2177 59.0552 14.1817 59.1632 14.2177 59.3072C14.2537 59.4512 14.3257 59.5592 14.4337 59.6672C14.5417 59.7752 14.6497 59.8472 14.7937 59.8472C14.9017 59.8472 15.0097 59.8112 15.0817 59.7392C15.1537 59.6672 15.1897 59.5592 15.1897 59.4512C15.0457 59.4152 14.9737 59.2712 14.8657 59.0912Z" fill="white"/>
<path d="M17.2422 61.0352C17.0982 61.2152 16.9542 61.3592 16.7742 61.4312C16.5942 61.5032 16.4502 61.5392 16.2702 61.5392C16.0902 61.5032 15.9462 61.4672 15.8022 61.3232C15.6582 61.2152 15.5502 61.0712 15.5142 60.8912C15.4782 60.7472 15.4422 60.5672 15.5142 60.3872C15.5862 60.2072 15.6582 60.0272 15.8022 59.8472L15.9102 59.7032C16.0542 59.5232 16.1982 59.4152 16.3782 59.3072C16.5582 59.2352 16.7022 59.1992 16.8822 59.1992C17.0622 59.2352 17.2062 59.2712 17.3502 59.4152C17.4942 59.5232 17.6022 59.6672 17.6382 59.8472C17.6742 59.9912 17.7102 60.1712 17.6382 60.3512C17.6022 60.5312 17.4942 60.7112 17.3502 60.8912L17.2422 61.0352ZM17.0982 60.7472C17.2782 60.5312 17.3502 60.3152 17.3862 60.1352C17.4222 59.9552 17.3142 59.7752 17.1702 59.6672C17.0262 59.5592 16.8462 59.4872 16.6662 59.5592C16.4862 59.5952 16.3062 59.7392 16.1262 59.9192L16.0182 60.0632C15.8382 60.2792 15.7662 60.4592 15.7302 60.6752C15.7302 60.8552 15.8022 61.0352 15.9462 61.1432C16.0902 61.2872 16.2702 61.3232 16.4502 61.2512C16.6302 61.2152 16.8102 61.0712 16.9902 60.8552L17.0982 60.7472Z" fill="white"/>
<path d="M18.8626 62.6186C18.6826 62.7986 18.5026 62.9066 18.3226 62.9426C18.1066 62.9786 17.9266 62.9066 17.7106 62.7626C17.4946 62.6186 17.3506 62.4026 17.3506 62.1506C17.3146 61.8986 17.4226 61.6106 17.6026 61.3586L17.7466 61.1786C17.8546 60.9986 17.9986 60.8546 18.1786 60.7826C18.3226 60.6746 18.5026 60.6386 18.6826 60.6746C18.8626 60.6746 19.0066 60.7466 19.1506 60.8546C19.3666 60.9986 19.4746 61.1786 19.5106 61.3586C19.5466 61.5746 19.5106 61.7546 19.4026 61.9706L19.1506 61.7906C19.2226 61.6106 19.2586 61.4666 19.2586 61.3586C19.2226 61.2506 19.1506 61.1426 19.0066 61.0346C18.8626 60.9266 18.6826 60.8906 18.5026 60.9626C18.3226 61.0346 18.1786 61.1426 17.9986 61.3946L17.8546 61.5746C17.7106 61.7906 17.6386 61.9706 17.6386 62.1506C17.6386 62.3306 17.7106 62.4746 17.8906 62.5826C18.0346 62.6906 18.1786 62.7266 18.2866 62.7266C18.3946 62.7266 18.5386 62.6546 18.6826 62.5106L18.8626 62.6186Z" fill="white"/>
<path d="M19.6523 63.9864L20.4083 62.6904L20.1563 62.5464L20.2643 62.3304L20.5163 62.4744L20.6243 62.3304C20.7323 62.1864 20.8403 62.0784 20.9843 62.0424C21.1283 62.0064 21.2723 62.0424 21.4163 62.1144C21.4883 62.1504 21.5243 62.1864 21.5963 62.2584L21.4523 62.4744C21.4163 62.4384 21.3803 62.4024 21.3083 62.3664C21.2363 62.3304 21.1643 62.2944 21.0563 62.3304C20.9843 62.3664 20.9123 62.4024 20.8763 62.5104L20.7683 62.6544L21.0923 62.8344L20.9843 63.0504L20.6603 62.8704L19.9043 64.1664L19.6523 63.9864Z" fill="white"/>
<path d="M20.9135 63.6993C20.9855 63.5553 21.0935 63.4113 21.2015 63.3393C21.3095 63.2673 21.4535 63.1953 21.5975 63.1953C21.7415 63.1953 21.8855 63.2313 22.0295 63.3033C22.2455 63.4113 22.3895 63.5913 22.4255 63.8073C22.4615 64.0233 22.4255 64.2393 22.3175 64.4913V64.5273C22.2455 64.6713 22.1375 64.8153 22.0295 64.8873C21.9215 64.9593 21.7775 65.0313 21.6335 65.0313C21.4895 65.0313 21.3455 64.9953 21.2015 64.9233C20.9855 64.8153 20.8775 64.6353 20.8055 64.4553C20.7335 64.2033 20.7695 63.9873 20.9135 63.6993ZM21.1655 63.8793C21.0575 64.0593 21.0575 64.2033 21.0575 64.3473C21.0935 64.4913 21.1655 64.5993 21.3095 64.6713C21.4535 64.7433 21.5615 64.7433 21.7055 64.6713C21.8495 64.5993 21.9575 64.4913 22.0655 64.2753C22.1375 64.0953 22.1735 63.9513 22.1735 63.8073C22.1375 63.6633 22.0655 63.5553 21.9215 63.4833C21.7775 63.4113 21.6695 63.4113 21.5255 63.4833C21.3815 63.5553 21.2735 63.6993 21.1655 63.8793Z" fill="white"/>
<path d="M23.6853 64.4549C23.6493 64.4189 23.6133 64.4189 23.5413 64.3829C23.3613 64.3109 23.2172 64.3109 23.0732 64.4549L22.5692 65.5709L22.2812 65.4629L23.0013 63.8789L23.2532 63.9869L23.1813 64.1669C23.3253 64.0589 23.5052 64.0589 23.6492 64.1309C23.6852 64.1669 23.7212 64.1669 23.7572 64.2029L23.6853 64.4549Z" fill="white"/>
<path d="M25.2331 65.5346C25.0171 65.3546 24.8731 65.2106 24.8011 65.0666C24.7291 64.9226 24.7291 64.7786 24.7651 64.6346C24.8371 64.4546 24.9451 64.3466 25.1251 64.2746C25.3051 64.2026 25.5211 64.2386 25.7371 64.3106C25.8811 64.3826 26.0251 64.4546 26.0971 64.5626C26.2051 64.6706 26.2411 64.7786 26.2771 64.9226C26.3131 65.0666 26.2771 65.1746 26.2411 65.2826L25.9531 65.1746C25.9891 65.0306 25.9891 64.9226 25.9531 64.8146C25.8811 64.7066 25.8091 64.6346 25.6291 64.5626C25.4851 64.5266 25.3771 64.4906 25.2691 64.5266C25.1611 64.5626 25.0891 64.6346 25.0531 64.7426C25.0171 64.8146 25.0171 64.9226 25.0891 65.0306C25.1251 65.1386 25.2331 65.2106 25.4131 65.3546C25.5931 65.4626 25.7011 65.5706 25.7731 65.6786C25.8451 65.7866 25.9171 65.8946 25.9171 65.9666C25.9531 66.0746 25.9171 66.1826 25.8811 66.2906C25.8091 66.4706 25.7011 66.5786 25.5211 66.6506C25.3411 66.7226 25.1251 66.6866 24.9091 66.6146C24.7651 66.5426 24.6211 66.4706 24.5131 66.3626C24.4051 66.2546 24.3331 66.1466 24.2971 66.0026C24.2611 65.8586 24.2611 65.7506 24.3331 65.6066L24.6211 65.7146C24.5851 65.8586 24.5851 65.9666 24.6571 66.0746C24.7291 66.1826 24.8371 66.2906 25.0171 66.3266C25.1611 66.3986 25.3051 66.3986 25.4131 66.3626C25.5211 66.3266 25.5931 66.2546 25.6291 66.1466C25.6651 66.0386 25.6651 65.9306 25.5931 65.8586C25.5211 65.7506 25.4131 65.6426 25.2331 65.5346Z" fill="white"/>
<path d="M26.7807 67.1905C26.5647 67.1185 26.3847 66.9745 26.3127 66.7945C26.2047 66.6145 26.2047 66.3986 26.2767 66.1466V66.1105C26.3127 65.9305 26.4207 65.8225 26.4927 65.6785C26.6007 65.5705 26.7087 65.4985 26.8527 65.4625C26.9967 65.4265 27.1407 65.4265 27.2487 65.4625C27.4647 65.5345 27.6087 65.6425 27.6807 65.8225C27.7527 66.0025 27.7527 66.2186 27.6807 66.5066L27.6447 66.6145L26.5287 66.2545C26.4927 66.4345 26.4927 66.5786 26.5647 66.6866C26.6367 66.8306 26.7447 66.9025 26.8527 66.9385C26.9607 66.9745 27.0327 66.9745 27.1407 66.9385C27.2127 66.9025 27.2847 66.8665 27.3567 66.8305L27.5007 67.0105C27.3207 67.2265 27.0687 67.2625 26.7807 67.1905ZM27.2127 65.6785C27.1047 65.6425 26.9967 65.6425 26.8887 65.7145C26.7807 65.7865 26.7087 65.8945 26.6367 66.0385L27.4647 66.2905V66.2545C27.5007 66.1105 27.5007 65.9665 27.4647 65.8945C27.3927 65.7865 27.3207 65.7145 27.2127 65.6785Z" fill="white"/>
<path d="M29.0504 66.219C29.0144 66.183 28.9784 66.183 28.9064 66.183C28.7264 66.147 28.5824 66.183 28.4744 66.327L28.1864 67.515L27.8984 67.443L28.3304 65.751L28.6184 65.823L28.5824 66.003C28.7264 65.859 28.8704 65.823 29.0504 65.895C29.1224 65.895 29.1584 65.931 29.1584 65.967L29.0504 66.219Z" fill="white"/>
<path d="M29.6993 67.4791L30.3833 66.2551L30.6713 66.3271L29.6993 67.9111L29.4833 67.8751L29.1953 66.0391L29.4833 66.1111L29.6993 67.4791Z" fill="white"/>
<path d="M30.995 68.127L30.707 68.091L30.995 66.363L31.283 66.399L30.995 68.127ZM31.031 65.895C31.031 65.859 31.067 65.823 31.103 65.787C31.139 65.751 31.175 65.751 31.247 65.751C31.319 65.751 31.355 65.787 31.355 65.823C31.391 65.859 31.391 65.895 31.391 65.967C31.391 66.003 31.355 66.039 31.319 66.075C31.283 66.111 31.247 66.111 31.175 66.111C31.103 66.111 31.067 66.075 31.067 66.039C31.031 65.967 31.031 65.931 31.031 65.895Z" fill="white"/>
<path d="M32.2185 68.0548C32.3265 68.0548 32.4345 68.0548 32.5065 67.9828C32.5785 67.9108 32.6505 67.8388 32.6505 67.7668L32.9385 67.8028C32.9385 67.9108 32.8665 67.9828 32.7945 68.0908C32.7225 68.1628 32.6145 68.2348 32.5065 68.2708C32.3985 68.3068 32.2905 68.3068 32.1465 68.3068C31.8945 68.2708 31.7505 68.1628 31.6065 68.0188C31.4985 67.8388 31.4265 67.6228 31.4625 67.3348V67.2988C31.4985 67.1188 31.5345 66.9748 31.6065 66.8668C31.6785 66.7588 31.7865 66.6508 31.8945 66.5788C32.0025 66.5068 32.1465 66.5068 32.3265 66.5068C32.5065 66.5428 32.6865 66.6148 32.7945 66.7228C32.9025 66.8668 32.9745 67.0108 32.9385 67.1908H32.7585C32.7585 67.0828 32.7225 66.9748 32.6505 66.9028C32.5785 66.8308 32.5065 66.7588 32.3625 66.7588C32.2185 66.7228 32.0745 66.7948 32.0025 66.8668C31.8945 66.9748 31.8585 67.1188 31.8225 67.3348V67.4068C31.7865 67.6228 31.8225 67.7668 31.8945 67.8748C31.9665 67.9828 32.0745 68.0548 32.2185 68.0548Z" fill="white"/>
<path d="M34.0191 68.4864C33.7671 68.4864 33.5871 68.3784 33.4431 68.2344C33.2991 68.0544 33.2271 67.8744 33.2631 67.5864V67.5144C33.2631 67.3344 33.2991 67.1904 33.4071 67.0464C33.4791 66.9024 33.5871 66.8304 33.6951 66.7584C33.8031 66.6864 33.9471 66.6504 34.0911 66.6504C34.3071 66.6504 34.4871 66.7584 34.5951 66.9024C34.7031 67.0464 34.7751 67.2624 34.7391 67.5504V67.6584L33.5511 67.5864C33.5511 67.7664 33.5871 67.9104 33.6591 68.0184C33.7311 68.1264 33.8751 68.1984 34.0191 68.1984C34.1271 68.1984 34.1991 68.1984 34.3071 68.1624C34.4151 68.1264 34.4511 68.0544 34.5231 68.0184L34.7031 68.1624C34.5591 68.3784 34.3431 68.4864 34.0191 68.4864ZM34.0911 66.9024C33.9831 66.9024 33.8751 66.9384 33.7671 67.0104C33.6951 67.0824 33.6231 67.2264 33.5871 67.3704L34.4511 67.4424V67.4064C34.4511 67.2624 34.4151 67.1184 34.3431 67.0464C34.3071 66.9744 34.2351 66.9384 34.0911 66.9024Z" fill="white"/>
<path d="M37.8346 67.3713C37.8346 67.5873 37.7986 67.8033 37.7266 67.9833C37.6546 68.1633 37.5466 68.3073 37.4026 68.3793C37.2586 68.4873 37.1146 68.5233 36.8986 68.5233C36.7186 68.5233 36.5386 68.4873 36.3946 68.4153C36.2506 68.3433 36.1426 68.1993 36.0346 68.0193C35.9626 67.8393 35.8906 67.6593 35.8906 67.4433V67.2633C35.8906 67.0473 35.9266 66.8313 35.9986 66.6513C36.0706 66.4713 36.1786 66.3273 36.3226 66.2553C36.4666 66.1473 36.6106 66.1113 36.8266 66.1113C37.0066 66.1113 37.1866 66.1473 37.3306 66.2193C37.4746 66.2913 37.5826 66.4353 37.6906 66.6153C37.7626 66.7953 37.8346 66.9753 37.8346 67.2273V67.3713ZM37.5106 67.2273C37.5106 66.9393 37.4386 66.7233 37.3306 66.5793C37.2226 66.4353 37.0426 66.3633 36.8626 66.3633C36.6826 66.3633 36.5026 66.4353 36.3946 66.6153C36.2866 66.7593 36.2506 66.9753 36.2506 67.2273V67.4073C36.2506 67.6953 36.3226 67.8753 36.4306 68.0553C36.5386 68.1993 36.7186 68.2713 36.8986 68.2713C37.1146 68.2713 37.2586 68.1993 37.3666 68.0553C37.4746 67.9113 37.5106 67.6953 37.5106 67.4073V67.2273Z" fill="white"/>
<path d="M39.0585 66.8672C39.0225 66.8672 38.9505 66.8672 38.9145 66.8672C38.7345 66.8672 38.5905 66.9752 38.5545 67.1552L38.6625 68.3792L38.3745 68.4152L38.2305 66.6872L38.5185 66.6512L38.5545 66.8672C38.6265 66.6872 38.7705 66.6152 38.9505 66.6152C39.0225 66.6152 39.0585 66.6152 39.0945 66.6152L39.0585 66.8672Z" fill="white"/>
<path d="M39.3455 67.4424C39.3095 67.1904 39.3455 66.9384 39.4535 66.7584C39.5615 66.5784 39.7055 66.4704 39.9215 66.4704C40.1375 66.4344 40.3175 66.5064 40.4615 66.6144V66.4344L40.7495 66.3984L40.9655 68.0904C41.0015 68.3064 40.9655 68.4864 40.8215 68.6304C40.7135 68.7744 40.5335 68.8824 40.3175 68.8824C40.2095 68.8824 40.0655 68.8824 39.9575 68.8464C39.8135 68.8104 39.7415 68.7384 39.6695 68.6664L39.8135 68.4864C39.9575 68.6304 40.1375 68.6664 40.3175 68.6664C40.4615 68.6304 40.5695 68.5944 40.6415 68.4864C40.7135 68.3784 40.7495 68.2704 40.7135 68.1264L40.6775 67.9824C40.5695 68.1264 40.4255 68.2344 40.2095 68.2344C39.9935 68.2704 39.8495 68.1984 39.6695 68.0544C39.4535 67.9464 39.3815 67.7304 39.3455 67.4424ZM39.6335 67.4424C39.6695 67.6224 39.7055 67.8024 39.8135 67.8744C39.9215 67.9824 40.0295 68.0184 40.1735 67.9824C40.3535 67.9464 40.4975 67.8384 40.5335 67.6584L40.4255 66.8664C40.3175 66.7224 40.1735 66.6504 39.9935 66.6864C39.8495 66.7224 39.7415 66.7944 39.6695 66.9024C39.6335 67.0464 39.5975 67.2264 39.6335 67.4424Z" fill="white"/>
<path d="M42.5147 67.8387C42.4787 67.8027 42.4788 67.7667 42.4428 67.6587C42.3348 67.8387 42.1907 67.9467 42.0107 67.9827C41.8307 68.0187 41.6868 67.9827 41.5788 67.9107C41.4348 67.8387 41.3628 67.7307 41.3628 67.5867C41.3268 67.4067 41.3627 67.2627 41.4707 67.1187C41.5787 67.0107 41.7587 66.9027 42.0107 66.8667L42.2988 66.7947L42.2628 66.6507C42.2268 66.5427 42.1908 66.4707 42.1188 66.4347C42.0468 66.3987 41.9387 66.3627 41.8307 66.3987C41.7227 66.4347 41.6508 66.4707 41.5788 66.5427C41.5068 66.6147 41.5068 66.6867 41.5068 66.7587L41.2188 66.8307C41.2188 66.7587 41.2187 66.6507 41.2547 66.5787C41.2907 66.4707 41.3627 66.3987 41.4707 66.3267C41.5787 66.2547 41.6867 66.2187 41.7947 66.1827C41.9747 66.1467 42.1548 66.1467 42.2988 66.2547C42.4428 66.3267 42.5147 66.4707 42.5507 66.6147L42.6947 67.4067C42.7307 67.5507 42.7668 67.6947 42.8388 67.7667V67.8027L42.5147 67.8387ZM41.9747 67.6947C42.0827 67.6947 42.1548 67.6227 42.2268 67.5867C42.2988 67.5147 42.3347 67.4427 42.3707 67.3707L42.2988 67.0107L42.0828 67.0467C41.7228 67.1187 41.5787 67.2627 41.6147 67.4787C41.6147 67.5867 41.6868 67.6227 41.7588 67.6587C41.7948 67.6947 41.8667 67.7307 41.9747 67.6947Z" fill="white"/>
<path d="M43.127 65.8946L43.199 66.1106C43.271 65.9306 43.451 65.7866 43.631 65.7506C43.991 65.6426 44.207 65.8226 44.315 66.2186L44.603 67.3346L44.315 67.4066L44.027 66.2906C43.991 66.1826 43.955 66.0746 43.883 66.0386C43.811 66.0026 43.703 66.0026 43.595 66.0026C43.487 66.0386 43.415 66.0746 43.379 66.1466C43.307 66.2186 43.271 66.2906 43.271 66.3986L43.595 67.5866L43.307 67.6586L42.875 65.9666L43.127 65.8946Z" fill="white"/>
<path d="M44.457 65.0666C44.457 65.0306 44.457 64.9946 44.457 64.9226C44.493 64.8866 44.529 64.8506 44.565 64.8506C44.637 64.8506 44.673 64.8506 44.709 64.8506C44.745 64.8866 44.781 64.9226 44.781 64.9586C44.781 64.9946 44.781 65.0306 44.781 65.1026C44.745 65.1386 44.709 65.1746 44.673 65.1746C44.601 65.1746 44.565 65.1746 44.529 65.1746C44.529 65.1386 44.493 65.1026 44.457 65.0666ZM45.429 67.0826L45.141 67.1546L44.637 65.4986L44.925 65.4266L45.429 67.0826Z" fill="white"/>
<path d="M46.1123 66.6149L47.0843 66.2909L47.1563 66.5069L45.8603 66.9749L45.7883 66.7589L46.2923 65.2469L45.3923 65.5709L45.3203 65.3549L46.5803 64.9229L46.6523 65.1389L46.1123 66.6149Z" fill="white"/>
<path d="M48.5264 65.9311C48.4904 65.8951 48.4544 65.8591 48.4184 65.7871C48.3464 65.9671 48.2024 66.1111 48.0584 66.1831C47.9144 66.2551 47.7344 66.2551 47.6264 66.2191C47.4824 66.1831 47.3744 66.0751 47.3384 65.9311C47.2664 65.7511 47.2664 65.6071 47.3744 65.4631C47.4464 65.3191 47.6264 65.2111 47.8424 65.1031L48.0944 64.9951L48.0584 64.8511C48.0224 64.7431 47.9504 64.7071 47.8784 64.6711C47.8064 64.6351 47.6984 64.6351 47.5904 64.7071C47.4824 64.7431 47.4104 64.8151 47.3744 64.8871C47.3384 64.9591 47.3024 65.0311 47.3384 65.1031L47.0504 65.2111C47.0144 65.1391 47.0144 65.0311 47.0504 64.9591C47.0864 64.8511 47.1224 64.7791 47.1944 64.6711C47.2664 64.5991 47.3744 64.5271 47.4824 64.4551C47.6624 64.3831 47.8424 64.3471 47.9864 64.4191C48.1304 64.4551 48.2384 64.5631 48.3104 64.7431L48.5984 65.4991C48.6704 65.6431 48.7424 65.7511 48.8144 65.8231V65.8591L48.5264 65.9311ZM47.9864 65.9311C48.0584 65.8951 48.1304 65.8231 48.2024 65.7511C48.2744 65.6791 48.3104 65.6071 48.3104 65.4991L48.1664 65.1751L47.9504 65.2471C47.6264 65.3911 47.4824 65.5711 47.5544 65.7511C47.5904 65.8231 47.6624 65.8951 47.7344 65.9311C47.8424 65.9671 47.9144 65.9671 47.9864 65.9311Z" fill="white"/>
<path d="M48.7046 63.4824L48.8846 63.8784L49.1726 63.7344L49.2806 63.9504L48.9926 64.0944L49.4606 65.0664C49.4966 65.1384 49.5326 65.1744 49.5686 65.1744C49.6046 65.2104 49.6766 65.1744 49.7126 65.1744C49.7486 65.1744 49.7846 65.1384 49.8206 65.1024L49.9286 65.3184C49.8566 65.3544 49.7846 65.4264 49.7486 65.4624C49.6406 65.5344 49.5326 65.5344 49.4246 65.4984C49.3166 65.4624 49.2446 65.3544 49.1726 65.2464L48.7046 64.2744L48.4166 64.4184L48.3086 64.2024L48.5966 64.0584L48.4166 63.6624L48.7046 63.4824Z" fill="white"/>
<path d="M49.2809 63.1589C49.2449 63.1229 49.2449 63.0869 49.2809 63.0149C49.2809 62.9789 49.3169 62.9429 49.3889 62.9069C49.4249 62.8709 49.4969 62.8709 49.5329 62.9069C49.5689 62.9069 49.6049 62.9429 49.6409 62.9789C49.6769 63.0149 49.6769 63.0509 49.6409 63.1229C49.6409 63.1589 49.6049 63.1949 49.5329 63.2309C49.4609 63.2669 49.4249 63.2669 49.3889 63.2309C49.3529 63.2309 49.3169 63.1949 49.2809 63.1589ZM50.5769 64.9949L50.3249 65.1389L49.5329 63.5909L49.7849 63.4469L50.5769 64.9949Z" fill="white"/>
<path d="M50.5424 64.0232C50.4704 63.8792 50.3984 63.7352 50.3984 63.5552C50.3984 63.4112 50.4344 63.2672 50.4704 63.1592C50.5424 63.0512 50.6504 62.9432 50.7584 62.8712C50.9744 62.7632 51.1904 62.7272 51.3704 62.7992C51.5864 62.8712 51.7664 63.0152 51.8744 63.2672V63.3032C51.9464 63.4472 52.0184 63.5912 52.0184 63.7352C52.0184 63.8792 51.9824 64.0232 51.9464 64.1312C51.8744 64.2392 51.7664 64.3472 51.6224 64.4192C51.4064 64.5272 51.2264 64.5632 51.0104 64.4912C50.8664 64.4192 50.6864 64.2752 50.5424 64.0232ZM50.8304 63.8792C50.9384 64.0592 51.0464 64.1672 51.1904 64.2032C51.3344 64.2752 51.4424 64.2392 51.5864 64.1672C51.7304 64.0952 51.8024 63.9872 51.8024 63.8432C51.8384 63.6992 51.7664 63.5192 51.6584 63.3392C51.5504 63.1592 51.4424 63.0512 51.2984 63.0152C51.1544 62.9432 51.0104 62.9792 50.9024 63.0512C50.7584 63.1232 50.6864 63.2312 50.6864 63.3752C50.6864 63.5192 50.7224 63.6992 50.8304 63.8792Z" fill="white"/>
<path d="M52.0528 62.1506L52.1968 62.3306C52.2328 62.1146 52.3048 61.9346 52.4848 61.8266C52.8088 61.6106 53.0608 61.6826 53.2768 62.0426L53.8888 63.0146L53.6368 63.1946L53.0248 62.2226C52.9528 62.1146 52.8808 62.0426 52.8088 62.0426C52.7368 62.0066 52.6288 62.0426 52.5208 62.1146C52.4488 62.1506 52.3768 62.2226 52.3408 62.3306C52.3048 62.4026 52.3048 62.5106 52.3048 62.5826L52.9888 63.6266L52.7368 63.8066L51.8008 62.3306L52.0528 62.1506Z" fill="white"/>
<path d="M54.8977 61.7548C54.8617 61.6828 54.7897 61.6468 54.7177 61.6468C54.6457 61.6468 54.5378 61.6828 54.3938 61.7548C54.2498 61.8268 54.1418 61.8628 54.0338 61.8628C53.9258 61.8628 53.8537 61.8628 53.7817 61.8628C53.7097 61.8268 53.6377 61.7908 53.6017 61.7188C53.5297 61.6108 53.4937 61.4668 53.5297 61.3228C53.5657 61.1788 53.6737 61.0348 53.8177 60.9268C53.9617 60.8188 54.1418 60.7468 54.2858 60.7828C54.4298 60.7828 54.5737 60.8548 54.6817 60.9988L54.4297 61.1788C54.3937 61.1068 54.3218 61.0708 54.2138 61.0708C54.1058 61.0708 54.0337 61.1068 53.9617 61.1428C53.8897 61.2148 53.8177 61.2868 53.7817 61.3588C53.7457 61.4308 53.7817 61.5028 53.8177 61.5748C53.8537 61.6468 53.9257 61.6468 53.9977 61.6468C54.0697 61.6468 54.1777 61.6108 54.3217 61.5388C54.4657 61.4668 54.5737 61.4308 54.6817 61.4308C54.7897 61.4308 54.8618 61.4308 54.9338 61.4308C55.0058 61.4668 55.0778 61.5028 55.1138 61.5748C55.2218 61.6828 55.2218 61.8268 55.1858 61.9708C55.1498 62.1148 55.0417 62.2588 54.8617 62.3668C54.7537 62.4388 54.6457 62.5108 54.5017 62.5108C54.3937 62.5468 54.2857 62.5108 54.1777 62.5108C54.0697 62.4748 53.9978 62.4028 53.9258 62.3308L54.1777 62.1508C54.2497 62.2228 54.3217 62.2588 54.4297 62.2588C54.5377 62.2588 54.6097 62.2228 54.7177 62.1508C54.8257 62.0788 54.8617 62.0068 54.8977 61.9348C54.9337 61.8628 54.9337 61.7908 54.8977 61.7548Z" fill="white"/>
<path d="M56.9496 61.251L56.7336 61.431L54.9336 59.307L55.1496 59.127L56.9496 61.251Z" fill="white"/>
<path d="M58.2092 58.6587C58.1372 58.5867 58.0652 58.5507 57.9572 58.5507C57.8492 58.5507 57.7412 58.6227 57.5612 58.6947C57.3812 58.8027 57.2372 58.8387 57.0932 58.8747C56.8412 58.9107 56.6612 58.8747 56.4812 58.7307C56.3372 58.5867 56.3012 58.4427 56.3372 58.2267C56.3732 58.0467 56.4452 57.8307 56.6252 57.6867C56.7332 57.5787 56.8772 57.5067 56.9852 57.4347C57.1292 57.3987 57.2372 57.3627 57.3812 57.3987C57.5252 57.4347 57.6332 57.5067 57.7052 57.5787L57.4172 57.8667C57.3452 57.7947 57.2372 57.7227 57.1292 57.7587C57.0212 57.7587 56.9132 57.8307 56.8052 57.9027C56.6972 58.0107 56.6612 58.0827 56.6612 58.1907C56.6612 58.2987 56.6612 58.3707 56.7332 58.4427C56.8052 58.5147 56.8772 58.5147 56.9852 58.5147C57.0932 58.5147 57.2012 58.4427 57.3812 58.3707C57.5612 58.2987 57.7052 58.2267 57.8132 58.1907C57.9572 58.1547 58.0652 58.1547 58.1372 58.1907C58.2452 58.2267 58.3172 58.2627 58.4252 58.3707C58.5692 58.5147 58.6052 58.6587 58.6052 58.8747C58.5692 59.0547 58.4612 59.2347 58.2812 59.4147C58.1732 59.5227 58.0292 59.6307 57.8852 59.6667C57.7412 59.7387 57.5972 59.7387 57.4532 59.7027C57.3092 59.6667 57.2012 59.6307 57.0932 59.5227L57.3812 59.2347C57.4892 59.3427 57.5612 59.3787 57.7052 59.3787C57.8132 59.3787 57.9212 59.3067 58.0652 59.1987C58.1732 59.0907 58.2092 59.0187 58.2452 58.9107C58.2812 58.8027 58.2812 58.7307 58.2092 58.6587Z" fill="white"/>
<path d="M59.7201 57.975C59.5401 58.155 59.3601 58.263 59.1441 58.263C58.9281 58.263 58.7121 58.191 58.5321 58.011L58.4961 57.975C58.3521 57.867 58.2801 57.723 58.2081 57.579C58.1361 57.435 58.1361 57.291 58.1721 57.147C58.2081 57.003 58.2441 56.895 58.3521 56.751C58.4961 56.571 58.6761 56.499 58.8921 56.499C59.1081 56.499 59.2881 56.607 59.5041 56.787L59.6121 56.895L58.8561 57.723C58.9641 57.795 59.0721 57.867 59.2161 57.831C59.3241 57.831 59.4321 57.759 59.5401 57.687C59.6481 57.543 59.7201 57.399 59.6841 57.219L59.9721 57.183C60.0081 57.291 60.0081 57.435 59.9721 57.543C59.9001 57.723 59.8281 57.867 59.7201 57.975ZM58.6041 57.003C58.5321 57.075 58.4961 57.183 58.4961 57.255C58.4961 57.363 58.5681 57.471 58.6401 57.543L59.1441 57.003L59.1081 56.967C59.0001 56.895 58.8921 56.859 58.8201 56.859C58.7481 56.859 58.6761 56.931 58.6041 57.003Z" fill="white"/>
<path d="M59.9374 55.5273C59.9014 55.5633 59.8654 55.5993 59.8294 55.6353C59.7214 55.7793 59.6854 55.9233 59.7574 56.0313L60.6934 56.7873L60.4414 57.0753L59.1094 55.9593L59.3614 55.6713L59.5054 55.7793C59.4334 55.5993 59.4694 55.4553 59.5774 55.3473C59.6134 55.3113 59.6494 55.2753 59.6854 55.2393L59.9374 55.5273Z" fill="white"/>
<path d="M61.1987 55.3826L60.4067 54.3387L60.6587 54.0146L61.7027 55.5267L61.4867 55.8146L59.7227 55.2746L59.9747 54.9507L61.1987 55.3826Z" fill="white"/>
<path d="M60.4049 53.5468C60.3689 53.5108 60.3329 53.4747 60.2969 53.4027C60.2969 53.3307 60.2969 53.2947 60.3329 53.2227C60.3689 53.1507 60.4049 53.1147 60.4769 53.1147C60.5489 53.1147 60.5849 53.1147 60.6209 53.1507C60.6569 53.1867 60.6929 53.2227 60.6929 53.2947C60.6929 53.3667 60.6929 53.4027 60.6569 53.4747C60.6209 53.5467 60.5849 53.5827 60.5129 53.5827C60.4769 53.5827 60.4409 53.5828 60.4049 53.5468ZM62.4569 54.4468L62.2409 54.7707L60.8009 53.7987L61.0169 53.4747L62.4569 54.4468Z" fill="white"/>
<path d="M62.8532 53.295C62.8892 53.223 62.9252 53.115 62.9252 53.043C62.9252 52.971 62.8532 52.899 62.8172 52.827L62.9972 52.503C63.0692 52.575 63.1412 52.647 63.2132 52.755C63.2492 52.863 63.2852 52.971 63.2492 53.079C63.2492 53.187 63.2132 53.331 63.1412 53.403C62.9972 53.619 62.8532 53.727 62.6372 53.763C62.4212 53.799 62.2052 53.763 61.9532 53.583L61.9172 53.547C61.7012 53.403 61.5572 53.223 61.4852 53.043C61.4132 52.827 61.4492 52.647 61.5932 52.431C61.7012 52.251 61.8452 52.143 62.0252 52.107C62.2052 52.071 62.3852 52.071 62.5292 52.179L62.3492 52.503C62.2772 52.467 62.1692 52.431 62.0972 52.467C62.0252 52.503 61.9532 52.539 61.8812 52.611C61.8092 52.719 61.8092 52.827 61.8452 52.935C61.8812 53.043 61.9892 53.151 62.1332 53.259L62.1692 53.295C62.3132 53.403 62.4572 53.439 62.5652 53.439C62.7092 53.475 62.7812 53.403 62.8532 53.295Z" fill="white"/>
<path d="M64.0787 51.8548C63.9707 52.0708 63.7907 52.2148 63.5747 52.2868C63.3587 52.3588 63.1427 52.3228 62.9267 52.1788L62.8907 52.1428C62.7467 52.0708 62.6027 51.9628 62.5307 51.8188C62.4587 51.7108 62.3867 51.5668 62.3867 51.4228C62.3867 51.2788 62.4227 51.1348 62.4947 51.0268C62.6027 50.8108 62.7467 50.7028 62.9627 50.6668C63.1427 50.6308 63.3587 50.6668 63.6107 50.8108L63.7547 50.8828L63.2147 51.8908C63.3587 51.9628 63.4667 51.9628 63.5747 51.9268C63.6827 51.8908 63.7907 51.8188 63.8267 51.7108C63.8987 51.5668 63.9347 51.3868 63.8627 51.2068L64.1507 51.1348C64.2227 51.2428 64.2227 51.3508 64.2227 51.4948C64.1867 51.6028 64.1507 51.7108 64.0787 51.8548ZM62.7467 51.1708C62.7107 51.2788 62.6747 51.3508 62.7107 51.4588C62.7467 51.5668 62.8187 51.6388 62.9267 51.7108L63.2867 51.0628H63.2507C63.1427 50.9908 63.0347 50.9908 62.9267 51.0268C62.8547 51.0268 62.7827 51.0628 62.7467 51.1708Z" fill="white"/>
<path d="M64.6537 47.895C64.8697 48.003 65.0497 48.111 65.1577 48.255C65.3017 48.399 65.3737 48.543 65.3737 48.723C65.4097 48.903 65.3737 49.083 65.3017 49.263C65.2297 49.443 65.1217 49.587 64.9777 49.659C64.8337 49.731 64.6537 49.803 64.4737 49.803C64.2937 49.803 64.0777 49.767 63.8617 49.695L63.7537 49.659C63.5377 49.551 63.3577 49.443 63.2497 49.299C63.1057 49.155 63.0337 49.011 63.0337 48.831C62.9977 48.651 63.0337 48.471 63.1057 48.291C63.1777 48.111 63.2857 47.967 63.4297 47.895C63.5737 47.787 63.7537 47.751 63.9337 47.751C64.1137 47.751 64.3297 47.787 64.5457 47.895H64.6537ZM64.4017 48.219C64.1497 48.111 63.9697 48.075 63.7897 48.111C63.6097 48.147 63.5017 48.255 63.4297 48.399C63.3577 48.543 63.3577 48.723 63.4657 48.867C63.5377 49.011 63.7177 49.155 63.9337 49.227L64.0417 49.263C64.2937 49.371 64.4737 49.407 64.6537 49.371C64.8337 49.335 64.9417 49.227 65.0137 49.083C65.0857 48.903 65.0857 48.759 64.9777 48.615C64.9057 48.471 64.7257 48.363 64.4737 48.255L64.4017 48.219Z" fill="white"/>
<path d="M64.8355 46.5991C64.7995 46.6351 64.7995 46.7071 64.7635 46.7431C64.6915 46.9231 64.7275 47.0311 64.8355 47.1391L65.9515 47.5351L65.8075 47.8951L64.1875 47.2831L64.3315 46.9231L64.5115 46.9951C64.4035 46.8511 64.3675 46.7071 64.4395 46.5631C64.4755 46.5271 64.4755 46.4551 64.5115 46.4551L64.8355 46.5991Z" fill="white"/>
<path d="M65.4081 46.5631C65.1561 46.4911 64.9761 46.3471 64.8321 46.2031C64.7241 46.0231 64.6881 45.8431 64.7601 45.6631C64.8321 45.4831 64.9401 45.3391 65.0841 45.2671L64.9041 45.1951L65.0121 44.8711L66.6321 45.3751C66.8481 45.4471 66.9921 45.5551 67.1001 45.7351C67.1721 45.9151 67.2081 46.1311 67.1361 46.3471C67.1001 46.4551 67.0281 46.5631 66.9561 46.6711C66.8841 46.7791 66.7761 46.8511 66.6681 46.8871L66.4881 46.6351C66.6681 46.5631 66.7761 46.4551 66.8121 46.2751C66.8481 46.1671 66.8481 46.0591 66.8121 45.9511C66.7761 45.8431 66.6681 45.8071 66.5601 45.7351L66.4521 45.6991C66.5241 45.8431 66.5601 46.0231 66.4881 46.2031C66.4161 46.3831 66.3081 46.5271 66.0921 46.5991C65.9121 46.6351 65.6601 46.6351 65.4081 46.5631ZM65.5521 46.2031C65.7321 46.2391 65.8761 46.2751 65.9841 46.2391C66.0921 46.2031 66.1641 46.1311 66.2001 45.9871C66.2361 45.8431 66.2001 45.6991 66.1281 45.5911L65.4081 45.3751C65.2641 45.4111 65.1561 45.4831 65.1201 45.6631C65.0841 45.7711 65.0841 45.9151 65.1921 45.9871C65.2281 46.0591 65.3361 46.1311 65.5521 46.2031Z" fill="white"/>
<path d="M67.0666 43.8629C67.0306 43.8629 66.9586 43.8629 66.8866 43.8629C66.9946 44.0069 66.9946 44.1869 66.9586 44.3669C66.9226 44.5469 66.8506 44.6549 66.7066 44.7629C66.5986 44.8349 66.4546 44.8709 66.3106 44.8349C66.1306 44.7989 66.0226 44.6909 65.9506 44.5469C65.8786 44.4029 65.8786 44.1869 65.9506 43.9349L66.0226 43.7189L65.9146 43.6829C65.8426 43.6469 65.7346 43.6829 65.6986 43.7189C65.6266 43.7549 65.5906 43.8269 65.5546 43.9349C65.5186 44.0069 65.5546 44.1149 65.5546 44.1509C65.5906 44.2229 65.6266 44.2589 65.6986 44.2589L65.5906 44.6549C65.4826 44.6189 65.4106 44.5829 65.3386 44.5109C65.2666 44.4389 65.2306 44.3309 65.1946 44.2229C65.1586 44.1149 65.1946 43.9709 65.2306 43.8629C65.2666 43.6469 65.3746 43.5029 65.4826 43.4309C65.6266 43.3229 65.7706 43.3229 65.9506 43.3589L66.7066 43.5389C66.8506 43.5749 66.9946 43.5749 67.1026 43.5749H67.1386L67.0666 43.8629ZM66.7066 44.2229C66.7426 44.1509 66.7066 44.0789 66.7066 44.0069C66.6706 43.9349 66.6346 43.8629 66.5986 43.8269L66.2746 43.7549L66.2386 43.9709C66.2026 44.1149 66.2026 44.2229 66.2386 44.2949C66.2746 44.3669 66.3466 44.4389 66.4186 44.4389C66.4906 44.4749 66.5626 44.4389 66.5986 44.4029C66.6346 44.3669 66.6706 44.2949 66.7066 44.2229Z" fill="white"/>
<path d="M65.6267 42.3866L65.8427 42.4226C65.6987 42.2786 65.6627 42.0986 65.6987 41.8826C65.7707 41.5226 65.9867 41.3786 66.4187 41.4506L67.5347 41.6666L67.4627 42.0626L66.3467 41.8466C66.2387 41.8106 66.1667 41.8466 66.0947 41.8826C66.0227 41.9186 65.9867 41.9906 65.9867 42.0986C65.9507 42.2426 66.0227 42.3866 66.1307 42.4946L67.3547 42.7106L67.2827 43.1066L65.5547 42.7826L65.6267 42.3866Z" fill="white"/>
<path d="M65.4105 40.8749C65.3385 40.8749 65.3025 40.8389 65.2665 40.8029C65.2305 40.7669 65.2305 40.6949 65.2305 40.6229C65.2305 40.5509 65.2665 40.5149 65.3025 40.4789C65.3385 40.4429 65.4105 40.4429 65.4465 40.4429C65.5185 40.4429 65.5545 40.4789 65.5905 40.5149C65.6265 40.5509 65.6265 40.6229 65.6265 40.6949C65.6265 40.7669 65.5905 40.8029 65.5545 40.8389C65.5185 40.8749 65.4465 40.9109 65.4105 40.8749ZM67.6425 40.7669L67.6065 41.1629L65.8785 40.9109L65.9145 40.5149L67.6425 40.7669Z" fill="white"/>
<path d="M67.4252 39.8666L67.4972 38.9306L67.8212 38.9666L67.6772 40.3706L67.4252 40.3346L66.3452 39.3266L66.2732 40.1906L65.9492 40.1546L66.0932 38.7866L66.3452 38.8226L67.4252 39.8666Z" fill="white"/>
<path d="M67.8938 37.4909C67.8578 37.4909 67.8218 37.5269 67.7138 37.5269C67.8218 37.6709 67.8938 37.8149 67.8938 37.9949C67.8938 38.1749 67.8218 38.3189 67.7138 38.4269C67.6058 38.5349 67.4978 38.5709 67.3538 38.5709C67.1738 38.5709 67.0297 38.4989 66.9217 38.3549C66.8137 38.2109 66.7777 38.0309 66.7777 37.7429V37.4909H66.6697C66.5617 37.4909 66.4898 37.5269 66.4538 37.5629C66.3818 37.5989 66.3817 37.6709 66.3457 37.7789C66.3457 37.8509 66.3457 37.9589 66.4177 37.9949C66.4537 38.0669 66.5257 38.0669 66.5977 38.1029V38.4989C66.4897 38.4989 66.4177 38.4629 66.3457 38.3909C66.2737 38.3189 66.2017 38.2469 66.1657 38.1389C66.1297 38.0309 66.0938 37.9229 66.0938 37.7789C66.0938 37.5629 66.1657 37.4189 66.2738 37.3109C66.3818 37.2029 66.5257 37.1309 66.7057 37.1309L67.4977 37.1669C67.6417 37.1669 67.7858 37.1669 67.8938 37.1309H67.9297L67.8938 37.4909ZM67.6057 37.9229C67.6057 37.8509 67.6057 37.7789 67.5697 37.7069C67.5337 37.6349 67.4977 37.5989 67.4257 37.5629H67.1017V37.7789C67.1017 37.9229 67.1018 38.0309 67.1738 38.1029C67.2098 38.1749 67.2817 38.2109 67.3897 38.2109C67.4617 38.2109 67.5337 38.1749 67.5697 38.1389C67.5697 38.0669 67.6057 37.9949 67.6057 37.9229Z" fill="white"/>
<path d="M65.7344 36.2307H66.1664V35.9067H66.4544V36.2307H67.4264C67.4984 36.2307 67.5344 36.2307 67.5704 36.1947C67.6064 36.1587 67.6064 36.1227 67.6064 36.0507C67.6064 36.0147 67.6064 35.9427 67.6064 35.9067H67.8944C67.9304 35.9787 67.9304 36.0867 67.9304 36.1587C67.9304 36.4467 67.7864 36.6267 67.4264 36.6267H66.4544V36.9147H66.1664V36.6267H65.7344V36.2307Z" fill="white"/>
<path d="M65.6965 35.6549C65.6245 35.6549 65.5885 35.6549 65.5525 35.6189C65.5165 35.5829 65.4805 35.5109 65.4805 35.4749C65.4805 35.4029 65.4805 35.3309 65.5165 35.2949C65.5525 35.2589 65.5885 35.2229 65.6605 35.2229C65.7325 35.2229 65.7685 35.2229 65.8045 35.2589C65.8405 35.2949 65.8765 35.3669 65.8765 35.4389C65.8765 35.5109 65.8765 35.5829 65.8405 35.6189C65.8045 35.6189 65.7685 35.6549 65.6965 35.6549ZM67.8565 35.1509V35.5469L66.1285 35.6189V35.2229L67.8565 35.1509Z" fill="white"/>
<path d="M66.9921 34.8267C66.8121 34.8267 66.6681 34.8267 66.5241 34.7547C66.3801 34.6827 66.272 34.6107 66.2 34.5027C66.128 34.3947 66.056 34.2507 66.056 34.1067C66.02 33.8547 66.092 33.6747 66.236 33.5307C66.38 33.3867 66.5601 33.2787 66.8121 33.2427H66.92C67.1 33.2427 67.244 33.2427 67.388 33.3147C67.532 33.3867 67.6401 33.4587 67.7121 33.5667C67.7841 33.6747 67.856 33.8187 67.856 33.9987C67.892 34.2507 67.82 34.4307 67.676 34.6107C67.496 34.6827 67.2801 34.7907 66.9921 34.8267ZM66.9921 34.4307C67.1721 34.4307 67.316 34.3587 67.388 34.2867C67.496 34.2147 67.532 34.1067 67.496 33.9627C67.496 33.8187 67.424 33.7467 67.316 33.6747C67.208 33.6027 67.064 33.6027 66.848 33.6027C66.668 33.6027 66.5241 33.6747 66.4521 33.7467C66.3441 33.8187 66.308 33.9267 66.308 34.0707C66.308 34.2147 66.38 34.2867 66.488 34.3587C66.632 34.3947 66.7761 34.4307 66.9921 34.4307Z" fill="white"/>
<path d="M65.9133 32.5947L66.0933 32.5587C65.9133 32.4507 65.8053 32.3067 65.8053 32.0907C65.7693 31.7307 65.9493 31.5147 66.3453 31.4427L67.4973 31.2627L67.5693 31.6587L66.4533 31.8387C66.3453 31.8387 66.2733 31.8747 66.2013 31.9467C66.1653 32.0187 66.1293 32.0907 66.1653 32.1987C66.2013 32.3427 66.2733 32.4507 66.4173 32.5227L67.6413 32.3427L67.7133 32.7387L65.9853 32.9907L65.9133 32.5947Z" fill="white"/>
<path d="M66.7047 29.9309C66.6327 29.9309 66.5967 29.9669 66.5607 30.0389C66.5247 30.1109 66.5247 30.2189 66.5247 30.3269C66.5247 30.4709 66.5247 30.5789 66.4887 30.6869C66.4527 30.9029 66.3087 31.0109 66.1287 31.0469C65.9847 31.0829 65.8407 31.0469 65.7327 30.9389C65.6247 30.8309 65.5167 30.6869 65.4807 30.5069C65.4447 30.2909 65.4447 30.1109 65.5167 29.9669C65.5887 29.8229 65.6967 29.7149 65.8767 29.7149L65.9487 30.1109C65.8767 30.1109 65.8047 30.1829 65.7687 30.2189C65.7327 30.2909 65.7327 30.3629 65.7327 30.4349C65.7327 30.5069 65.7687 30.5789 65.8407 30.6149C65.8767 30.6509 65.9487 30.6869 66.0207 30.6509C66.0927 30.6509 66.1287 30.6148 66.1287 30.5428C66.1647 30.4708 66.1647 30.3629 66.1647 30.2189C66.1647 30.0749 66.1647 29.9308 66.2007 29.8228C66.2367 29.7148 66.2727 29.6429 66.3447 29.6069C66.4167 29.5349 66.4887 29.4989 66.5607 29.4989C66.7047 29.4629 66.8487 29.4989 66.9567 29.6069C67.0647 29.7149 67.1727 29.8589 67.2087 30.0749C67.2447 30.2189 67.2447 30.3629 67.2087 30.4709C67.1727 30.5789 67.1367 30.6869 67.0647 30.7589C66.9927 30.8309 66.8847 30.9028 66.8127 30.9028L66.7407 30.5428C66.8487 30.5068 66.8847 30.4709 66.9207 30.3989C66.9567 30.3269 66.9567 30.2189 66.9567 30.1469C66.9207 30.0389 66.8847 29.9669 66.8487 29.9309C66.8487 29.9309 66.7767 29.9309 66.7047 29.9309Z" fill="white"/>
<path d="M22.3546 28.2392H17.7466L16.7026 31.1192H15.2266L19.4386 20.1392H20.6986L24.9106 31.1192H23.3986L22.3546 28.2392ZM18.2146 27.0512H21.9586L20.0866 21.9032L18.2146 27.0512Z" fill="white"/>
<path d="M27.9361 31.1192H26.4961V20.1392H27.9361V31.1192Z" fill="white"/>
<path d="M38.664 27.627C38.52 28.779 38.088 29.679 37.368 30.327C36.648 30.975 35.676 31.263 34.488 31.263C33.192 31.263 32.148 30.795 31.356 29.859C30.564 28.923 30.168 27.699 30.168 26.115V25.071C30.168 24.063 30.348 23.163 30.708 22.371C31.068 21.579 31.572 21.003 32.256 20.571C32.94 20.139 33.696 19.959 34.596 19.959C35.748 19.959 36.684 20.283 37.404 20.931C38.124 21.579 38.52 22.479 38.628 23.631H37.188C37.08 22.767 36.792 22.119 36.36 21.723C35.928 21.327 35.352 21.147 34.596 21.147C33.66 21.147 32.94 21.507 32.436 22.191C31.896 22.875 31.644 23.847 31.644 25.107V26.187C31.644 27.375 31.896 28.347 32.4 29.031C32.904 29.751 33.588 30.075 34.488 30.075C35.28 30.075 35.928 29.895 36.324 29.535C36.756 29.175 37.044 28.527 37.188 27.627H38.664Z" fill="white"/>
<path d="M42.0806 26.8352V31.1192H40.6406V20.1392H44.7086C45.8966 20.1392 46.8686 20.4632 47.5166 21.0752C48.2006 21.6872 48.5246 22.5152 48.5246 23.5232C48.5246 24.6032 48.2006 25.3952 47.5166 25.9712C46.8326 26.5472 45.8966 26.8352 44.6366 26.8352H42.0806ZM42.0806 25.6472H44.6726C45.4646 25.6472 46.0406 25.4672 46.4366 25.1072C46.8326 24.7472 47.0486 24.2072 47.0486 23.5232C47.0486 22.8752 46.8326 22.3352 46.4366 21.9392C46.0406 21.5432 45.4646 21.3272 44.7446 21.3272H42.0446V25.6472H42.0806Z" fill="white"/>
<path d="M55.4014 28.2392H50.7934L49.7494 31.1192H48.2734L52.4854 20.1392H53.7454L57.9574 31.1192H56.4814L55.4014 28.2392ZM51.2614 27.0512H55.0054L53.1334 21.9032L51.2614 27.0512Z" fill="white"/>
<path d="M26.1692 44.1149C24.9092 43.7549 24.0092 43.3229 23.4692 42.7829C22.8932 42.2789 22.6052 41.6309 22.6052 40.8389C22.6052 39.9749 22.9652 39.2549 23.6492 38.6789C24.3332 38.1029 25.2332 37.8149 26.3492 37.8149C27.1052 37.8149 27.7893 37.9589 28.3653 38.2469C28.9413 38.5349 29.4092 38.9309 29.7332 39.4709C30.0572 39.9749 30.2372 40.5509 30.2372 41.1629H28.7972C28.7972 40.4789 28.5812 39.9749 28.1492 39.5789C27.7172 39.1829 27.1412 39.0029 26.3492 39.0029C25.6292 39.0029 25.0892 39.1469 24.6932 39.4709C24.2972 39.7949 24.0812 40.2269 24.0812 40.7669C24.0812 41.1989 24.2612 41.5949 24.6572 41.9189C25.0532 42.2429 25.7012 42.4949 26.6012 42.7829C27.5012 43.0349 28.2212 43.3229 28.7612 43.6469C29.2652 43.9709 29.6612 44.3309 29.9132 44.7269C30.1652 45.1229 30.2732 45.6269 30.2732 46.1669C30.2732 47.0669 29.9132 47.7869 29.2292 48.2909C28.5452 48.8309 27.6092 49.0829 26.4572 49.0829C25.7012 49.0829 24.9812 48.9389 24.3332 48.6509C23.6852 48.3629 23.1812 47.9669 22.8212 47.4629C22.4612 46.9589 22.2812 46.3829 22.2812 45.7349H23.7212C23.7212 46.3829 23.9732 46.9229 24.4412 47.3189C24.9452 47.7149 25.5932 47.8949 26.4212 47.8949C27.1772 47.8949 27.7893 47.7509 28.1853 47.4269C28.5813 47.1029 28.7972 46.7069 28.7972 46.1669C28.7972 45.6269 28.6172 45.1949 28.2212 44.9069C27.8612 44.6909 27.1772 44.4029 26.1692 44.1149Z" fill="white"/>
<path d="M40.5708 43.8629C40.5708 44.9429 40.3908 45.8789 40.0308 46.6709C39.6708 47.4629 39.1668 48.0749 38.4828 48.5069C37.8348 48.9389 37.0428 49.1549 36.1428 49.1549C35.2788 49.1549 34.5228 48.9389 33.8388 48.5069C33.1548 48.0749 32.6508 47.4629 32.2908 46.6709C31.9308 45.8789 31.7148 44.9789 31.7148 43.9349V43.1429C31.7148 42.0989 31.8948 41.1629 32.2548 40.3349C32.6148 39.5069 33.1548 38.8949 33.8028 38.4629C34.4868 38.0309 35.2428 37.8149 36.1068 37.8149C36.9708 37.8149 37.7628 38.0309 38.4468 38.4629C39.1308 38.8949 39.6348 39.5069 39.9948 40.2989C40.3548 41.0909 40.5348 42.0629 40.5348 43.1069V43.8629H40.5708ZM39.1308 43.1429C39.1308 41.8469 38.8788 40.8389 38.3388 40.1549C37.7988 39.4709 37.0788 39.1109 36.1428 39.1109C35.2428 39.1109 34.5228 39.4709 33.9828 40.1549C33.4428 40.8389 33.1908 41.8109 33.1548 43.0709V43.8629C33.1548 45.1229 33.4068 46.1309 33.9468 46.8509C34.4868 47.5709 35.2068 47.9309 36.1428 47.9309C37.0788 47.9309 37.7988 47.6069 38.3028 46.9229C38.8068 46.2389 39.0948 45.2669 39.0948 44.0069V43.1429H39.1308Z" fill="white"/>
<path d="M50.828 45.5191C50.684 46.6711 50.252 47.5711 49.532 48.2191C48.812 48.8671 47.84 49.1551 46.652 49.1551C45.356 49.1551 44.312 48.6871 43.52 47.7511C42.728 46.8151 42.332 45.5911 42.332 44.0071V42.9631C42.332 41.9551 42.512 41.0551 42.872 40.2631C43.232 39.4711 43.736 38.8951 44.42 38.4631C45.104 38.0311 45.86 37.8511 46.76 37.8511C47.912 37.8511 48.848 38.1751 49.568 38.8231C50.288 39.4711 50.684 40.3711 50.792 41.5231H49.352C49.244 40.6591 48.956 40.0111 48.524 39.6151C48.092 39.2191 47.516 39.0391 46.76 39.0391C45.824 39.0391 45.104 39.3991 44.6 40.0831C44.06 40.7671 43.808 41.7391 43.808 42.9991V44.0791C43.808 45.2671 44.06 46.2391 44.564 46.9231C45.068 47.6431 45.752 47.9671 46.652 47.9671C47.444 47.9671 48.092 47.7871 48.488 47.4271C48.884 47.0671 49.208 46.4191 49.352 45.5191H50.828Z" fill="white"/>
<path d="M22.4991 55.2385C22.4631 55.2025 22.4631 55.1305 22.4631 55.0225C22.2831 55.2025 22.1031 55.2745 21.8871 55.2745C21.6711 55.2745 21.5271 55.2025 21.3831 55.0945C21.2391 54.9865 21.2031 54.8425 21.2031 54.6625C21.2031 54.4465 21.2751 54.3025 21.4551 54.1585C21.5991 54.0505 21.8511 53.9785 22.1391 53.9785H22.4631V53.8345C22.4631 53.7265 22.4271 53.6185 22.3551 53.5465C22.2831 53.4745 22.1751 53.4385 22.0311 53.4385C21.9231 53.4385 21.8151 53.4745 21.7071 53.5465C21.6351 53.6185 21.5631 53.6905 21.5631 53.7625H21.2031C21.2031 53.6545 21.2391 53.5465 21.3111 53.4745C21.3831 53.3665 21.4911 53.2945 21.5991 53.2585C21.7071 53.1865 21.8511 53.1865 21.9951 53.1865C22.2471 53.1865 22.4271 53.2585 22.5351 53.3665C22.6791 53.4745 22.7511 53.6545 22.7511 53.8705V54.8065C22.7511 54.9865 22.7871 55.1305 22.8231 55.2385V55.2745H22.4991V55.2385ZM21.9231 54.9865C22.0311 54.9865 22.1391 54.9505 22.2471 54.9145C22.3551 54.8785 22.4271 54.7705 22.4631 54.6985V54.2305H22.1751C21.7431 54.2305 21.5271 54.3385 21.5271 54.5905C21.5271 54.6985 21.5631 54.7705 21.6351 54.8425C21.7071 54.9145 21.8151 54.9865 21.9231 54.9865Z" fill="white"/>
<path d="M23.3281 52.6467C23.3281 52.5747 23.3281 52.5387 23.3641 52.5027C23.4001 52.4667 23.4361 52.4307 23.5081 52.4307C23.5801 52.4307 23.6161 52.4667 23.6521 52.5027C23.6881 52.5387 23.6881 52.5747 23.6881 52.6467C23.6881 52.7187 23.6881 52.7547 23.6521 52.7907C23.6161 52.8267 23.5801 52.8627 23.5081 52.8627C23.4361 52.8627 23.4001 52.8267 23.3641 52.7907C23.3641 52.7547 23.3281 52.7187 23.3281 52.6467ZM23.7241 55.2387H23.3641V53.1867H23.7241V55.2387Z" fill="white"/>
<path d="M25.0906 54.9868C25.1986 54.9868 25.3066 54.9507 25.4146 54.8787C25.5226 54.8067 25.5586 54.6987 25.5586 54.5907H25.9186C25.9186 54.6987 25.8826 54.8067 25.8106 54.9147C25.7386 55.0227 25.6306 55.0948 25.5226 55.1668C25.4146 55.2388 25.2706 55.2747 25.1266 55.2747C24.8386 55.2747 24.6226 55.1668 24.4786 54.9868C24.2986 54.8068 24.2266 54.5547 24.2266 54.2307V54.1587C24.2266 53.9427 24.2626 53.7987 24.3346 53.6187C24.4066 53.4747 24.5146 53.3307 24.6586 53.2587C24.8026 53.1867 24.9466 53.1147 25.1266 53.1147C25.3426 53.1147 25.5586 53.1867 25.7026 53.3307C25.8466 53.4747 25.9186 53.6547 25.9546 53.8707H25.5586C25.5586 53.7267 25.4866 53.6188 25.4146 53.5468C25.3066 53.4748 25.1986 53.4027 25.0906 53.4027C24.9106 53.4027 24.7666 53.4747 24.6946 53.5827C24.5866 53.7267 24.5506 53.9067 24.5506 54.1227V54.1947C24.5506 54.4467 24.5866 54.6267 24.6946 54.7347C24.7666 54.9147 24.9106 54.9868 25.0906 54.9868Z" fill="white"/>
<path d="M28.0053 54.2307C28.0053 54.5547 27.9333 54.8068 27.7893 54.9868C27.6453 55.1668 27.4653 55.2747 27.2133 55.2747C26.9613 55.2747 26.7813 55.2027 26.6373 55.0227V55.9947H26.2773V53.1507H26.6013V53.3668C26.7453 53.1868 26.9253 53.1147 27.1773 53.1147C27.4293 53.1147 27.6093 53.2227 27.7533 53.4027C27.9333 53.6187 28.0053 53.8707 28.0053 54.2307ZM27.6813 54.1947C27.6813 53.9787 27.6453 53.7987 27.5373 53.6547C27.4293 53.5107 27.3213 53.4387 27.1413 53.4387C26.9253 53.4387 26.7813 53.5468 26.6733 53.7268V54.6987C26.7813 54.8787 26.9253 54.9868 27.1413 54.9868C27.3213 54.9868 27.4293 54.9147 27.5373 54.7707C27.6093 54.6627 27.6813 54.4467 27.6813 54.1947Z" fill="white"/>
<path d="M29.7335 55.2385C29.6975 55.2025 29.6975 55.1305 29.6975 55.0225C29.5175 55.2025 29.3375 55.2745 29.1215 55.2745C28.9055 55.2745 28.7615 55.2025 28.6175 55.0945C28.4735 54.9865 28.4375 54.8425 28.4375 54.6625C28.4375 54.4465 28.5095 54.3025 28.6895 54.1585C28.8335 54.0505 29.0855 53.9785 29.3735 53.9785H29.6975V53.8345C29.6975 53.7265 29.6615 53.6185 29.5895 53.5465C29.5175 53.4745 29.4095 53.4385 29.2655 53.4385C29.1575 53.4385 29.0495 53.4745 28.9415 53.5465C28.8695 53.6185 28.7975 53.6905 28.7975 53.7625H28.4375C28.4375 53.6545 28.4735 53.5465 28.5455 53.4745C28.6175 53.3665 28.7255 53.2945 28.8335 53.2585C28.9415 53.1865 29.0855 53.1865 29.2295 53.1865C29.4815 53.1865 29.6615 53.2585 29.7695 53.3665C29.9135 53.4745 29.9855 53.6545 29.9855 53.8705V54.8065C29.9855 54.9865 30.0215 55.1305 30.0575 55.2385V55.2745H29.7335V55.2385ZM29.1575 54.9865C29.2655 54.9865 29.3735 54.9505 29.4815 54.9145C29.5895 54.8785 29.6615 54.7705 29.6975 54.6985V54.2305H29.4095C28.9775 54.2305 28.7615 54.3385 28.7615 54.5905C28.7615 54.6985 28.7975 54.7705 28.8695 54.8425C28.9415 54.9505 29.0495 54.9865 29.1575 54.9865Z" fill="white"/>
<path d="M30.5625 55.0588C30.5625 54.9868 30.5625 54.9508 30.5985 54.9148C30.6345 54.8788 30.6705 54.8428 30.7425 54.8428C30.8145 54.8428 30.8865 54.8788 30.9225 54.9148C30.9585 54.9508 30.9945 55.0228 30.9945 55.0588C30.9945 55.1308 30.9585 55.1668 30.9225 55.2028C30.8865 55.2388 30.8145 55.2748 30.7425 55.2748C30.6705 55.2748 30.6345 55.2388 30.5985 55.2028C30.5985 55.1668 30.5625 55.0948 30.5625 55.0588Z" fill="white"/>
<path d="M31.5 54.1949C31.5 53.9789 31.536 53.7989 31.608 53.6549C31.68 53.5109 31.788 53.3669 31.932 53.2949C32.076 53.2229 32.22 53.1509 32.4 53.1509C32.688 53.1509 32.904 53.2589 33.084 53.4389C33.264 53.6189 33.336 53.8709 33.336 54.1949V54.2309C33.336 54.4469 33.3 54.5909 33.228 54.7709C33.156 54.9149 33.048 55.0589 32.904 55.1309C32.76 55.2029 32.616 55.2749 32.4 55.2749C32.112 55.2749 31.896 55.1669 31.716 54.9869C31.572 54.8069 31.5 54.5549 31.5 54.1949ZM31.86 54.2309C31.86 54.4469 31.896 54.6269 32.004 54.7709C32.112 54.9149 32.256 54.9869 32.436 54.9869C32.616 54.9869 32.76 54.9149 32.868 54.7709C32.976 54.6269 33.012 54.4469 33.012 54.1949C33.012 53.9789 32.976 53.7989 32.868 53.6549C32.76 53.5109 32.616 53.4389 32.436 53.4389C32.256 53.4389 32.112 53.5109 32.004 53.6549C31.896 53.7989 31.86 53.9789 31.86 54.2309Z" fill="white"/>
<path d="M34.7736 53.5109C34.7376 53.5109 34.6656 53.5109 34.5936 53.5109C34.3776 53.5109 34.1976 53.6189 34.1256 53.7989V55.2389H33.7656V53.1869H34.0896V53.4389C34.1976 53.2589 34.3776 53.1509 34.5936 53.1509C34.6656 53.1509 34.7016 53.1509 34.7376 53.1869V53.5109H34.7736Z" fill="white"/>
<path d="M35.0273 54.1949C35.0273 53.8709 35.0993 53.6189 35.2433 53.4389C35.3873 53.2589 35.6033 53.1509 35.8193 53.1509C36.0713 53.1509 36.2513 53.2229 36.3953 53.4029V53.1869H36.7193V55.1669C36.7193 55.4189 36.6473 55.6349 36.4673 55.7789C36.3233 55.9229 36.1073 55.9949 35.8193 55.9949C35.6753 55.9949 35.5313 55.9589 35.3873 55.8869C35.2433 55.8149 35.1353 55.7429 35.0633 55.6349L35.2433 55.4189C35.3873 55.5989 35.5673 55.7069 35.7833 55.7069C35.9633 55.7069 36.0713 55.6709 36.1793 55.5629C36.2873 55.4549 36.3233 55.3469 36.3233 55.1669V54.9869C36.1793 55.1309 35.9993 55.2389 35.7473 55.2389C35.4953 55.2389 35.3153 55.1309 35.1713 54.9509C35.0993 54.8069 35.0273 54.5189 35.0273 54.1949ZM35.3873 54.2309C35.3873 54.4469 35.4233 54.6269 35.5313 54.7709C35.6393 54.9149 35.7473 54.9509 35.9273 54.9509C36.1433 54.9509 36.3233 54.8429 36.3953 54.6629V53.7269C36.2873 53.5469 36.1433 53.4389 35.9273 53.4389C35.7473 53.4389 35.6393 53.5109 35.5313 53.6549C35.4233 53.7989 35.3873 53.9789 35.3873 54.2309Z" fill="white"/>
<path d="M37.331 55.4548H37.043L38.195 52.4668H38.483L37.331 55.4548Z" fill="white"/>
<path d="M40.0678 54.6989C40.0678 54.5909 40.0317 54.5189 39.9597 54.4829C39.8877 54.4469 39.7797 54.3749 39.5997 54.3389C39.4197 54.3029 39.2758 54.2669 39.1678 54.1949C39.0598 54.1589 38.9877 54.0869 38.9517 54.0149C38.9157 53.9429 38.8797 53.8709 38.8797 53.7629C38.8797 53.5829 38.9517 53.4389 39.0957 53.3309C39.2397 53.2229 39.4197 53.1509 39.6357 53.1509C39.8517 53.1509 40.0677 53.2229 40.2117 53.3309C40.3557 53.4389 40.4278 53.6189 40.4278 53.7989H40.0678C40.0678 53.6909 40.0317 53.6189 39.9597 53.5469C39.8877 53.4749 39.7797 53.4389 39.6357 53.4389C39.4917 53.4389 39.4198 53.4749 39.3478 53.5109C39.2758 53.5829 39.2397 53.6549 39.2397 53.7269C39.2397 53.7989 39.2758 53.8709 39.3478 53.9069C39.4198 53.9429 39.5278 53.9789 39.7078 54.0149C39.8878 54.0509 40.0317 54.0869 40.1397 54.1589C40.2477 54.2309 40.3197 54.2669 40.3917 54.3389C40.4277 54.4109 40.4638 54.5189 40.4638 54.6269C40.4638 54.8069 40.3918 54.9509 40.2478 55.0589C40.1038 55.1669 39.9237 55.2389 39.6717 55.2389C39.4917 55.2389 39.3477 55.2029 39.2397 55.1669C39.1317 55.1309 39.0237 55.0229 38.9517 54.9149C38.8797 54.8069 38.8438 54.6989 38.8438 54.5909H39.2038C39.2038 54.6989 39.2398 54.8069 39.3478 54.8789C39.4198 54.9509 39.5638 54.9869 39.7078 54.9869C39.8518 54.9869 39.9597 54.9509 40.0317 54.9149C40.0317 54.8429 40.0678 54.7709 40.0678 54.6989Z" fill="white"/>
<path d="M40.75 54.1949C40.75 53.9789 40.786 53.7989 40.858 53.6549C40.93 53.5109 41.038 53.3669 41.182 53.2949C41.326 53.2229 41.47 53.1509 41.65 53.1509C41.938 53.1509 42.154 53.2589 42.334 53.4389C42.514 53.6189 42.586 53.8709 42.586 54.1949V54.2309C42.586 54.4469 42.55 54.5909 42.478 54.7709C42.406 54.9149 42.298 55.0589 42.154 55.1309C42.01 55.2029 41.866 55.2749 41.65 55.2749C41.362 55.2749 41.146 55.1669 40.966 54.9869C40.858 54.8069 40.75 54.5549 40.75 54.1949ZM41.11 54.2309C41.11 54.4469 41.146 54.6269 41.254 54.7709C41.362 54.9149 41.506 54.9869 41.686 54.9869C41.866 54.9869 42.01 54.9149 42.118 54.7709C42.226 54.6269 42.262 54.4469 42.262 54.1949C42.262 53.9789 42.226 53.7989 42.118 53.6549C42.01 53.5109 41.866 53.4389 41.686 53.4389C41.506 53.4389 41.362 53.5109 41.254 53.6549C41.182 53.7989 41.11 53.9789 41.11 54.2309Z" fill="white"/>
<path d="M43.8844 54.9868C43.9924 54.9868 44.1004 54.9507 44.2084 54.8787C44.3164 54.8067 44.3524 54.6987 44.3524 54.5907H44.6764C44.6764 54.6987 44.6404 54.8067 44.5684 54.9147C44.4964 55.0227 44.3884 55.0948 44.2804 55.1668C44.1724 55.2388 44.0284 55.2747 43.8844 55.2747C43.5964 55.2747 43.3804 55.1668 43.2364 54.9868C43.0564 54.8068 42.9844 54.5547 42.9844 54.2307V54.1587C42.9844 53.9427 43.0204 53.7987 43.0924 53.6187C43.1644 53.4387 43.2724 53.3307 43.4164 53.2587C43.5604 53.1867 43.7044 53.1147 43.8844 53.1147C44.1004 53.1147 44.3164 53.1867 44.4604 53.3307C44.6044 53.4747 44.6764 53.6547 44.7124 53.8707H44.3884C44.3884 53.7267 44.3164 53.6188 44.2444 53.5468C44.1364 53.4748 44.0284 53.4027 43.9204 53.4027C43.7404 53.4027 43.5964 53.4747 43.5244 53.5827C43.4164 53.7267 43.3804 53.9067 43.3804 54.1227V54.1947C43.3804 54.4467 43.4164 54.6267 43.5244 54.7347C43.5604 54.9147 43.7044 54.9868 43.8844 54.9868Z" fill="white"/>
<path d="M46.5106 54.3028H46.9066V54.5908H46.5106V55.2388H46.1506V54.5908H44.8906V54.3748L46.1146 52.4668H46.4746V54.3028H46.5106ZM45.3226 54.3028H46.1866V52.9708L46.1506 53.0428L45.3226 54.3028Z" fill="white"/>
<path d="M48.4545 54.6989C48.4545 54.5909 48.4185 54.5189 48.3465 54.4829C48.2745 54.4469 48.1665 54.3749 47.9865 54.3389C47.8065 54.3029 47.6625 54.2669 47.5545 54.1949C47.4465 54.1589 47.3745 54.0869 47.3385 54.0149C47.3025 53.9429 47.2665 53.8709 47.2665 53.7629C47.2665 53.5829 47.3385 53.4389 47.4825 53.3309C47.6265 53.2229 47.8065 53.1509 48.0225 53.1509C48.2385 53.1509 48.4545 53.2229 48.5985 53.3309C48.7425 53.4389 48.8145 53.6189 48.8145 53.7989H48.4545C48.4545 53.6909 48.4185 53.6189 48.3465 53.5469C48.2745 53.4749 48.1665 53.4389 48.0225 53.4389C47.8785 53.4389 47.8065 53.4749 47.7345 53.5109C47.6625 53.5829 47.6265 53.6549 47.6265 53.7269C47.6265 53.7989 47.6625 53.8709 47.7345 53.9069C47.8065 53.9429 47.9145 53.9789 48.0945 54.0149C48.2745 54.0509 48.4185 54.0869 48.5265 54.1589C48.6345 54.2309 48.7065 54.2669 48.7785 54.3389C48.8145 54.4109 48.8505 54.5189 48.8505 54.6269C48.8505 54.8069 48.7785 54.9509 48.6345 55.0589C48.4905 55.1669 48.3105 55.2389 48.0585 55.2389C47.8785 55.2389 47.7345 55.2029 47.6265 55.1669C47.5185 55.1309 47.4105 55.0229 47.3385 54.9149C47.2665 54.8069 47.2305 54.6989 47.2305 54.5909H47.5905C47.5905 54.6989 47.6265 54.8069 47.7345 54.8789C47.8065 54.9509 47.9505 54.9869 48.0945 54.9869C48.2385 54.9869 48.3465 54.9509 48.4185 54.9149C48.4185 54.8429 48.4545 54.7709 48.4545 54.6989Z" fill="white"/>
<path d="M49.1758 54.1949C49.1758 53.9789 49.2118 53.7989 49.2838 53.6549C49.3558 53.5109 49.4638 53.3669 49.6078 53.2949C49.7518 53.2229 49.8958 53.1509 50.0758 53.1509C50.3638 53.1509 50.5798 53.2589 50.7598 53.4389C50.9398 53.6189 51.0118 53.8709 51.0118 54.1949V54.2309C51.0118 54.4469 50.9758 54.5909 50.9038 54.7709C50.8318 54.9149 50.7238 55.0589 50.5798 55.1309C50.4358 55.2029 50.2918 55.2749 50.0758 55.2749C49.7878 55.2749 49.5718 55.1669 49.3918 54.9869C49.2478 54.8069 49.1758 54.5549 49.1758 54.1949ZM49.4998 54.2309C49.4998 54.4469 49.5358 54.6269 49.6438 54.7709C49.7518 54.9149 49.8958 54.9869 50.0758 54.9869C50.2558 54.9869 50.3998 54.9149 50.5078 54.7709C50.6158 54.6269 50.6518 54.4469 50.6518 54.1949C50.6518 53.9789 50.6158 53.7989 50.5078 53.6549C50.3998 53.5109 50.2558 53.4389 50.0758 53.4389C49.8958 53.4389 49.7518 53.5109 49.6438 53.6549C49.5718 53.7989 49.4998 53.9789 49.4998 54.2309Z" fill="white"/>
<path d="M16.125 35.0068H57.345" stroke="white" stroke-width="0.5" stroke-miterlimit="10"/>
<defs>
<linearGradient id="paint0_linear_4400_10268" x1="70.2833" y1="36.5908" x2="1.71386" y2="36.5908" gradientUnits="userSpaceOnUse">
<stop stop-color="#2562AB"/>
<stop offset="1" stop-color="#1CB8E9"/>
</linearGradient>
<linearGradient id="paint1_linear_4400_10268" x1="9.06657" y1="36.5911" x2="62.9301" y2="36.5911" gradientUnits="userSpaceOnUse">
<stop stop-color="#2562AB"/>
<stop offset="1" stop-color="#1CB8E9"/>
</linearGradient>
</defs>
</svg>
