<svg width="151" height="32" viewBox="0 0 151 32" fill="none" xmlns="http://www.w3.org/2000/svg">
<g clip-path="url(#clip0_570_7847)">
<path d="M0 16C0 7.16338 7.16338 0 16 0C24.8366 0 32 7.16338 32 16C32 24.8366 24.8366 32 16 32C7.16338 32 0 24.8366 0 16ZM16 30.7799C24.1628 30.7799 30.7799 24.1626 30.7799 16C30.7799 7.8372 24.1626 1.22014 16 1.22014C7.8372 1.22014 1.22014 7.83743 1.22014 16C1.22014 24.1628 7.83743 30.7799 16 30.7799V30.7799Z" fill="#38B601"/>
<g clip-path="url(#clip1_570_7847)">
<g clip-path="url(#clip2_570_7847)">
<path fill-rule="evenodd" clip-rule="evenodd" d="M22.4226 24.3956H12.5368C11.4454 24.3956 10.5639 23.5141 10.5639 22.4227H11.5503C11.5503 22.9684 11.9911 23.4091 12.5368 23.4091H22.4226C22.9683 23.4091 23.4091 22.9684 23.4091 22.4227V12.5369C23.4091 11.9912 22.9683 11.5504 22.4226 11.5504V10.5639C23.514 10.5639 24.3956 11.4455 24.3956 12.5369V22.4227C24.3956 23.5141 23.514 24.3956 22.4226 24.3956ZM19.4632 21.4362H9.57739C8.48597 21.4362 7.60443 20.5546 7.60443 19.4632V9.57745C7.60443 8.48603 8.48597 7.60449 9.57739 7.60449H19.4632C20.5546 7.60449 21.4361 8.48603 21.4361 9.57745V19.4632C21.4361 20.5546 20.5546 21.4362 19.4632 21.4362Z" fill="#38B601"/>
</g>
</g>
</g>
<path d="M58.4 15.84C58.4 16.9467 58.26 17.9533 57.98 18.86C57.7 19.7533 57.28 20.5267 56.72 21.18C56.1733 21.8333 55.4867 22.3333 54.66 22.68C53.8467 23.0267 52.9 23.2 51.82 23.2C50.7 23.2 49.7267 23.0267 48.9 22.68C48.0733 22.32 47.3867 21.82 46.84 21.18C46.2933 20.5267 45.8867 19.7467 45.62 18.84C45.3533 17.9333 45.22 16.9267 45.22 15.82C45.22 14.3533 45.46 13.0733 45.94 11.98C46.42 10.8867 47.1467 10.0333 48.12 9.42C49.1067 8.80667 50.3467 8.5 51.84 8.5C53.2667 8.5 54.4667 8.80667 55.44 9.42C56.4133 10.02 57.1467 10.8733 57.64 11.98C58.1467 13.0733 58.4 14.36 58.4 15.84ZM47.12 15.84C47.12 17.04 47.2867 18.0733 47.62 18.94C47.9533 19.8067 48.4667 20.4733 49.16 20.94C49.8667 21.4067 50.7533 21.64 51.82 21.64C52.9 21.64 53.78 21.4067 54.46 20.94C55.1533 20.4733 55.6667 19.8067 56 18.94C56.3333 18.0733 56.5 17.04 56.5 15.84C56.5 14.04 56.1267 12.6333 55.38 11.62C54.6333 10.5933 53.4533 10.08 51.84 10.08C50.76 10.08 49.8667 10.3133 49.16 10.78C48.4667 11.2333 47.9533 11.8933 47.62 12.76C47.2867 13.6133 47.12 14.64 47.12 15.84ZM73.085 12.08C74.2983 12.08 75.205 12.3933 75.805 13.02C76.405 13.6333 76.705 14.6333 76.705 16.02V23H74.965V16.1C74.965 15.26 74.785 14.6267 74.425 14.2C74.0783 13.7733 73.5317 13.56 72.785 13.56C71.745 13.56 70.9983 13.86 70.545 14.46C70.105 15.06 69.885 15.9333 69.885 17.08V23H68.145V16.1C68.145 15.54 68.065 15.0733 67.905 14.7C67.745 14.3133 67.505 14.0267 67.185 13.84C66.865 13.6533 66.4517 13.56 65.945 13.56C65.225 13.56 64.6583 13.7133 64.245 14.02C63.8317 14.3133 63.5317 14.7467 63.345 15.32C63.1717 15.8933 63.085 16.6 63.085 17.44V23H61.325V12.28H62.745L63.005 13.74H63.105C63.3317 13.3667 63.605 13.06 63.925 12.82C64.2583 12.5667 64.625 12.38 65.025 12.26C65.425 12.14 65.8383 12.08 66.265 12.08C67.0917 12.08 67.7783 12.2267 68.325 12.52C68.885 12.8133 69.2917 13.2667 69.545 13.88H69.645C70.005 13.2667 70.4917 12.8133 71.105 12.52C71.7317 12.2267 72.3917 12.08 73.085 12.08ZM85.1764 12.08C86.4564 12.08 87.4231 12.3933 88.0764 13.02C88.7297 13.6333 89.0564 14.6333 89.0564 16.02V23H87.3164V16.14C87.3164 15.2733 87.1231 14.6267 86.7364 14.2C86.3497 13.7733 85.7431 13.56 84.9164 13.56C83.7297 13.56 82.9097 13.8933 82.4564 14.56C82.0031 15.2267 81.7764 16.1867 81.7764 17.44V23H80.0164V12.28H81.4364L81.6964 13.74H81.7964C82.0364 13.3667 82.3297 13.06 82.6764 12.82C83.0364 12.5667 83.4297 12.38 83.8564 12.26C84.2831 12.14 84.7231 12.08 85.1764 12.08ZM94.1397 12.28V23H92.3797V12.28H94.1397ZM93.2797 8.26C93.5464 8.26 93.7797 8.35333 93.9797 8.54C94.193 8.71333 94.2997 8.99333 94.2997 9.38C94.2997 9.75333 94.193 10.0333 93.9797 10.22C93.7797 10.4067 93.5464 10.5 93.2797 10.5C92.9864 10.5 92.7397 10.4067 92.5397 10.22C92.3397 10.0333 92.2397 9.75333 92.2397 9.38C92.2397 8.99333 92.3397 8.71333 92.5397 8.54C92.7397 8.35333 92.9864 8.26 93.2797 8.26ZM104.516 20.04C104.516 20.7333 104.343 21.3133 103.996 21.78C103.649 22.2467 103.156 22.6 102.516 22.84C101.876 23.08 101.116 23.2 100.236 23.2C99.4893 23.2 98.8426 23.14 98.2959 23.02C97.7626 22.9 97.2893 22.7333 96.8759 22.52V20.92C97.3026 21.1333 97.8159 21.3333 98.4159 21.52C99.0293 21.6933 99.6493 21.78 100.276 21.78C101.169 21.78 101.816 21.64 102.216 21.36C102.616 21.0667 102.816 20.68 102.816 20.2C102.816 19.9333 102.743 19.6933 102.596 19.48C102.449 19.2667 102.183 19.0533 101.796 18.84C101.423 18.6267 100.883 18.3867 100.176 18.12C99.4826 17.8533 98.8893 17.5867 98.3959 17.32C97.9026 17.0533 97.5226 16.7333 97.2559 16.36C96.9893 15.9867 96.8559 15.5067 96.8559 14.92C96.8559 14.0133 97.2226 13.3133 97.9559 12.82C98.7026 12.3267 99.6759 12.08 100.876 12.08C101.529 12.08 102.136 12.1467 102.696 12.28C103.269 12.4 103.803 12.5733 104.296 12.8L103.696 14.2C103.403 14.0667 103.089 13.9533 102.756 13.86C102.436 13.7533 102.109 13.6733 101.776 13.62C101.443 13.5533 101.103 13.52 100.756 13.52C100.036 13.52 99.4826 13.64 99.0959 13.88C98.7226 14.1067 98.5359 14.42 98.5359 14.82C98.5359 15.1133 98.6226 15.3667 98.7959 15.58C98.9693 15.78 99.2559 15.98 99.6559 16.18C100.069 16.3667 100.616 16.5933 101.296 16.86C101.976 17.1133 102.556 17.3733 103.036 17.64C103.516 17.9067 103.883 18.2333 104.136 18.62C104.389 18.9933 104.516 19.4667 104.516 20.04ZM110.686 21.76C110.953 21.76 111.226 21.74 111.506 21.7C111.786 21.6467 112.013 21.5933 112.186 21.54V22.88C112 22.9733 111.733 23.0467 111.386 23.1C111.04 23.1667 110.706 23.2 110.386 23.2C109.826 23.2 109.306 23.1067 108.826 22.92C108.36 22.72 107.98 22.38 107.686 21.9C107.393 21.42 107.246 20.7467 107.246 19.88V13.64H105.726V12.8L107.266 12.1L107.966 9.82H109.006V12.28H112.106V13.64H109.006V19.84C109.006 20.4933 109.16 20.98 109.466 21.3C109.786 21.6067 110.193 21.76 110.686 21.76ZM119.333 12.08C119.533 12.08 119.746 12.0933 119.973 12.12C120.213 12.1333 120.419 12.16 120.593 12.2L120.373 13.82C120.199 13.78 120.006 13.7467 119.793 13.72C119.593 13.6933 119.399 13.68 119.213 13.68C118.799 13.68 118.406 13.7667 118.033 13.94C117.659 14.1133 117.326 14.36 117.033 14.68C116.739 14.9867 116.506 15.36 116.333 15.8C116.173 16.24 116.093 16.7333 116.093 17.28V23H114.333V12.28H115.773L115.973 14.24H116.053C116.279 13.84 116.553 13.48 116.873 13.16C117.193 12.8267 117.559 12.5667 117.973 12.38C118.386 12.18 118.839 12.08 119.333 12.08ZM126.264 12.1C127.571 12.1 128.537 12.3867 129.164 12.96C129.791 13.5333 130.104 14.4467 130.104 15.7V23H128.824L128.484 21.48H128.404C128.097 21.8667 127.777 22.1933 127.444 22.46C127.124 22.7133 126.751 22.9 126.324 23.02C125.911 23.14 125.404 23.2 124.804 23.2C124.164 23.2 123.584 23.0867 123.064 22.86C122.557 22.6333 122.157 22.2867 121.864 21.82C121.571 21.34 121.424 20.74 121.424 20.02C121.424 18.9533 121.844 18.1333 122.684 17.56C123.524 16.9733 124.817 16.6533 126.564 16.6L128.384 16.54V15.9C128.384 15.0067 128.191 14.3867 127.804 14.04C127.417 13.6933 126.871 13.52 126.164 13.52C125.604 13.52 125.071 13.6067 124.564 13.78C124.057 13.94 123.584 14.1267 123.144 14.34L122.604 13.02C123.071 12.7667 123.624 12.5533 124.264 12.38C124.904 12.1933 125.571 12.1 126.264 12.1ZM126.784 17.82C125.451 17.8733 124.524 18.0867 124.004 18.46C123.497 18.8333 123.244 19.36 123.244 20.04C123.244 20.64 123.424 21.08 123.784 21.36C124.157 21.64 124.631 21.78 125.204 21.78C126.111 21.78 126.864 21.5333 127.464 21.04C128.064 20.5333 128.364 19.76 128.364 18.72V17.76L126.784 17.82ZM136.995 21.76C137.262 21.76 137.535 21.74 137.815 21.7C138.095 21.6467 138.322 21.5933 138.495 21.54V22.88C138.308 22.9733 138.042 23.0467 137.695 23.1C137.348 23.1667 137.015 23.2 136.695 23.2C136.135 23.2 135.615 23.1067 135.135 22.92C134.668 22.72 134.288 22.38 133.995 21.9C133.702 21.42 133.555 20.7467 133.555 19.88V13.64H132.035V12.8L133.575 12.1L134.275 9.82H135.315V12.28H138.415V13.64H135.315V19.84C135.315 20.4933 135.468 20.98 135.775 21.3C136.095 21.6067 136.502 21.76 136.995 21.76ZM144.781 12.08C145.701 12.08 146.488 12.28 147.141 12.68C147.808 13.08 148.315 13.6467 148.661 14.38C149.021 15.1 149.201 15.9467 149.201 16.92V17.98H141.861C141.888 19.1933 142.195 20.12 142.781 20.76C143.381 21.3867 144.215 21.7 145.281 21.7C145.961 21.7 146.561 21.64 147.081 21.52C147.615 21.3867 148.161 21.2 148.721 20.96V22.5C148.175 22.74 147.635 22.9133 147.101 23.02C146.568 23.14 145.935 23.2 145.201 23.2C144.188 23.2 143.288 22.9933 142.501 22.58C141.728 22.1667 141.121 21.5533 140.681 20.74C140.255 19.9133 140.041 18.9067 140.041 17.72C140.041 16.5467 140.235 15.54 140.621 14.7C141.021 13.86 141.575 13.2133 142.281 12.76C143.001 12.3067 143.835 12.08 144.781 12.08ZM144.761 13.52C143.921 13.52 143.255 13.7933 142.761 14.34C142.281 14.8733 141.995 15.62 141.901 16.58H147.361C147.361 15.9667 147.268 15.4333 147.081 14.98C146.895 14.5267 146.608 14.1733 146.221 13.92C145.848 13.6533 145.361 13.52 144.761 13.52Z" fill="black"/>
<defs>
<clipPath id="clip0_570_7847">
<rect width="32" height="32" fill="white"/>
</clipPath>
<clipPath id="clip1_570_7847">
<rect width="16.7911" height="16.7911" fill="white" transform="translate(7.60443 7.60449)"/>
</clipPath>
<clipPath id="clip2_570_7847">
<rect width="16.7911" height="16.7911" fill="white" transform="translate(7.60443 7.60449)"/>
</clipPath>
</defs>
</svg>
