<svg width="379" height="240" viewBox="0 0 379 240" fill="none" xmlns="http://www.w3.org/2000/svg">
<g clip-path="url(#clip0_204_5509)">
<path d="M0 16C0 7.16344 7.16344 0 16 0H362.667C371.503 0 378.667 7.16344 378.667 16V224C378.667 232.837 371.503 240 362.667 240H16C7.16343 240 0 232.837 0 224V16Z" fill="white"/>
<g clip-path="url(#clip1_204_5509)">
<path d="M380 -25H2V254.72H380V-25Z" fill="white"/>
<path d="M116.402 96.1591L86.5635 66.3204L56.7247 96.1591L86.5635 125.998L116.402 96.1591Z" fill="#37A8D8"/>
<path d="M86.5632 127.336L55.3877 96.1605L86.5632 64.985L117.739 96.1605L86.5632 127.336ZM58.0607 96.1603L86.5634 124.663L115.066 96.1603L86.5632 67.6578L58.0607 96.1603Z" fill="white"/>
<path d="M86.5636 125.998L56.7249 96.1592L26.8861 125.998L56.7249 155.837L86.5636 125.998Z" fill="#FDA506"/>
<path d="M56.7241 157.175L25.5486 125.999L56.7241 94.8239L87.8997 125.999L56.7241 157.175ZM28.2216 126L56.7243 154.502L85.2268 126L56.7241 97.4969L28.2216 126Z" fill="white"/>
<path d="M176.08 96.1587L146.241 66.3199L116.402 96.1587L146.241 125.997L176.08 96.1587Z" fill="#C45230"/>
<path d="M146.241 127.336L115.066 96.1605L146.241 64.985L177.417 96.1605L146.241 127.336ZM117.739 96.1603L146.242 124.663L174.744 96.1603L146.241 67.6578L117.739 96.1603Z" fill="white"/>
<path d="M146.241 125.998L116.403 96.159L86.5638 125.998L116.403 155.837L146.241 125.998Z" fill="#19A1A7"/>
<path d="M116.402 157.175L85.2268 125.999L116.402 94.8239L147.578 125.999L116.402 157.175ZM87.8996 126L116.402 154.502L144.905 126L116.402 97.4969L87.8996 126Z" fill="white"/>
<path d="M235.758 96.1583L205.919 66.3195L176.08 96.1583L205.919 125.997L235.758 96.1583Z" fill="#FDA506"/>
<path d="M205.919 127.336L174.744 96.1605L205.919 64.985L237.095 96.1605L205.919 127.336ZM177.417 96.1603L205.92 124.663L234.422 96.1603L205.92 67.6578L177.417 96.1603Z" fill="white"/>
<path d="M205.919 125.997L176.08 96.1586L146.242 125.997L176.08 155.836L205.919 125.997Z" fill="#414143"/>
<path d="M176.08 157.175L144.905 125.999L176.08 94.8239L207.256 125.999L176.08 157.175ZM147.578 126L176.08 154.502L204.583 125.999L176.08 97.4969L147.578 126Z" fill="white"/>
<path d="M295.435 96.1579L265.596 66.3191L235.758 96.1579L265.596 125.997L295.435 96.1579Z" fill="#414143"/>
<path d="M265.597 127.336L234.422 96.1605L265.597 64.985L296.773 96.1605L265.597 127.336ZM237.095 96.1603L265.598 124.663L294.1 96.1603L265.598 67.6576L237.095 96.1603Z" fill="white"/>
<path d="M265.597 125.997L235.758 96.1581L205.919 125.997L235.758 155.836L265.597 125.997Z" fill="#C45230"/>
<path d="M235.758 157.175L204.583 125.999L235.758 94.8239L266.934 125.999L235.758 157.175ZM207.256 126L235.759 154.502L264.261 126L235.759 97.4969L207.256 126Z" fill="white"/>
<path d="M355.113 96.1576L325.274 66.3188L295.436 96.1576L325.274 125.996L355.113 96.1576Z" fill="#19A1A7"/>
<path d="M325.276 127.336L294.1 96.1605L325.276 64.985L356.451 96.1605L325.276 127.336ZM296.773 96.1603L325.276 124.663L353.778 96.1603L325.276 67.6578L296.773 96.1603Z" fill="white"/>
<path d="M325.275 125.996L295.436 96.1577L265.597 125.996L295.436 155.835L325.275 125.996Z" fill="#37A8D8"/>
<path d="M295.437 157.175L264.261 125.999L295.437 94.8239L326.612 125.999L295.437 157.175ZM266.934 126L295.437 154.502L323.94 126L295.437 97.4969L266.934 126Z" fill="white"/>
<path d="M116.402 36.4814L86.563 6.64267L56.7242 36.4814L86.563 66.3202L116.402 36.4814Z" fill="#F6F7F7"/>
<path d="M86.5632 67.6578L55.3877 36.4823L86.5632 5.3067L117.739 36.4823L86.5632 67.6578ZM58.0607 36.4824L86.5634 64.9852L115.066 36.4824L86.5632 7.97973L58.0607 36.4824Z" fill="white"/>
<path d="M56.7242 36.4825L26.8853 6.64334L2 31.5286V41.4362L26.8853 66.3214L56.7242 36.4825Z" fill="#F6F7F7"/>
<path d="M58.0608 36.4825L26.8853 5.30692L2 30.1922V32.8652L26.8853 7.97994L55.3878 36.4825L26.8853 64.985L2 40.0997V42.7726L26.8853 67.6578L58.0608 36.4825Z" fill="white"/>
<path d="M86.5631 66.3204L56.7244 36.4816L26.8856 66.3204L56.7244 96.1591L86.5631 66.3204Z" fill="#F1F2F2"/>
<path d="M56.7241 97.497L25.5486 66.3214L56.7241 35.1458L87.8997 66.3214L56.7241 97.497ZM28.2216 66.3214L56.7241 94.8239L85.2267 66.3214L56.7241 37.8189L28.2216 66.3214Z" fill="white"/>
<path d="M86.5629 6.64269L56.7241 -23.1961L26.8854 6.64269L56.7241 36.4814L86.5629 6.64269Z" fill="#F9FAFA"/>
<path d="M56.7241 37.8189L25.5486 6.64332L56.7241 -24.5322L87.8997 6.64332L56.7241 37.8189ZM28.2216 6.64332L56.7243 35.146L85.227 6.64332L56.7241 -21.8592L28.2216 6.64332Z" fill="white"/>
<path d="M56.7242 215.517L26.8853 185.678L2 210.563V220.471L26.8853 245.356L56.7242 215.517Z" fill="#F9FAFA"/>
<path d="M58.0608 215.517L26.8853 184.341L2 209.226V211.899L26.8853 187.014L55.3878 215.517L26.8853 244.019L2 219.134V221.807L26.8853 246.692L58.0608 215.517Z" fill="white"/>
<path d="M116.403 215.514L86.5642 185.676L56.7254 215.514L86.5642 245.353L116.403 215.514Z" fill="#F9FAFA"/>
<path d="M86.5632 246.692L55.3877 215.517L86.5632 184.341L117.739 215.517L86.5632 246.692ZM58.0607 215.517L86.5634 244.019L115.066 215.517L86.5634 187.014L58.0607 215.517Z" fill="white"/>
<path d="M176.081 215.514L146.242 185.675L116.403 215.514L146.242 245.353L176.081 215.514Z" fill="#F9FAFA"/>
<path d="M146.241 246.692L115.066 215.517L146.241 184.341L177.417 215.517L146.241 246.692ZM117.739 215.517L146.241 244.019L174.744 215.517L146.241 187.014L117.739 215.517Z" fill="white"/>
<path d="M235.758 215.514L205.92 185.675L176.081 215.514L205.92 245.352L235.758 215.514Z" fill="#F9FAFA"/>
<path d="M205.919 246.692L174.744 215.517L205.919 184.341L237.095 215.517L205.919 246.692ZM177.417 215.517L205.919 244.019L234.422 215.517L205.919 187.014L177.417 215.517Z" fill="white"/>
<path d="M294.1 215.513L264.261 185.674L234.422 215.513L264.261 245.352L294.1 215.513Z" fill="#F9FAFA"/>
<path d="M264.261 246.692L233.086 215.517L264.261 184.341L295.437 215.517L264.261 246.692ZM235.759 215.517L264.261 244.019L292.764 215.517L264.261 187.014L235.759 215.517Z" fill="white"/>
<path d="M355.114 215.513L325.275 185.674L295.437 215.513L325.275 245.352L355.114 215.513Z" fill="#F9FAFA"/>
<path d="M325.276 246.692L294.1 215.517L325.276 184.341L356.451 215.517L325.276 246.692ZM296.773 215.517L325.276 244.019L353.778 215.517L325.276 187.014L296.773 215.517Z" fill="white"/>
<path d="M355.115 215.517L380 240.402V190.631L355.115 215.517Z" fill="#F9FAFA"/>
<path d="M356.451 215.517L380 191.968V189.295L353.778 215.517L380 241.738V239.065L356.451 215.517Z" fill="white"/>
<path d="M146.241 6.64238L116.402 -23.1964L86.5631 6.64238L116.402 36.4811L146.241 6.64238Z" fill="#F9FAFA"/>
<path d="M116.402 37.8189L85.2268 6.64332L116.402 -24.5322L147.578 6.64332L116.402 37.8189ZM87.8996 6.64332L116.402 35.146L144.905 6.64332L116.402 -21.8592L87.8996 6.64332Z" fill="white"/>
<path d="M205.918 6.64195L176.08 -23.1968L146.241 6.64195L176.08 36.4807L205.918 6.64195Z" fill="#F9FAFA"/>
<path d="M176.08 37.8189L144.905 6.64332L176.08 -24.5322L207.256 6.64332L176.08 37.8189ZM147.578 6.64332L176.08 35.1458L204.583 6.64314L176.08 -21.8594L147.578 6.64332Z" fill="white"/>
<path d="M265.596 6.64149L235.757 -23.1973L205.919 6.6415L235.757 36.4802L265.596 6.64149Z" fill="#F9FAFA"/>
<path d="M235.759 37.8189L204.583 6.64332L235.759 -24.5322L266.934 6.64332L235.759 37.8189ZM207.256 6.64332L235.759 35.146L264.261 6.64332L235.759 -21.8592L207.256 6.64332Z" fill="white"/>
<path d="M325.274 6.6411L295.435 -23.1977L265.596 6.6411L295.435 36.4799L325.274 6.6411Z" fill="#F9FAFA"/>
<path d="M295.437 37.8189L264.261 6.64332L295.437 -24.5322L326.612 6.64332L295.437 37.8189ZM266.934 6.64332L295.437 35.146L323.94 6.64332L295.437 -21.8592L266.934 6.64332Z" fill="white"/>
<path d="M325.276 6.64333L355.115 36.4825L380 11.5972V1.68945L355.115 -23.1958L325.276 6.64333Z" fill="#F9FAFA"/>
<path d="M323.939 6.64332L355.115 37.8189L380 12.9336V10.2606L355.115 35.1458L326.612 6.64332L355.115 -21.8592L380 3.02586V0.353027L355.115 -24.5322L323.939 6.64332Z" fill="white"/>
<path d="M2 -18.2419V31.5286L26.8853 6.64334L2 -18.2419Z" fill="#F9FAFA"/>
<path d="M2 -19.5783V-16.9055L25.5488 6.64333L2 30.1922V32.865L28.2217 6.64333L2 -19.5783Z" fill="white"/>
<path d="M2 41.4362V91.2067L26.8853 66.3214L2 41.4362Z" fill="#F1F2F2"/>
<path d="M2 40.0997V42.7726L25.5488 66.3214L2 89.8702V92.5431L28.2217 66.3214L2 40.0997Z" fill="white"/>
<path d="M56.7242 96.1605L26.8853 66.3214L2 91.2067V101.114L26.8853 125.999L56.7242 96.1605Z" fill="#F1F2F2"/>
<path d="M58.0608 96.1603L26.8853 64.985L2 89.8702V92.5431L26.8853 67.6578L55.388 96.1603L26.8853 124.663L2 99.7778V102.451L26.8853 127.336L58.0608 96.1603Z" fill="white"/>
<path d="M176.08 36.481L146.241 6.64224L116.402 36.481L146.241 66.3198L176.08 36.481Z" fill="#F6F7F7"/>
<path d="M146.241 67.6578L115.066 36.4823L146.241 5.3067L177.417 36.4823L146.241 67.6578ZM117.739 36.4824L146.241 64.985L174.744 36.4824L146.241 7.97992L117.739 36.4824Z" fill="white"/>
<path d="M146.241 66.3201L116.402 36.4813L86.5633 66.32L116.402 96.1588L146.241 66.3201Z" fill="#F1F2F2"/>
<path d="M116.402 97.497L85.2268 66.3214L116.402 35.1458L147.578 66.3214L116.402 97.497ZM87.8996 66.3214L116.402 94.8241L144.905 66.3214L116.402 37.8189L87.8996 66.3214Z" fill="white"/>
<path d="M235.757 36.4806L205.918 6.64185L176.08 36.4806L205.918 66.3194L235.757 36.4806Z" fill="#F6F7F7"/>
<path d="M205.919 67.6578L174.744 36.4823L205.919 5.3067L237.095 36.4823L205.919 67.6578ZM177.417 36.4824L205.92 64.985L234.422 36.4824L205.92 7.97992L177.417 36.4824Z" fill="white"/>
<path d="M205.919 66.3196L176.08 36.4809L146.241 66.3196L176.08 96.1584L205.919 66.3196Z" fill="#F1F2F2"/>
<path d="M176.08 97.497L144.905 66.3214L176.08 35.1458L207.256 66.3214L176.08 97.497ZM147.578 66.3214L176.08 94.8241L204.583 66.3214L176.08 37.8189L147.578 66.3214Z" fill="white"/>
<path d="M295.435 36.4802L265.596 6.64142L235.757 36.4802L265.596 66.3189L295.435 36.4802Z" fill="#F6F7F7"/>
<path d="M265.597 67.6578L234.422 36.4823L265.597 5.3067L296.773 36.4823L265.597 67.6578ZM237.095 36.4824L265.598 64.9852L294.1 36.4824L265.598 7.97973L237.095 36.4824Z" fill="white"/>
<path d="M265.596 66.3192L235.758 36.4805L205.919 66.3192L235.758 96.158L265.596 66.3192Z" fill="#F1F2F2"/>
<path d="M235.758 97.497L204.583 66.3214L235.758 35.1458L266.934 66.3214L235.758 97.497ZM207.256 66.3214L235.759 94.8239L264.261 66.3214L235.759 37.8189L207.256 66.3214Z" fill="white"/>
<path d="M355.113 36.4799L325.274 6.64111L295.435 36.4799L325.274 66.3186L355.113 36.4799Z" fill="#F6F7F7"/>
<path d="M325.276 67.6578L294.1 36.4823L325.276 5.3067L356.451 36.4823L325.276 67.6578ZM296.773 36.4824L325.276 64.985L353.778 36.4824L325.276 7.97992L296.773 36.4824Z" fill="white"/>
<path d="M355.115 36.4824L380 61.3677V11.5972L355.115 36.4824Z" fill="#F6F7F7"/>
<path d="M356.451 36.4824L380 12.9338V10.2608L353.778 36.4824L380 62.7041V60.0311L356.451 36.4824Z" fill="white"/>
<path d="M325.276 66.3214L355.115 96.1605L380 71.2753V61.3677L355.115 36.4825L325.276 66.3214Z" fill="#F1F2F2"/>
<path d="M323.939 66.3214L355.115 97.497L380 72.6117V69.9389L355.115 94.8241L326.612 66.3214L355.115 37.8189L380 62.7041V60.0311L355.115 35.1458L323.939 66.3214Z" fill="white"/>
<path d="M325.274 66.3188L295.435 36.48L265.597 66.3188L295.435 96.1576L325.274 66.3188Z" fill="#F1F2F2"/>
<path d="M295.437 97.497L264.261 66.3214L295.437 35.1458L326.612 66.3214L295.437 97.497ZM266.934 66.3214L295.437 94.8239L323.94 66.3214L295.437 37.8189L266.934 66.3214Z" fill="white"/>
<path d="M116.403 155.837L86.564 125.998L56.7252 155.837L86.564 185.676L116.403 155.837Z" fill="#F1F2F2"/>
<path d="M86.5632 187.014L55.3877 155.839L86.5632 124.663L117.739 155.839L86.5632 187.014ZM58.0607 155.839L86.5634 184.341L115.066 155.839L86.5632 127.336L58.0607 155.839Z" fill="white"/>
<path d="M86.5639 185.676L56.7251 155.837L26.8863 185.676L56.7251 215.514L86.5639 185.676Z" fill="#F6F7F7"/>
<path d="M56.7241 216.853L25.5486 185.678L56.7241 154.502L87.8997 185.678L56.7241 216.853ZM28.2216 185.678L56.7243 214.18L85.227 185.678L56.7241 157.175L28.2216 185.678Z" fill="white"/>
<path d="M2 160.792V210.563L26.8853 185.678L2 160.792Z" fill="#F6F7F7"/>
<path d="M2 159.456V162.129L25.5488 185.678L2 209.226V211.899L28.2217 185.678L2 159.456Z" fill="white"/>
<path d="M56.7242 155.839L26.8853 126L2 150.885V160.792L26.8853 185.678L56.7242 155.839Z" fill="#F1F2F2"/>
<path d="M58.0608 155.839L26.8853 124.663L2 149.548V152.221L26.8853 127.336L55.3878 155.839L26.8853 184.341L2 159.456V162.129L26.8853 187.014L58.0608 155.839Z" fill="white"/>
<path d="M2 101.114V150.885L26.8853 126L2 101.114Z" fill="#F1F2F2"/>
<path d="M2 99.7778V102.451L25.5488 126L2 149.549V152.221L28.2217 126L2 99.7778Z" fill="white"/>
<path d="M355.115 96.1605L380 121.046V71.2753L355.115 96.1605Z" fill="#F1F2F2"/>
<path d="M356.451 96.1603L380 72.6117V69.9388L353.778 96.1603L380 122.382V119.709L356.451 96.1603Z" fill="white"/>
<path d="M176.08 155.836L146.242 125.998L116.403 155.836L146.242 185.675L176.08 155.836Z" fill="#F1F2F2"/>
<path d="M146.241 187.014L115.066 155.839L146.241 124.663L177.417 155.839L146.241 187.014ZM117.739 155.839L146.241 184.341L174.744 155.839L146.241 127.336L117.739 155.839Z" fill="white"/>
<path d="M146.242 185.675L116.403 155.837L86.5643 185.675L116.403 215.514L146.242 185.675Z" fill="#F6F7F7"/>
<path d="M116.402 216.853L85.2268 185.678L116.402 154.502L147.578 185.678L116.402 216.853ZM87.8996 185.678L116.402 214.18L144.905 185.678L116.402 157.175L87.8996 185.678Z" fill="white"/>
<path d="M235.758 155.836L205.919 125.997L176.08 155.836L205.919 185.675L235.758 155.836Z" fill="#F1F2F2"/>
<path d="M205.919 187.014L174.744 155.839L205.919 124.663L237.095 155.839L205.919 187.014ZM177.417 155.839L205.92 184.341L234.422 155.839L205.92 127.336L177.417 155.839Z" fill="white"/>
<path d="M205.92 185.675L176.081 155.836L146.242 185.675L176.081 215.514L205.92 185.675Z" fill="#F6F7F7"/>
<path d="M176.08 216.853L144.905 185.678L176.08 154.502L207.256 185.678L176.08 216.853ZM147.578 185.678L176.081 214.18L204.583 185.678L176.08 157.175L147.578 185.678Z" fill="white"/>
<path d="M295.436 155.836L265.597 125.997L235.758 155.836L265.597 185.674L295.436 155.836Z" fill="#F1F2F2"/>
<path d="M265.597 187.014L234.422 155.839L265.597 124.663L296.773 155.839L265.597 187.014ZM237.095 155.839L265.598 184.341L294.1 155.839L265.597 127.336L237.095 155.839Z" fill="white"/>
<path d="M265.597 185.675L235.759 155.836L205.92 185.675L235.759 215.513L265.597 185.675Z" fill="#F6F7F7"/>
<path d="M235.758 216.853L204.583 185.678L235.758 154.502L266.934 185.678L235.758 216.853ZM207.256 185.678L235.759 214.18L264.261 185.678L235.759 157.175L207.256 185.678Z" fill="white"/>
<path d="M355.114 155.835L325.275 125.997L295.436 155.835L325.275 185.674L355.114 155.835Z" fill="#F1F2F2"/>
<path d="M325.276 187.014L294.1 155.839L325.276 124.663L356.451 155.839L325.276 187.014ZM296.773 155.839L325.276 184.341L353.778 155.839L325.276 127.336L296.773 155.839Z" fill="white"/>
<path d="M355.115 155.839L380 180.724V130.953L355.115 155.839Z" fill="#F1F2F2"/>
<path d="M356.451 155.839L380 132.29V129.617L353.778 155.839L380 182.06V179.387L356.451 155.839Z" fill="white"/>
<path d="M325.276 125.999L355.115 155.839L380 130.953V121.046L355.115 96.1605L325.276 125.999Z" fill="#F1F2F2"/>
<path d="M323.939 126L355.115 157.175L380 132.29V129.617L355.115 154.502L326.612 126L355.115 97.4969L380 122.382V119.709L355.115 94.8239L323.939 126Z" fill="white"/>
<path d="M325.275 185.674L295.436 155.835L265.598 185.674L295.436 215.513L325.275 185.674Z" fill="#F6F7F7"/>
<path d="M295.437 216.853L264.261 185.678L295.437 154.502L326.612 185.678L295.437 216.853ZM266.934 185.678L295.437 214.18L323.94 185.678L295.437 157.175L266.934 185.678Z" fill="white"/>
<path d="M325.276 185.678L355.115 215.517L380 190.631V180.724L355.115 155.839L325.276 185.678Z" fill="#F6F7F7"/>
<path d="M323.939 185.678L355.115 216.853L380 191.968V189.295L355.115 214.18L326.612 185.678L355.115 157.175L380 182.06V179.387L355.115 154.502L323.939 185.678Z" fill="white"/>
<path d="M265.593 105.979C262.411 105.979 259.919 104.656 259.919 102.968C259.919 101.747 261.216 100.69 263.302 100.209L263.31 100.208L263.797 100.11L263.905 100.647L263.421 100.744C261.626 101.158 260.466 102.031 260.466 102.969C260.466 104.304 262.814 105.432 265.593 105.432C268.372 105.432 270.72 104.304 270.72 102.969C270.72 102.031 269.56 101.158 267.764 100.744L267.28 100.647L267.388 100.11L267.883 100.21C269.97 100.69 271.267 101.747 271.267 102.969C271.267 104.656 268.775 105.979 265.593 105.979Z" fill="white"/>
<path d="M266.871 103.242H264.314L264.232 103.132C264.174 103.054 263.963 102.671 263.675 101C263.644 100.818 263.612 100.623 263.581 100.42C263.491 99.8401 263.403 99.1805 263.317 98.4585C263.195 98.3181 262.934 97.9857 262.755 97.5194L262.747 97.4933C262.725 97.4128 262.212 95.4878 262.52 92.4582L262.524 92.42L262.538 92.3843C262.605 92.2155 262.989 91.6366 265.1 91.2784L265.146 91.2707L265.191 91.2782C265.339 91.303 265.472 91.3149 265.597 91.3149C265.721 91.3149 265.852 91.3032 265.999 91.2788L266.045 91.2713L266.09 91.279C268.196 91.6372 268.58 92.2153 268.648 92.3839L268.662 92.4196L268.666 92.458C268.973 95.4875 268.461 97.4124 268.44 97.4929L268.431 97.5196C268.251 97.9857 267.99 98.3177 267.868 98.4582C267.783 99.1794 267.694 99.8388 267.604 100.419C267.573 100.623 267.541 100.818 267.51 100.999C267.223 102.67 267.011 103.054 266.953 103.132L266.871 103.242ZM264.627 102.695H266.558C266.634 102.494 266.782 102.003 266.971 100.907C267.001 100.729 267.033 100.537 267.064 100.336C267.156 99.7388 267.247 99.0562 267.335 98.3072L267.346 98.2128L267.413 98.1456C267.416 98.1429 267.721 97.8305 267.915 97.3368C267.957 97.1694 268.398 95.3399 268.128 92.5816C268.037 92.4793 267.603 92.0976 266.042 91.8264C265.723 91.8751 265.465 91.8747 265.147 91.8256C263.583 92.0968 263.149 92.4792 263.058 92.5814C262.787 95.3408 263.229 97.1703 263.272 97.337C263.467 97.8365 263.769 98.1425 263.772 98.1456L263.839 98.2128L263.85 98.3072C263.938 99.0569 264.029 99.7396 264.122 100.336C264.152 100.536 264.184 100.728 264.215 100.907C264.403 102.003 264.552 102.494 264.627 102.695Z" fill="white"/>
<path d="M265.598 91.3662C265.427 91.3662 265.256 91.3488 265.089 91.3146C263.928 91.0759 263.085 90.0411 263.085 88.8543C263.085 87.4692 264.212 86.3423 265.598 86.3423C266.984 86.3423 268.111 87.4692 268.111 88.8543C268.111 90.0435 267.266 91.0787 266.102 91.3157C265.936 91.3492 265.767 91.3662 265.598 91.3662ZM265.598 86.8895C264.514 86.8895 263.633 87.7708 263.633 88.8542C263.633 89.7823 264.291 90.5916 265.199 90.7784C265.459 90.8319 265.733 90.832 265.993 90.7791C266.903 90.5939 267.564 89.7842 267.564 88.8542C267.564 87.771 266.682 86.8895 265.598 86.8895Z" fill="white"/>
<path d="M272.695 100.845C270.535 100.845 268.843 99.9279 268.843 98.7576C268.843 97.9027 269.73 97.1679 271.157 96.8396L271.164 96.8379L271.487 96.7731L271.595 97.3096L271.276 97.3737C270.148 97.634 269.391 98.1898 269.391 98.7576C269.391 99.5011 270.718 100.297 272.695 100.297C274.672 100.297 276 99.5011 276 98.7576C276 98.1898 275.242 97.634 274.114 97.3737L273.795 97.3096L273.903 96.7731L274.233 96.8396C275.66 97.1679 276.547 97.9027 276.547 98.7578C276.547 99.9279 274.855 100.845 272.695 100.845Z" fill="white"/>
<path d="M273.588 99.0312H271.802L271.72 98.9213C271.607 98.7704 271.467 98.241 271.334 97.4692C271.313 97.3508 271.292 97.2225 271.271 97.0832C271.212 96.7045 271.155 96.276 271.099 95.8082C271.007 95.6994 270.844 95.479 270.729 95.1806L270.721 95.1547C270.706 95.1006 270.361 93.809 270.567 91.7848L270.571 91.7466L270.586 91.7111C270.649 91.5531 270.947 91.1602 272.354 90.9214L272.399 90.9137L272.444 90.9213C272.629 90.9521 272.764 90.9524 272.95 90.9216L272.995 90.9141L273.04 90.9218C274.444 91.1605 274.742 91.5529 274.805 91.7105L274.82 91.7462L274.824 91.7846C275.029 93.8088 274.686 95.1002 274.671 95.1543L274.662 95.1809C274.547 95.4792 274.383 95.6994 274.292 95.8082C274.236 96.276 274.178 96.7045 274.12 97.0832C274.098 97.2225 274.077 97.3509 274.057 97.469C273.924 98.2412 273.783 98.7706 273.67 98.9214L273.588 99.0312ZM272.12 98.4839H273.269C273.321 98.3289 273.409 98.0063 273.517 97.3762C273.537 97.2609 273.557 97.1354 273.578 96.9995C273.639 96.6043 273.7 96.1532 273.757 95.6585L273.768 95.5642L273.836 95.4969C273.837 95.4958 274.024 95.3025 274.145 94.998C274.179 94.8655 274.454 93.6869 274.286 91.9171C274.205 91.8434 273.903 91.6289 272.992 91.4688C272.782 91.4994 272.609 91.4992 272.401 91.4682C271.488 91.6283 271.184 91.8432 271.104 91.9169C270.935 93.6871 271.212 94.8659 271.245 94.998C271.365 95.3032 271.552 95.4949 271.554 95.4968L271.621 95.564L271.632 95.6584C271.69 96.153 271.75 96.6043 271.811 96.9995C271.832 97.1354 271.852 97.2609 271.872 97.3762C271.981 98.0065 272.069 98.3289 272.12 98.4839Z" fill="white"/>
<path d="M272.698 91.1626C272.579 91.1626 272.459 91.1505 272.343 91.1265C271.531 90.9595 270.941 90.236 270.941 89.4059C270.941 88.4372 271.729 87.6491 272.698 87.6491C273.667 87.6491 274.456 88.4372 274.456 89.4059C274.456 90.2377 273.865 90.9615 273.05 91.1271C272.935 91.1507 272.817 91.1626 272.698 91.1626ZM272.698 88.1965C272.031 88.1965 271.489 88.7389 271.489 89.4059C271.489 89.9772 271.894 90.4754 272.453 90.5903C272.613 90.6232 272.781 90.6234 272.941 90.5909C273.502 90.4769 273.909 89.9785 273.909 89.4059C273.909 88.7391 273.366 88.1965 272.698 88.1965Z" fill="white"/>
<path d="M258.5 100.845C256.341 100.845 254.649 99.9279 254.649 98.7576C254.649 97.9027 255.535 97.1677 256.962 96.8394L256.97 96.8379L257.293 96.7731L257.401 97.3096L257.081 97.3737C255.954 97.634 255.196 98.1898 255.196 98.7576C255.196 99.5011 256.524 100.297 258.501 100.297C260.477 100.297 261.805 99.5011 261.805 98.7576C261.805 98.1898 261.047 97.634 259.92 97.3737L259.6 97.3096L259.708 96.7731L260.039 96.8396C261.466 97.1679 262.352 97.9027 262.352 98.7576C262.352 99.9279 260.66 100.845 258.5 100.845Z" fill="white"/>
<path d="M259.394 99.0312H257.608L257.526 98.9214C257.413 98.7706 257.272 98.2412 257.139 97.4692C257.119 97.3508 257.098 97.2225 257.076 97.0832C257.018 96.7045 256.96 96.2758 256.904 95.8082C256.813 95.6994 256.649 95.4794 256.534 95.1809L256.525 95.1543C256.51 95.1002 256.167 93.8088 256.372 91.7846L256.376 91.7462L256.391 91.7105C256.454 91.5529 256.752 91.1603 258.156 90.9218L258.201 90.9141L258.246 90.9216C258.432 90.9523 258.567 90.9521 258.752 90.9213L258.797 90.9137L258.842 90.9214C260.249 91.1602 260.547 91.5531 260.61 91.7109L260.625 91.7466L260.629 91.7848C260.834 93.8092 260.49 95.1006 260.475 95.1547L260.467 95.1806C260.352 95.4792 260.188 95.6994 260.097 95.8082C260.041 96.276 259.983 96.7047 259.925 97.0834C259.903 97.2225 259.883 97.351 259.862 97.4692C259.729 98.2414 259.588 98.7706 259.476 98.9214L259.394 99.0312ZM257.926 98.4839H259.075C259.126 98.3289 259.214 98.0063 259.323 97.3762C259.342 97.2609 259.363 97.1356 259.384 96.9995C259.445 96.6043 259.505 96.1532 259.563 95.6584L259.574 95.564L259.641 95.4968C259.643 95.4956 259.83 95.3025 259.95 94.998C259.983 94.8672 260.26 93.688 260.091 91.9169C260.011 91.8432 259.708 91.6283 258.794 91.4682C258.586 91.499 258.413 91.4994 258.203 91.4688C257.292 91.6289 256.99 91.8434 256.909 91.9171C256.74 93.6941 257.016 94.8647 257.05 94.9978C257.171 95.3025 257.358 95.496 257.36 95.4979L257.426 95.5648L257.438 95.6587C257.495 96.1533 257.556 96.6045 257.617 96.9997C257.638 97.1356 257.658 97.2611 257.678 97.3764C257.787 98.0065 257.875 98.3289 257.926 98.4839Z" fill="white"/>
<path d="M258.497 91.1626C258.379 91.1626 258.26 91.1507 258.145 91.1273C257.33 90.9615 256.739 90.2376 256.739 89.406C256.739 88.4374 257.528 87.6493 258.497 87.6493C259.466 87.6493 260.254 88.4374 260.254 89.406C260.254 90.2359 259.665 90.9596 258.853 91.1267C258.736 91.1505 258.617 91.1626 258.497 91.1626ZM258.497 88.1964C257.83 88.1964 257.287 88.7389 257.287 89.4059C257.287 89.9785 257.693 90.4769 258.254 90.5909C258.414 90.6234 258.583 90.6234 258.742 90.5903C259.301 90.4754 259.707 89.9772 259.707 89.4059C259.707 88.7391 259.164 88.1964 258.497 88.1964Z" fill="white"/>
<path d="M338.369 103.954H337.822V86.8803C337.822 86.7417 337.672 86.6246 337.496 86.6246H313.055C312.878 86.6246 312.729 86.7417 312.729 86.8803V103.954H312.182V86.8803C312.182 86.4374 312.573 86.0772 313.055 86.0772H337.496C337.977 86.0772 338.369 86.4374 338.369 86.8803V103.954ZM335.932 102.42H314.62C314.468 102.42 314.346 102.298 314.346 102.147V88.7725C314.346 88.6215 314.468 88.4989 314.62 88.4989H335.932C336.083 88.4989 336.206 88.6213 336.206 88.7725V102.147C336.205 102.298 336.083 102.42 335.932 102.42ZM314.893 101.873H335.658V89.0462H314.893V101.873Z" fill="white"/>
<path d="M340.122 106.244H310.43C310.026 106.244 309.638 106.073 309.366 105.774C309.215 105.609 309.089 105.534 308.968 105.461C308.699 105.301 308.502 105.148 308.425 104.639C308.394 104.432 308.455 104.221 308.593 104.06C308.736 103.894 308.943 103.799 309.161 103.799H321.352C321.503 103.799 321.625 103.922 321.625 104.073C321.625 104.203 321.625 104.55 322.368 104.55H328.183C328.926 104.55 328.926 104.203 328.926 104.073C328.926 103.922 329.049 103.799 329.2 103.799H341.391C341.609 103.799 341.816 103.894 341.958 104.06C342.097 104.221 342.158 104.432 342.126 104.639C342.049 105.148 341.853 105.301 341.584 105.461C341.462 105.534 341.336 105.609 341.185 105.774C340.913 106.073 340.525 106.244 340.122 106.244ZM309.161 104.347C309.102 104.347 309.047 104.372 309.008 104.417C308.988 104.44 308.956 104.49 308.966 104.557C309.01 104.85 309.065 104.882 309.248 104.991C309.382 105.071 309.565 105.18 309.771 105.406C309.939 105.591 310.179 105.697 310.43 105.697H340.122C340.372 105.697 340.612 105.591 340.781 105.406C340.986 105.18 341.17 105.071 341.303 104.991C341.486 104.883 341.541 104.85 341.585 104.557C341.595 104.49 341.563 104.44 341.543 104.417C341.505 104.372 341.449 104.347 341.39 104.347H329.44C329.355 104.681 329.071 105.097 328.183 105.097H322.368C321.48 105.097 321.196 104.681 321.111 104.347H309.161Z" fill="white"/>
<path d="M325.26 98.9473C325.245 98.9473 325.231 98.9473 325.217 98.9471C325.073 98.9454 324.955 98.8318 324.947 98.6874L324.912 98.0038L324.57 97.9337L324.268 98.5481C324.205 98.6778 324.051 98.7356 323.918 98.6804C323.481 98.4996 323.092 98.2363 322.762 97.8984C322.662 97.7952 322.658 97.6311 322.755 97.524L323.214 97.0156L323.021 96.7239L322.374 96.9452C322.237 96.9919 322.088 96.9244 322.032 96.791C321.851 96.3546 321.763 95.8936 321.768 95.4208C321.77 95.2764 321.884 95.1582 322.028 95.1507L322.711 95.1157L322.782 94.7734L322.167 94.472C322.037 94.4085 321.979 94.255 322.035 94.1216C322.216 93.6846 322.479 93.2958 322.817 92.966C322.92 92.8651 323.084 92.8619 323.191 92.9587L323.7 93.4174L323.991 93.225L323.77 92.5773C323.723 92.4406 323.79 92.2911 323.924 92.2359C324.36 92.0552 324.821 91.9668 325.294 91.9721C325.439 91.9738 325.557 92.0874 325.564 92.2316L325.599 92.9152L325.942 92.9853L326.243 92.3707C326.307 92.241 326.46 92.1832 326.593 92.2384C327.03 92.4194 327.419 92.6825 327.749 93.0207C327.85 93.124 327.853 93.2879 327.756 93.3951L327.298 93.9035L327.49 94.1951L328.138 93.9736C328.274 93.9267 328.424 93.9944 328.479 94.1278C328.66 94.5642 328.749 95.0252 328.743 95.4981C328.742 95.6425 328.628 95.7606 328.484 95.7681L327.8 95.8033L327.73 96.1456L328.345 96.447C328.474 96.5107 328.532 96.664 328.477 96.7974C328.296 97.2342 328.033 97.623 327.695 97.953C327.591 98.0539 327.428 98.0571 327.32 97.9604L326.812 97.5017L326.521 97.6941L326.742 98.342C326.789 98.4786 326.721 98.6281 326.588 98.6833C326.164 98.8585 325.717 98.9473 325.26 98.9473ZM324.417 97.3493C324.436 97.3493 324.454 97.3512 324.473 97.355L325.229 97.5104C325.352 97.5355 325.441 97.6398 325.448 97.7644L325.48 98.3918C325.704 98.3752 325.923 98.3327 326.137 98.2654L325.934 97.6708C325.894 97.5529 325.938 97.4225 326.042 97.3539L326.688 96.9284C326.792 96.8598 326.929 96.8702 327.022 96.9537L327.488 97.3746C327.634 97.2047 327.76 97.0195 327.863 96.8205L327.299 96.5438C327.187 96.4888 327.126 96.3654 327.151 96.2431L327.307 95.4862C327.332 95.3641 327.436 95.2743 327.561 95.2679L328.188 95.2357C328.171 95.0122 328.129 94.7923 328.062 94.5786L327.467 94.782C327.349 94.8224 327.219 94.7778 327.15 94.6736L326.725 94.0286C326.656 93.9245 326.666 93.7872 326.75 93.6946L327.171 93.228C327.001 93.0817 326.816 92.9564 326.617 92.8528L326.34 93.417C326.285 93.5289 326.162 93.5897 326.039 93.5644L325.282 93.409C325.16 93.3839 325.07 93.2796 325.064 93.155L325.032 92.5276C324.808 92.5444 324.588 92.5867 324.374 92.654L324.578 93.2486C324.618 93.3665 324.573 93.4969 324.469 93.5655L323.824 93.991C323.72 94.0596 323.583 94.0492 323.49 93.9657L323.023 93.5448C322.877 93.7147 322.752 93.8999 322.648 94.0989L323.213 94.3756C323.325 94.4304 323.385 94.554 323.36 94.6763L323.205 95.4334C323.18 95.5555 323.075 95.6453 322.951 95.6517L322.323 95.6839C322.34 95.9074 322.383 96.1272 322.45 96.341L323.044 96.1378C323.162 96.0976 323.293 96.142 323.361 96.2461L323.787 96.8912C323.855 96.9953 323.845 97.1325 323.762 97.2251L323.341 97.6918C323.511 97.8381 323.696 97.9634 323.895 98.0668L324.171 97.5026C324.218 97.4075 324.315 97.3493 324.417 97.3493ZM325.255 96.8505C324.603 96.8505 324.019 96.3884 323.89 95.7247C323.819 95.3599 323.895 94.9895 324.103 94.6816C324.311 94.3735 324.626 94.1649 324.991 94.0942C325.355 94.0233 325.726 94.0987 326.034 94.3066C326.342 94.5143 326.55 94.8298 326.621 95.1945C326.692 95.5593 326.617 95.9297 326.409 96.2376C326.201 96.5457 325.886 96.7544 325.521 96.825C325.432 96.8422 325.343 96.8505 325.255 96.8505ZM325.258 94.6156C325.204 94.6156 325.149 94.6209 325.095 94.6313C324.874 94.6742 324.683 94.8008 324.556 94.9876C324.43 95.1743 324.385 95.399 324.428 95.6204C324.516 96.077 324.96 96.3762 325.417 96.2877C325.638 96.2448 325.829 96.1182 325.955 95.9314C326.081 95.7447 326.127 95.52 326.084 95.2987C326.041 95.0773 325.914 94.8861 325.728 94.7602C325.587 94.665 325.424 94.6156 325.258 94.6156Z" fill="white"/>
<path d="M325.256 101.04C324.866 101.04 324.47 100.997 324.079 100.913C323.938 100.883 323.845 100.749 323.865 100.607L323.959 99.9447L322.989 99.541L322.586 100.073C322.499 100.187 322.339 100.216 322.218 100.137C321.555 99.7054 321 99.1486 320.569 98.4822C320.491 98.3616 320.52 98.2013 320.635 98.115L321.168 97.7143L320.767 96.7425L320.103 96.8343C319.961 96.8543 319.828 96.7604 319.798 96.62C319.717 96.2359 319.676 95.8457 319.676 95.4597C319.676 95.0702 319.718 94.6742 319.803 94.2828C319.833 94.1424 319.966 94.0494 320.108 94.0694L320.771 94.1632L321.175 93.1927L320.643 92.7899C320.528 92.7033 320.5 92.5429 320.578 92.4225C321.01 91.7587 321.567 91.2038 322.233 90.7733C322.354 90.6954 322.514 90.7238 322.6 90.8387L323.001 91.3717L323.973 90.971L323.881 90.3074C323.862 90.1653 323.955 90.032 324.096 90.0022C324.867 89.8387 325.653 89.8389 326.433 90.0063C326.573 90.0366 326.666 90.17 326.646 90.3123L326.553 90.9749L327.523 91.3786L327.926 90.8466C328.012 90.7323 328.173 90.7041 328.293 90.7823C328.957 91.2142 329.512 91.771 329.942 92.4374C330.02 92.558 329.992 92.7183 329.877 92.8046L329.344 93.2055L329.745 94.1772L330.408 94.0855C330.55 94.0653 330.684 94.1594 330.714 94.2998C330.795 94.6841 330.836 95.0743 330.836 95.4601C330.836 95.8496 330.793 96.2456 330.709 96.637C330.679 96.7774 330.546 96.8698 330.403 96.8506L329.741 96.7568L329.337 97.7273L329.869 98.1301C329.984 98.2167 330.012 98.3771 329.934 98.4975C329.502 99.1613 328.945 99.7162 328.279 100.147C328.158 100.225 327.998 100.196 327.911 100.081L327.51 99.5484L326.539 99.949L326.63 100.613C326.65 100.755 326.557 100.888 326.416 100.918C326.032 100.999 325.641 101.04 325.256 101.04ZM324.444 100.425C324.982 100.514 325.517 100.514 326.052 100.428L325.967 99.8139C325.95 99.6905 326.019 99.571 326.134 99.5234L327.497 98.9611C327.612 98.9135 327.745 98.95 327.82 99.0496L328.191 99.5431C328.632 99.2269 329.013 98.8464 329.33 98.4081L328.838 98.0352C328.738 97.96 328.702 97.8271 328.75 97.712L329.317 96.3505C329.364 96.2354 329.484 96.1675 329.608 96.1845L330.221 96.2713C330.266 95.9999 330.289 95.7277 330.289 95.4593C330.289 95.1949 330.267 94.9279 330.224 94.6625L329.61 94.7476C329.487 94.765 329.367 94.6962 329.319 94.5809L328.757 93.2176C328.709 93.1023 328.746 92.9695 328.846 92.8946L329.339 92.5234C329.023 92.0832 328.642 91.7016 328.204 91.3843L327.831 91.877C327.756 91.9764 327.623 92.0124 327.508 91.9645L326.146 91.3981C326.031 91.3503 325.963 91.2307 325.981 91.107L326.067 90.4934C325.528 90.4049 324.993 90.4045 324.459 90.4903L324.544 91.105C324.561 91.2284 324.492 91.3478 324.377 91.3955L323.014 91.9575C322.899 92.0052 322.766 91.9687 322.691 91.8691L322.32 91.3756C321.88 91.6918 321.498 92.0723 321.181 92.5106L321.673 92.8835C321.773 92.9587 321.809 93.0915 321.761 93.2067L321.194 94.5682C321.147 94.6833 321.027 94.7517 320.903 94.7341L320.29 94.6472C320.245 94.9184 320.223 95.1906 320.223 95.4591C320.223 95.7236 320.244 95.9906 320.287 96.256L320.901 96.1709C321.024 96.1541 321.144 96.2223 321.192 96.3376L321.754 97.7011C321.801 97.8164 321.765 97.949 321.665 98.0241L321.172 98.3951C321.488 98.8353 321.869 99.217 322.307 99.5342L322.68 99.0415C322.755 98.942 322.888 98.9061 323.003 98.954L324.365 99.5204C324.48 99.5682 324.548 99.6878 324.53 99.8114L324.444 100.425Z" fill="white"/>
<path d="M56.7301 136.91C56.7075 136.91 56.685 136.91 56.6623 136.91L56.4054 136.907L56.327 135.376L55.4856 135.204L54.8106 136.579L54.5733 136.481C53.8709 136.19 53.2461 135.767 52.7158 135.224L52.5364 135.04L53.5631 133.902L53.0902 133.185L51.6402 133.681L51.5419 133.443C51.2514 132.742 51.1085 132.001 51.1176 131.241L51.1206 130.984L52.6509 130.905L52.8235 130.064L51.4478 129.389L51.5461 129.152C51.8371 128.449 52.2601 127.824 52.8033 127.294L52.987 127.115L54.1248 128.142L54.8418 127.669L54.3463 126.219L54.5835 126.12C55.2849 125.83 56.0271 125.687 56.7861 125.696L57.0429 125.699L57.1216 127.229L57.963 127.402L58.6379 126.026L58.8751 126.125C59.5774 126.416 60.2023 126.839 60.7326 127.382L60.912 127.566L59.8853 128.704L60.3582 129.421L61.8082 128.925L61.9065 129.162C62.197 129.864 62.3398 130.605 62.3308 131.365L62.3277 131.622L60.7974 131.7L60.6247 132.542L62.0004 133.217L61.9021 133.454C61.6111 134.156 61.1881 134.781 60.6447 135.311L60.461 135.491L59.3232 134.464L58.6061 134.937L59.1017 136.387L58.8645 136.485C58.1845 136.767 57.4667 136.91 56.7301 136.91ZM55.1807 134.582L56.8519 134.925L56.9254 136.359C57.436 136.339 57.9354 136.243 58.4162 136.072L57.9518 134.713L59.3759 133.774L60.4419 134.736C60.7887 134.361 61.0739 133.94 61.2928 133.479L60.0038 132.846L60.3467 131.175L61.7806 131.102C61.7611 130.591 61.6649 130.092 61.4935 129.611L60.1348 130.075L59.1956 128.651L60.1575 127.585C59.7831 127.238 59.3618 126.953 58.9002 126.734L58.268 128.023L56.5969 127.68L56.5232 126.247C56.0125 126.266 55.5132 126.362 55.0323 126.534L55.4967 127.892L54.0726 128.832L53.0066 127.87C52.6598 128.244 52.3746 128.665 52.1558 129.127L53.4447 129.759L53.1019 131.43L51.668 131.504C51.6874 132.014 51.7836 132.514 51.9551 132.995L53.3138 132.53L54.2529 133.954L53.2911 135.02C53.6655 135.367 54.0868 135.652 54.5483 135.871L55.1807 134.582Z" fill="white"/>
<path d="M56.7196 133.655C56.2556 133.655 55.8022 133.518 55.4091 133.253C54.8884 132.901 54.5355 132.368 54.4157 131.751C54.1685 130.478 55.0029 129.241 56.276 128.994C57.3679 128.782 58.4699 129.373 58.8959 130.398C58.9566 130.545 59.0027 130.698 59.0332 130.854C59.0636 131.011 59.0781 131.17 59.0766 131.328C59.0655 132.439 58.2649 133.399 57.1728 133.612C57.0218 133.641 56.8701 133.655 56.7196 133.655ZM56.7223 129.498C56.609 129.498 56.4947 129.509 56.3802 129.531C55.4034 129.721 54.7631 130.67 54.9528 131.647C55.0447 132.12 55.3153 132.529 55.7151 132.799C56.1146 133.068 56.5953 133.166 57.0685 133.074C57.9065 132.912 58.5208 132.175 58.5293 131.323C58.5306 131.202 58.5193 131.079 58.4958 130.959C58.4724 130.838 58.4371 130.721 58.3904 130.609C58.1082 129.929 57.4391 129.498 56.7223 129.498Z" fill="white"/>
<path d="M65.2898 128.629C65.2771 128.629 65.2645 128.629 65.2518 128.629L64.995 128.626L64.9517 127.783L64.6916 127.73L64.3198 128.487L64.0827 128.389C63.6895 128.226 63.3397 127.989 63.0428 127.685L62.8634 127.501L63.4289 126.875L63.2828 126.653L62.4843 126.926L62.386 126.689C62.2233 126.296 62.1433 125.882 62.1484 125.456L62.1514 125.199L62.9944 125.156L63.0477 124.896L62.29 124.524L62.3883 124.287C62.5512 123.894 62.788 123.544 63.0921 123.247L63.2758 123.068L63.9023 123.633L64.1239 123.487L63.8509 122.689L64.0881 122.59C64.4809 122.428 64.8967 122.346 65.3214 122.353L65.5782 122.356L65.6215 123.199L65.8816 123.252L66.2533 122.494L66.4905 122.593C66.8836 122.755 67.2335 122.992 67.5304 123.296L67.7098 123.48L67.1443 124.107L67.2904 124.328L68.0891 124.055L68.1874 124.292C68.3501 124.685 68.43 125.1 68.4249 125.525L68.4219 125.782L67.579 125.826L67.5257 126.086L68.2834 126.457L68.1851 126.695C68.0222 127.088 67.7853 127.438 67.4812 127.734L67.2975 127.914L66.671 127.348L66.4491 127.494L66.722 128.293L66.4848 128.391C66.104 128.549 65.702 128.629 65.2898 128.629ZM64.3869 127.108L65.4765 127.332L65.5145 128.072C65.691 128.057 65.8647 128.023 66.0341 127.972L65.7944 127.27L66.723 126.658L67.2733 127.155C67.3873 127.019 67.4863 126.873 67.5699 126.716L66.9044 126.39L67.128 125.3L67.8683 125.262C67.853 125.086 67.8196 124.912 67.7682 124.743L67.0668 124.982L66.4544 124.054L66.9509 123.504C66.8154 123.39 66.6689 123.291 66.5126 123.207L66.1862 123.872L65.0966 123.649L65.0586 122.909C64.8821 122.924 64.7084 122.957 64.5391 123.009L64.7787 123.71L63.8502 124.322L63.2998 123.826C63.1858 123.961 63.0868 124.108 63.0033 124.264L63.6687 124.591L63.4452 125.68L62.705 125.718C62.7203 125.895 62.7538 126.068 62.805 126.238L63.5064 125.998L64.1188 126.927L63.6221 127.477C63.7576 127.591 63.904 127.69 64.0603 127.774L64.3869 127.108Z" fill="white"/>
<path d="M51.0244 125.176C51.0144 125.176 51.0044 125.176 50.9944 125.176L50.7375 125.173L50.7037 124.513L50.5984 124.491L50.3074 125.085L50.07 124.986C49.7591 124.858 49.4822 124.67 49.2475 124.43L49.0681 124.246L49.5109 123.755L49.4518 123.665L48.8264 123.879L48.7281 123.642C48.5994 123.331 48.5362 123.003 48.5402 122.666L48.5432 122.41L49.2034 122.376L49.225 122.27L48.6315 121.979L48.7298 121.742C48.8587 121.431 49.046 121.154 49.2866 120.92L49.4703 120.74L49.9609 121.183L50.0507 121.124L49.8369 120.498L50.0741 120.4C50.3847 120.271 50.7139 120.208 51.0494 120.212L51.3062 120.215L51.3401 120.875L51.4455 120.897L51.7366 120.304L51.9738 120.402C52.2847 120.531 52.5616 120.718 52.7963 120.959L52.9757 121.142L52.5328 121.633L52.592 121.723L53.2174 121.509L53.3157 121.746C53.4444 122.057 53.5075 122.385 53.5035 122.721L53.5005 122.978L52.8403 123.012L52.8188 123.117L53.4123 123.408L53.314 123.646C53.1851 123.957 52.9978 124.233 52.7572 124.468L52.5735 124.648L52.0828 124.205L51.9931 124.264L52.2068 124.889L51.9696 124.988C51.6684 125.113 51.3505 125.176 51.0244 125.176ZM50.2936 123.87L51.2285 124.062L51.2569 124.615C51.345 124.604 51.4319 124.588 51.5175 124.565L51.3384 124.041L52.1352 123.515L52.5464 123.886C52.6011 123.816 52.6508 123.743 52.6952 123.666L52.1979 123.422L52.3898 122.487L52.9428 122.459C52.9322 122.371 52.9154 122.284 52.8925 122.198L52.3684 122.378L51.8428 121.581L52.2138 121.17C52.1441 121.115 52.0707 121.065 51.994 121.021L51.7502 121.518L50.8152 121.326L50.7869 120.773C50.6988 120.784 50.6118 120.801 50.5262 120.823L50.7054 121.347L49.9086 121.873L49.4973 121.502C49.4427 121.572 49.393 121.645 49.3486 121.722L49.8456 121.966L49.6538 122.901L49.1006 122.929C49.1114 123.017 49.128 123.104 49.1509 123.19L49.675 123.011L50.2006 123.807L49.8296 124.219C49.8993 124.273 49.9726 124.323 50.0494 124.367L50.2936 123.87Z" fill="white"/>
<path d="M64.8302 131.576L62.216 131.574L62.2165 131.027L64.8304 131.029C67.8718 131.029 70.3462 128.555 70.3462 125.513C70.3462 122.471 67.8716 119.996 64.83 119.996C64.6012 119.996 64.3592 120.015 64.0689 120.056L63.8569 120.086L63.7769 119.888C62.7361 117.305 60.2659 115.636 57.4838 115.636C55.2126 115.636 53.1018 116.767 51.8378 118.66L51.7418 118.804L51.5706 118.779C51.3411 118.745 51.148 118.729 50.9624 118.729C49.9179 118.729 48.9196 119.118 48.1514 119.824C47.3878 120.525 46.9159 121.478 46.8223 122.506L46.803 122.718L46.5934 122.752C44.5704 123.078 43.102 124.803 43.102 126.852C43.102 129.145 44.9677 131.01 47.261 131.01L51.3912 131.015L51.3906 131.562L47.2606 131.558C44.6658 131.558 42.5547 129.447 42.5547 126.852C42.5547 124.603 44.1179 122.699 46.3009 122.249C46.4483 121.164 46.969 120.166 47.7813 119.42C48.6507 118.622 49.7805 118.182 50.9624 118.182C51.1264 118.182 51.2939 118.192 51.4795 118.215C52.8546 116.254 55.0863 115.089 57.4838 115.089C60.4193 115.089 63.0338 116.808 64.2024 119.487C64.4301 119.461 64.6333 119.449 64.83 119.449C68.1734 119.449 70.8934 122.169 70.8934 125.513C70.8937 128.856 68.1736 131.576 64.8302 131.576Z" fill="white"/>
<path d="M124.238 130.79V130.243C127.173 130.243 129.561 127.855 129.561 124.919C129.561 121.984 127.173 119.596 124.238 119.596C124.017 119.596 123.784 119.614 123.504 119.654L123.292 119.683L123.212 119.485C122.207 116.992 119.822 115.381 117.137 115.381C114.944 115.381 112.907 116.472 111.686 118.3L111.59 118.444L111.419 118.419C111.198 118.386 111.011 118.371 110.832 118.371C109.825 118.371 108.862 118.746 108.121 119.426C107.385 120.102 106.93 121.021 106.839 122.014L106.82 122.225L106.611 122.259C104.659 122.574 103.243 124.237 103.243 126.214C103.243 128.425 105.043 130.225 107.254 130.225L108.556 130.226L108.555 130.773L107.254 130.772C104.741 130.772 102.696 128.727 102.696 126.214C102.696 124.037 104.207 122.195 106.318 121.757C106.462 120.709 106.966 119.744 107.751 119.023C108.593 118.25 109.687 117.824 110.832 117.824C110.989 117.824 111.15 117.834 111.328 117.855C112.659 115.96 114.817 114.834 117.136 114.834C119.975 114.834 122.504 116.495 123.637 119.085C123.854 119.06 124.049 119.048 124.238 119.048C127.475 119.048 130.108 121.682 130.108 124.919C130.109 128.156 127.475 130.79 124.238 130.79Z" fill="white"/>
<path d="M116.402 127.609C112.583 127.609 108.524 126.786 108.524 125.259C108.524 123.733 112.583 122.909 116.402 122.909C120.221 122.909 124.28 123.733 124.28 125.259C124.28 126.786 120.221 127.609 116.402 127.609ZM116.402 123.457C111.86 123.457 109.072 124.507 109.072 125.259C109.072 126.012 111.86 127.062 116.402 127.062C120.944 127.062 123.733 126.012 123.733 125.259C123.733 124.507 120.944 123.457 116.402 123.457Z" fill="white"/>
<path d="M116.402 130.818C112.583 130.818 108.524 129.994 108.524 128.468V125.299H109.072V128.468C109.072 129.221 111.86 130.271 116.402 130.271C120.944 130.271 123.733 129.221 123.733 128.468V125.299H124.28V128.468C124.28 129.994 120.221 130.818 116.402 130.818ZM118.096 129.708C117.7 129.708 117.378 129.386 117.378 128.99C117.378 128.595 117.7 128.273 118.096 128.273C118.491 128.273 118.813 128.595 118.813 128.99C118.813 129.386 118.491 129.708 118.096 129.708ZM118.096 128.82C118.002 128.82 117.925 128.896 117.925 128.99C117.925 129.084 118.002 129.161 118.096 129.161C118.19 129.161 118.266 129.084 118.266 128.99C118.266 128.896 118.19 128.82 118.096 128.82ZM116.402 129.708C116.007 129.708 115.685 129.386 115.685 128.99C115.685 128.595 116.007 128.273 116.402 128.273C116.798 128.273 117.12 128.595 117.12 128.99C117.12 129.386 116.798 129.708 116.402 129.708ZM116.402 128.82C116.308 128.82 116.232 128.896 116.232 128.99C116.232 129.084 116.308 129.161 116.402 129.161C116.496 129.161 116.573 129.084 116.573 128.99C116.573 128.896 116.496 128.82 116.402 128.82ZM114.709 129.708C114.313 129.708 113.992 129.386 113.992 128.99C113.992 128.595 114.313 128.273 114.709 128.273C115.105 128.273 115.427 128.595 115.427 128.99C115.427 129.386 115.105 129.708 114.709 129.708ZM114.709 128.82C114.615 128.82 114.539 128.896 114.539 128.99C114.539 129.084 114.615 129.161 114.709 129.161C114.803 129.161 114.879 129.084 114.879 128.99C114.879 128.896 114.803 128.82 114.709 128.82Z" fill="white"/>
<path d="M116.402 133.992C112.583 133.992 108.524 133.168 108.524 131.642V128.267H109.072V131.642C109.072 132.395 111.86 133.444 116.402 133.444C120.944 133.444 123.733 132.395 123.733 131.642V128.267H124.28V131.642C124.28 133.168 120.221 133.992 116.402 133.992ZM118.096 132.832C117.7 132.832 117.378 132.511 117.378 132.115C117.378 131.719 117.7 131.397 118.096 131.397C118.491 131.397 118.813 131.719 118.813 132.115C118.813 132.511 118.491 132.832 118.096 132.832ZM118.096 131.945C118.002 131.945 117.925 132.021 117.925 132.115C117.925 132.209 118.002 132.285 118.096 132.285C118.19 132.285 118.266 132.209 118.266 132.115C118.266 132.021 118.19 131.945 118.096 131.945ZM116.402 132.832C116.007 132.832 115.685 132.511 115.685 132.115C115.685 131.719 116.007 131.397 116.402 131.397C116.798 131.397 117.12 131.719 117.12 132.115C117.12 132.511 116.798 132.832 116.402 132.832ZM116.402 131.945C116.308 131.945 116.232 132.021 116.232 132.115C116.232 132.209 116.308 132.285 116.402 132.285C116.496 132.285 116.573 132.209 116.573 132.115C116.573 132.021 116.496 131.945 116.402 131.945ZM114.709 132.832C114.313 132.832 113.992 132.511 113.992 132.115C113.992 131.719 114.313 131.397 114.709 131.397C115.105 131.397 115.427 131.719 115.427 132.115C115.427 132.511 115.105 132.832 114.709 132.832ZM114.709 131.945C114.615 131.945 114.539 132.021 114.539 132.115C114.539 132.209 114.615 132.285 114.709 132.285C114.803 132.285 114.879 132.209 114.879 132.115C114.879 132.021 114.803 131.945 114.709 131.945Z" fill="white"/>
<path d="M116.402 137.165C112.583 137.165 108.524 136.342 108.524 134.815V131.441H109.072V134.815C109.072 135.568 111.86 136.618 116.402 136.618C120.944 136.618 123.733 135.568 123.733 134.815V131.441H124.28V134.815C124.28 136.342 120.221 137.165 116.402 137.165ZM118.096 135.957C117.7 135.957 117.378 135.635 117.378 135.239C117.378 134.844 117.7 134.522 118.096 134.522C118.491 134.522 118.813 134.844 118.813 135.239C118.813 135.635 118.491 135.957 118.096 135.957ZM118.096 135.069C118.002 135.069 117.925 135.146 117.925 135.24C117.925 135.333 118.002 135.41 118.096 135.41C118.19 135.41 118.266 135.333 118.266 135.24C118.266 135.146 118.19 135.069 118.096 135.069ZM116.402 135.957C116.007 135.957 115.685 135.635 115.685 135.239C115.685 134.844 116.007 134.522 116.402 134.522C116.798 134.522 117.12 134.844 117.12 135.239C117.12 135.635 116.798 135.957 116.402 135.957ZM116.402 135.069C116.308 135.069 116.232 135.146 116.232 135.24C116.232 135.333 116.308 135.41 116.402 135.41C116.496 135.41 116.573 135.333 116.573 135.24C116.573 135.146 116.496 135.069 116.402 135.069ZM114.709 135.957C114.313 135.957 113.992 135.635 113.992 135.239C113.992 134.844 114.313 134.522 114.709 134.522C115.105 134.522 115.427 134.844 115.427 135.239C115.427 135.635 115.105 135.957 114.709 135.957ZM114.709 135.069C114.615 135.069 114.539 135.146 114.539 135.24C114.539 135.333 114.615 135.41 114.709 135.41C114.803 135.41 114.879 135.333 114.879 135.24C114.879 135.146 114.803 135.069 114.709 135.069Z" fill="white"/>
<path d="M235.759 120.773C231.94 120.773 227.881 119.95 227.881 118.423C227.881 116.897 231.939 116.073 235.759 116.073C239.578 116.073 243.636 116.897 243.636 118.423C243.636 119.95 239.577 120.773 235.759 120.773ZM235.759 116.621C231.217 116.621 228.428 117.671 228.428 118.423C228.428 119.176 231.217 120.226 235.759 120.226C240.3 120.226 243.089 119.176 243.089 118.423C243.089 117.671 240.3 116.621 235.759 116.621Z" fill="white"/>
<path d="M235.759 123.982C231.94 123.982 227.881 123.158 227.881 121.632V118.463H228.428V121.632C228.428 122.385 231.217 123.435 235.759 123.435C240.3 123.435 243.089 122.385 243.089 121.632V118.463H243.636V121.632C243.636 123.158 239.577 123.982 235.759 123.982ZM237.452 122.872C237.056 122.872 236.734 122.55 236.734 122.154C236.734 121.759 237.056 121.437 237.452 121.437C237.847 121.437 238.169 121.759 238.169 122.154C238.169 122.55 237.847 122.872 237.452 122.872ZM237.452 121.984C237.358 121.984 237.281 122.06 237.281 122.154C237.281 122.248 237.358 122.325 237.452 122.325C237.546 122.325 237.622 122.248 237.622 122.154C237.622 122.06 237.546 121.984 237.452 121.984ZM235.759 122.872C235.363 122.872 235.041 122.55 235.041 122.154C235.041 121.759 235.363 121.437 235.759 121.437C236.154 121.437 236.476 121.759 236.476 122.154C236.476 122.55 236.154 122.872 235.759 122.872ZM235.759 121.984C235.665 121.984 235.588 122.06 235.588 122.154C235.588 122.248 235.665 122.325 235.759 122.325C235.852 122.325 235.929 122.248 235.929 122.154C235.929 122.06 235.852 121.984 235.759 121.984ZM234.065 122.872C233.67 122.872 233.348 122.55 233.348 122.154C233.348 121.759 233.67 121.437 234.065 121.437C234.461 121.437 234.783 121.759 234.783 122.154C234.783 122.55 234.461 122.872 234.065 122.872ZM234.065 121.984C233.971 121.984 233.895 122.06 233.895 122.154C233.895 122.248 233.971 122.325 234.065 122.325C234.159 122.325 234.236 122.248 234.236 122.154C234.236 122.06 234.159 121.984 234.065 121.984Z" fill="white"/>
<path d="M235.759 127.156C231.94 127.156 227.881 126.332 227.881 124.806V121.431H228.428V124.806C228.428 125.559 231.217 126.608 235.759 126.608C240.3 126.608 243.089 125.559 243.089 124.806V121.431H243.636V124.806C243.636 126.332 239.577 127.156 235.759 127.156ZM237.452 125.996C237.056 125.996 236.734 125.675 236.734 125.279C236.734 124.883 237.056 124.561 237.452 124.561C237.847 124.561 238.169 124.883 238.169 125.279C238.169 125.674 237.847 125.996 237.452 125.996ZM237.452 125.109C237.358 125.109 237.281 125.185 237.281 125.279C237.281 125.373 237.358 125.449 237.452 125.449C237.546 125.449 237.622 125.373 237.622 125.279C237.622 125.185 237.546 125.109 237.452 125.109ZM235.759 125.996C235.363 125.996 235.041 125.675 235.041 125.279C235.041 124.883 235.363 124.561 235.759 124.561C236.154 124.561 236.476 124.883 236.476 125.279C236.476 125.674 236.154 125.996 235.759 125.996ZM235.759 125.109C235.665 125.109 235.588 125.185 235.588 125.279C235.588 125.373 235.665 125.449 235.759 125.449C235.852 125.449 235.929 125.373 235.929 125.279C235.929 125.185 235.852 125.109 235.759 125.109ZM234.065 125.996C233.67 125.996 233.348 125.675 233.348 125.279C233.348 124.883 233.67 124.561 234.065 124.561C234.461 124.561 234.783 124.883 234.783 125.279C234.783 125.674 234.461 125.996 234.065 125.996ZM234.065 125.109C233.971 125.109 233.895 125.185 233.895 125.279C233.895 125.373 233.971 125.449 234.065 125.449C234.159 125.449 234.236 125.373 234.236 125.279C234.236 125.185 234.159 125.109 234.065 125.109Z" fill="white"/>
<path d="M235.759 130.329C231.94 130.329 227.881 129.506 227.881 127.979V124.605H228.428V127.979C228.428 128.732 231.217 129.782 235.759 129.782C240.3 129.782 243.089 128.732 243.089 127.979V124.605H243.636V127.979C243.636 129.506 239.577 130.329 235.759 130.329ZM237.452 129.121C237.056 129.121 236.734 128.799 236.734 128.404C236.734 128.008 237.056 127.686 237.452 127.686C237.847 127.686 238.169 128.008 238.169 128.404C238.169 128.799 237.847 129.121 237.452 129.121ZM237.452 128.233C237.358 128.233 237.281 128.31 237.281 128.404C237.281 128.497 237.358 128.574 237.452 128.574C237.546 128.574 237.622 128.497 237.622 128.404C237.622 128.31 237.546 128.233 237.452 128.233ZM235.759 129.121C235.363 129.121 235.041 128.799 235.041 128.404C235.041 128.008 235.363 127.686 235.759 127.686C236.154 127.686 236.476 128.008 236.476 128.404C236.476 128.799 236.154 129.121 235.759 129.121ZM235.759 128.233C235.665 128.233 235.588 128.31 235.588 128.404C235.588 128.497 235.665 128.574 235.759 128.574C235.852 128.574 235.929 128.497 235.929 128.404C235.929 128.31 235.852 128.233 235.759 128.233ZM234.065 129.121C233.67 129.121 233.348 128.799 233.348 128.404C233.348 128.008 233.67 127.686 234.065 127.686C234.461 127.686 234.783 128.008 234.783 128.404C234.783 128.799 234.461 129.121 234.065 129.121ZM234.065 128.233C233.971 128.233 233.895 128.31 233.895 128.404C233.895 128.497 233.971 128.574 234.065 128.574C234.159 128.574 234.236 128.497 234.236 128.404C234.236 128.31 234.159 128.233 234.065 128.233Z" fill="white"/>
<path d="M237.281 135.926H234.235V132.879H237.281V135.926ZM234.783 135.378H236.734V133.427H234.783V135.378Z" fill="white"/>
<path d="M236.032 130.056H235.485V133.153H236.032V130.056Z" fill="white"/>
<path d="M243.099 134.129H237.008V134.676H243.099V134.129Z" fill="white"/>
<path d="M234.509 134.129H228.462V134.676H234.509V134.129Z" fill="white"/>
<path d="M173.999 133.629H169.896C169.718 133.629 169.558 133.537 169.469 133.382C169.382 133.229 169.383 133.038 169.473 132.886C169.624 132.63 169.704 132.336 169.704 132.037C169.704 131.567 169.515 131.132 169.171 130.812C168.828 130.491 168.38 130.333 167.909 130.365C167.069 130.423 166.4 131.101 166.355 131.943C166.337 132.275 166.415 132.601 166.582 132.884C166.672 133.038 166.673 133.229 166.585 133.383C166.497 133.537 166.338 133.629 166.159 133.629H162.057V121.687H166.16C166.338 121.687 166.498 121.779 166.586 121.934C166.674 122.088 166.673 122.278 166.583 122.43C166.432 122.687 166.352 122.98 166.352 123.279C166.352 123.749 166.541 124.184 166.885 124.505C167.228 124.825 167.675 124.983 168.147 124.951C168.987 124.893 169.655 124.215 169.701 123.373C169.719 123.041 169.641 122.716 169.474 122.432C169.384 122.279 169.382 122.087 169.47 121.934C169.559 121.779 169.718 121.687 169.896 121.687H173.999V125.734C174.378 125.514 174.808 125.412 175.251 125.439C176.361 125.506 177.255 126.393 177.331 127.501C177.374 128.125 177.164 128.72 176.739 129.175C176.32 129.624 175.727 129.881 175.113 129.881C174.72 129.881 174.337 129.778 173.999 129.582V133.629H173.999ZM169.99 133.082H173.452V129.496C173.452 129.314 173.551 129.146 173.711 129.058C173.87 128.971 174.064 128.977 174.217 129.074C174.485 129.244 174.795 129.334 175.114 129.334C175.583 129.334 176.019 129.144 176.339 128.801C176.66 128.458 176.818 128.01 176.786 127.539C176.728 126.704 176.055 126.036 175.219 125.985C174.861 125.963 174.515 126.053 174.216 126.243C174.064 126.34 173.871 126.346 173.712 126.258C173.552 126.17 173.452 126.002 173.452 125.819V122.234H169.99C170.181 122.591 170.27 122.993 170.248 123.403C170.187 124.52 169.3 125.42 168.185 125.497C167.561 125.54 166.966 125.329 166.511 124.904C166.062 124.485 165.805 123.893 165.805 123.279C165.805 122.914 165.895 122.554 166.066 122.234H162.604V133.082H166.066C165.875 132.724 165.786 132.322 165.808 131.913C165.869 130.797 166.756 129.896 167.871 129.819C168.495 129.776 169.09 129.986 169.545 130.412C169.994 130.831 170.251 131.423 170.251 132.037C170.251 132.402 170.161 132.762 169.99 133.082Z" fill="white"/>
<path d="M190.104 133.629H178.162V129.526C178.162 129.348 178.254 129.188 178.409 129.099C178.563 129.012 178.753 129.013 178.905 129.103C179.161 129.254 179.455 129.334 179.754 129.334C180.224 129.334 180.659 129.145 180.979 128.801C181.3 128.458 181.458 128.01 181.426 127.539C181.368 126.698 180.69 126.03 179.848 125.985C179.516 125.967 179.191 126.045 178.907 126.212C178.753 126.302 178.562 126.303 178.409 126.215C178.254 126.127 178.162 125.968 178.162 125.79V121.687H182.198C182.009 121.354 181.91 120.978 181.91 120.593C181.91 119.979 182.168 119.387 182.617 118.968C183.072 118.543 183.667 118.333 184.29 118.375C185.392 118.451 186.278 119.339 186.351 120.441C186.381 120.88 186.283 121.309 186.069 121.687H190.104V125.79C190.104 125.968 190.012 126.127 189.858 126.215C189.704 126.303 189.513 126.302 189.359 126.212C189.075 126.045 188.75 125.967 188.418 125.985C187.577 126.03 186.898 126.699 186.84 127.539C186.808 128.01 186.966 128.458 187.287 128.801C187.607 129.145 188.043 129.334 188.512 129.334C188.811 129.334 189.105 129.254 189.361 129.103C189.513 129.013 189.704 129.012 189.857 129.099C190.012 129.188 190.104 129.347 190.104 129.526V133.629ZM178.709 133.082H189.557V129.62C189.237 129.791 188.877 129.881 188.512 129.881C187.898 129.881 187.306 129.624 186.887 129.175C186.462 128.719 186.251 128.125 186.294 127.501C186.371 126.386 187.271 125.499 188.388 125.438C188.798 125.416 189.2 125.505 189.557 125.696V122.234H185.985C185.803 122.234 185.635 122.135 185.547 121.976C185.46 121.819 185.464 121.627 185.558 121.475C185.744 121.177 185.829 120.832 185.805 120.477C185.75 119.647 185.082 118.978 184.253 118.921C183.781 118.889 183.333 119.047 182.99 119.368C182.647 119.688 182.457 120.123 182.457 120.593C182.457 120.905 182.544 121.209 182.707 121.474C182.802 121.627 182.807 121.82 182.719 121.977C182.631 122.136 182.463 122.234 182.282 122.234H178.709V125.696C179.067 125.505 179.468 125.416 179.878 125.438C180.995 125.499 181.895 126.386 181.972 127.501C182.015 128.125 181.805 128.72 181.38 129.175C180.961 129.624 180.368 129.881 179.754 129.881C179.389 129.881 179.03 129.791 178.709 129.621L178.709 133.082Z" fill="white"/>
<path d="M152.308 100.385H151.761V90.6304C151.759 90.6251 151.736 90.6017 151.692 90.6017H137.953C137.908 90.6017 137.885 90.6251 137.884 90.6315L137.884 100.385H137.336V90.6304C137.336 90.3129 137.613 90.0543 137.953 90.0543H151.692C152.031 90.0543 152.308 90.3127 152.308 90.6304L152.308 100.385ZM151.072 99.6262H138.573V91.438H151.072V99.6262ZM139.12 99.0791H150.524V91.9853H139.12V99.0791Z" fill="white"/>
<path d="M136.466 102.267H130.225V92.6946H136.466V102.267ZM130.772 101.719H135.918V101.206H130.772V101.719ZM130.772 100.659H135.918V94.6767H130.772V100.659ZM130.772 94.1295H135.918V93.242H130.772V94.1295Z" fill="white"/>
<path d="M162.258 102.267H153.281V90.6425H162.258V102.267ZM153.828 101.719H161.71V91.1897H153.828V101.719ZM161.395 101.223H154.143V92.0944H161.395V101.223ZM154.69 100.676H160.848V92.6419H154.69V100.676Z" fill="white"/>
<path d="M142.57 94.9243H139.59V92.4365H142.57V94.9243ZM140.137 94.3769H142.023V92.9838H140.137V94.3769Z" fill="white"/>
<path d="M150.109 96.4142H147.197V92.4365H150.109V96.4142ZM147.744 95.8668H149.562V92.9838H147.744V95.8668Z" fill="white"/>
<path d="M142.57 97.7757H139.59V95.2881H142.57V97.7757ZM140.137 97.2285H142.023V95.8354H140.137V97.2285Z" fill="white"/>
<path d="M134.919 97.0851H131.771V95.0211H134.919V97.0851ZM132.319 96.5378H134.372V95.5684H132.319V96.5378Z" fill="white"/>
<path d="M158.043 95.1201H155.169V93.0562H158.043V95.1201ZM155.716 94.5729H157.495V93.6036H155.716V94.5729Z" fill="white"/>
<path d="M158.043 97.5639H155.169V95.5H158.043V97.5639ZM155.716 97.0167H157.495V96.0473H155.716V97.0167Z" fill="white"/>
<path d="M158.043 100.008H155.169V97.944H158.043V100.008ZM155.716 99.4605H157.495V98.4911H155.716V99.4605Z" fill="white"/>
<path d="M134.919 99.4903H131.771V97.4263H134.919V99.4903ZM132.319 98.9432H134.372V97.9736H132.319V98.9432Z" fill="white"/>
<path d="M146.694 92.4365H143.153V92.9838H146.694V92.4365Z" fill="white"/>
<path d="M134.925 99.8141H131.762V100.361H134.925V99.8141Z" fill="white"/>
<path d="M146.694 93.7461H143.153V94.2934H146.694V93.7461Z" fill="white"/>
<path d="M146.694 95.3401H143.153V95.8874H146.694V95.3401Z" fill="white"/>
<path d="M146.694 96.6497H143.153V97.197H146.694V96.6497Z" fill="white"/>
<path d="M152.802 102.267H136.951V100.157H142.854V100.43C142.854 100.6 142.992 100.738 143.161 100.738H146.483C146.653 100.738 146.791 100.6 146.791 100.43V100.157H152.802V102.267ZM137.499 101.719H152.255V100.704H147.293C147.179 101.041 146.859 101.285 146.483 101.285H143.161C142.786 101.285 142.466 101.041 142.352 100.704H137.499V101.719Z" fill="white"/>
<path d="M160.116 93.0562H158.755V93.6036H160.116V93.0562Z" fill="white"/>
<path d="M160.116 94.1295H158.755V94.6769H160.116V94.1295Z" fill="white"/>
<path d="M160.116 95.5217H158.755V96.0689H160.116V95.5217Z" fill="white"/>
<path d="M160.116 96.595H158.755V97.1422H160.116V96.595Z" fill="white"/>
<path d="M160.116 97.9437H158.755V98.4911H160.116V97.9437Z" fill="white"/>
<path d="M160.116 99.0171H158.755V99.5644H160.116V99.0171Z" fill="white"/>
<path d="M86.5643 106.83C85.8414 106.83 85.1185 106.756 84.4005 106.607L84.1489 106.555L84.564 103.622L82.9951 102.97L81.9701 104.484L81.5169 104.178L82.7925 102.293L85.1652 103.28L84.7634 106.12C85.9495 106.335 87.148 106.337 88.3334 106.126L87.9401 103.284L90.657 102.164L92.3816 104.457C93.371 103.77 94.2196 102.924 94.9096 101.936L92.6222 100.204L93.7511 97.4909L96.5917 97.8927C96.8063 96.7066 96.8081 95.5081 96.5974 94.3227L93.7554 94.716L92.6348 91.999L94.9278 90.2743C94.2417 89.2851 93.3954 88.4363 92.4071 87.7463L90.6757 90.0337L87.9622 88.9048L88.364 86.0642C87.1778 85.8497 85.9794 85.8476 84.7942 86.0585L85.1875 88.9005L82.4704 90.0211L80.7458 87.7281C79.7566 88.4142 78.9078 89.2603 78.2177 90.2488L80.5052 91.9802L79.3763 94.6937L76.5356 94.2919C76.3211 95.4781 76.3192 96.6765 76.53 97.8619L79.372 97.4686L80.3504 99.8409L78.9327 101.159L78.5602 100.758L79.6997 99.6986L79.0274 98.0687L76.0928 98.4747L76.0416 98.2231C75.7515 96.7988 75.7537 95.3543 76.0484 93.929L76.1004 93.6775L79.0335 94.0925L79.8369 92.1609L77.4748 90.3732L77.6165 90.159C78.4198 88.9455 79.4428 87.9254 80.6573 87.1273L80.8719 86.9863L82.6526 89.3539L84.5865 88.5563L84.1805 85.6217L84.432 85.5705C85.8562 85.2806 87.3009 85.2827 88.7259 85.5773L88.9775 85.6293L88.5625 88.5624L90.494 89.3658L92.2818 87.0037L92.4959 87.1454C93.7095 87.9487 94.7295 88.9717 95.5277 90.1863L95.6687 90.4008L93.3011 92.1813L94.0986 94.1154L97.0332 93.7094L97.0845 93.961C97.3746 95.3851 97.3721 96.8298 97.0777 98.255L97.0257 98.5066L94.0926 98.0916L93.289 100.023L95.6511 101.811L95.5093 102.025C94.7061 103.238 93.683 104.258 92.4685 105.057L92.2538 105.198L90.4731 102.83L88.5392 103.628L88.9452 106.562L88.6934 106.614C87.9877 106.758 87.2761 106.83 86.5643 106.83Z" fill="white"/>
<path d="M86.5635 101.388C85.9404 101.388 85.321 101.276 84.7221 101.053C84.6521 101.031 84.3134 100.913 84.0456 100.645L84.4325 100.258C84.6213 100.447 84.8884 100.532 84.891 100.532L84.9063 100.538C85.4459 100.739 86.0037 100.841 86.5635 100.841C89.1821 100.841 91.3123 98.7109 91.3123 96.0925C91.3123 93.4739 89.1819 91.3437 86.5635 91.3437C83.9449 91.3437 81.8147 93.4741 81.8147 96.0925C81.8147 96.6742 81.9235 97.2501 82.1381 97.8043C82.1386 97.8058 82.2301 98.0294 82.5253 98.3731L82.1101 98.7296C81.7512 98.3117 81.6387 98.0309 81.627 98.0002C81.3885 97.3845 81.2673 96.7421 81.2673 96.0925C81.2673 93.1722 83.6431 90.7963 86.5635 90.7963C89.4837 90.7963 91.8596 93.1721 91.8596 96.0925C91.8596 99.0129 89.4839 101.388 86.5635 101.388Z" fill="white"/>
<path d="M78.9013 106.966C78.5571 106.966 78.3273 106.912 78.3178 106.909L77.8565 106.797L80.0805 104.471L78.4874 102.799L76.0115 104.937L75.8986 104.515C75.8818 104.452 75.5002 102.961 76.6652 101.692C77.5178 100.763 78.8164 100.624 79.5146 100.624C79.6121 100.624 79.6943 100.627 79.7569 100.631L83.9461 96.4501C83.9198 95.9723 83.9196 94.3571 85.0077 93.3584C85.7629 92.6654 86.6006 92.52 87.1706 92.52C87.5582 92.52 87.82 92.5888 87.831 92.5918L88.3005 92.7173L86.1831 94.7476L88.0277 96.6098L90.1107 94.5391L90.225 95.011C90.2403 95.0742 90.5866 96.5737 89.3914 97.815C88.553 98.6856 87.3082 98.8154 86.6408 98.8154C86.4902 98.8154 86.3662 98.8088 86.2793 98.8024L82.1094 102.963C82.147 103.445 82.1827 105.054 81.1219 106.075C80.3573 106.812 79.4923 106.966 78.9013 106.966ZM78.524 102.044L80.8368 104.472L78.9761 106.418C79.4628 106.405 80.1406 106.261 80.7422 105.681C81.7735 104.688 81.5554 102.915 81.553 102.897L81.5356 102.763L81.631 102.668L86.0795 98.2288L86.2133 98.2465C86.2213 98.2477 86.3878 98.2683 86.641 98.2683C87.2214 98.2683 88.2995 98.1602 88.9973 97.4355C89.5832 96.8271 89.7219 96.1454 89.7359 95.6835L88.0249 97.3845L85.4029 94.7377L87.1447 93.0677C86.6728 93.0721 85.992 93.1985 85.3779 93.7619C84.3231 94.7302 84.4987 96.5081 84.5006 96.5261L84.5144 96.6563L84.4218 96.7491L79.9623 101.199L79.8321 101.185C79.8314 101.185 79.7093 101.172 79.5146 101.172C78.9062 101.172 77.7794 101.288 77.0684 102.062C76.4715 102.713 76.3666 103.439 76.3742 103.901L78.524 102.044Z" fill="white"/>
<path d="M211.262 99.314L206.817 94.3049L209.356 94.3125V91.9222H202.424V87.6228H213.656V94.3255L216.243 94.3332L211.262 99.314ZM208.038 94.856L211.286 98.5162L214.925 94.8768L213.108 94.8713V88.1703H202.971V91.3752H209.903V94.8617L208.038 94.856Z" fill="white"/>
<path d="M209.415 104.698H198.183V97.9953L195.596 97.9874L200.576 93.007L205.021 98.0159L202.483 98.0083V100.399H209.415V104.698ZM198.731 104.151H208.868V100.946H201.935V97.4593L203.801 97.465L200.553 93.8048L196.913 97.4442L198.731 97.4497V104.151Z" fill="white"/>
<path d="M301.228 118.505L295.428 115.677L289.653 118.504L289.413 118.013L295.307 115.127C295.383 115.09 295.472 115.09 295.547 115.127L301.468 118.013L301.228 118.505Z" fill="white"/>
<path d="M289.257 136.873L283.142 133.959C283.046 133.914 282.986 133.817 282.986 133.712V127.386H283.533V133.539L289.493 136.379L289.257 136.873Z" fill="white"/>
<path d="M289.375 136.9C289.325 136.9 289.274 136.886 289.23 136.858C289.15 136.808 289.101 136.721 289.101 136.626V130.173H289.649V136.189L295.154 133.513V133.399H295.701V133.685C295.701 133.789 295.642 133.885 295.547 133.931L289.495 136.872C289.457 136.891 289.416 136.9 289.375 136.9Z" fill="white"/>
<path d="M289.348 130.446C289.309 130.446 289.27 130.438 289.234 130.422L283.146 127.632C283.048 127.587 282.985 127.489 282.986 127.382C282.986 127.274 283.05 127.177 283.147 127.133L289.414 124.322L289.638 124.821L283.922 127.386L289.348 129.872L290.952 129.137L291.18 129.635L289.462 130.422C289.426 130.438 289.387 130.446 289.348 130.446Z" fill="white"/>
<path d="M290.948 125.55L289.408 124.819C289.313 124.773 289.252 124.677 289.252 124.571V118.259C289.252 118.165 289.3 118.078 289.379 118.027C289.459 117.977 289.558 117.971 289.643 118.012L295.437 120.765L301.23 118.012C301.315 117.971 301.415 117.977 301.494 118.027C301.573 118.078 301.621 118.165 301.621 118.259V124.571C301.621 124.677 301.561 124.773 301.465 124.819L300.045 125.493L299.81 124.999L301.074 124.398V118.692L295.563 121.311C295.526 121.328 295.486 121.337 295.446 121.337H295.428C295.387 121.337 295.347 121.328 295.31 121.311L289.799 118.692V124.398L291.183 125.056L290.948 125.55Z" fill="white"/>
<path d="M301.616 136.873L301.381 136.379L307.34 133.539V127.386H307.888V133.712C307.888 133.817 307.827 133.914 307.732 133.959L301.616 136.873Z" fill="white"/>
<path d="M301.498 136.9C301.458 136.9 301.417 136.891 301.379 136.872L295.326 133.931L295.565 133.439L301.225 136.189V130.173H301.772V136.626C301.772 136.72 301.724 136.808 301.644 136.858C301.599 136.886 301.549 136.9 301.498 136.9Z" fill="white"/>
<path d="M301.525 130.446C301.486 130.446 301.447 130.438 301.41 130.421L299.799 129.675L300.029 129.179L301.526 129.872L306.951 127.386L301.236 124.821L301.46 124.322L307.726 127.133C307.824 127.177 307.887 127.274 307.888 127.382C307.888 127.489 307.826 127.587 307.728 127.632L301.639 130.422C301.603 130.438 301.564 130.446 301.525 130.446Z" fill="white"/>
<path d="M295.404 130.499C295.391 130.499 295.378 130.499 295.365 130.499C295.221 130.497 295.103 130.384 295.095 130.239L295.064 129.641L294.794 129.585L294.53 130.123C294.467 130.253 294.313 130.311 294.18 130.256C293.781 130.091 293.427 129.85 293.126 129.542C293.025 129.439 293.022 129.275 293.118 129.167L293.52 128.723L293.368 128.492L292.801 128.686C292.665 128.733 292.515 128.665 292.46 128.532C292.295 128.134 292.214 127.713 292.219 127.282C292.221 127.137 292.334 127.019 292.478 127.012L293.077 126.981L293.132 126.711L292.594 126.447C292.465 126.383 292.407 126.23 292.462 126.096C292.627 125.698 292.867 125.343 293.176 125.042C293.279 124.941 293.443 124.938 293.55 125.035L293.995 125.436L294.225 125.284L294.031 124.717C293.985 124.581 294.052 124.431 294.186 124.376C294.584 124.211 295.003 124.131 295.436 124.135C295.58 124.137 295.698 124.251 295.706 124.395L295.736 124.993L296.007 125.049L296.27 124.511C296.334 124.381 296.488 124.323 296.621 124.379C297.019 124.544 297.374 124.784 297.675 125.092C297.776 125.196 297.779 125.36 297.682 125.467L297.281 125.912L297.433 126.142L298 125.948C298.136 125.901 298.286 125.969 298.341 126.102C298.506 126.501 298.587 126.921 298.582 127.352C298.58 127.497 298.467 127.615 298.322 127.622L297.724 127.653L297.669 127.923L298.207 128.187C298.336 128.251 298.394 128.404 298.339 128.538C298.174 128.936 297.934 129.291 297.625 129.592C297.522 129.693 297.358 129.696 297.251 129.599L296.806 129.198L296.576 129.35L296.77 129.917C296.816 130.053 296.749 130.202 296.615 130.258C296.229 130.418 295.822 130.499 295.404 130.499ZM294.642 129.001C294.66 129.001 294.678 129.003 294.697 129.007L295.382 129.147C295.504 129.173 295.594 129.277 295.6 129.401L295.628 129.942C295.81 129.927 295.99 129.892 296.165 129.839L295.989 129.326C295.949 129.209 295.994 129.078 296.098 129.009L296.681 128.625C296.786 128.556 296.923 128.566 297.015 128.65L297.418 129.013C297.536 128.873 297.638 128.722 297.724 128.56L297.238 128.322C297.126 128.267 297.065 128.143 297.09 128.021L297.23 127.336C297.256 127.214 297.36 127.124 297.485 127.118L298.025 127.09C298.01 126.908 297.975 126.728 297.922 126.553L297.409 126.729C297.292 126.769 297.161 126.724 297.093 126.62L296.708 126.037C296.639 125.932 296.649 125.795 296.733 125.703L297.096 125.3C296.956 125.182 296.805 125.08 296.643 124.994L296.405 125.48C296.35 125.592 296.226 125.653 296.104 125.628L295.419 125.487C295.297 125.462 295.207 125.358 295.201 125.233L295.173 124.692C294.99 124.708 294.811 124.742 294.636 124.796L294.811 125.308C294.852 125.426 294.807 125.557 294.703 125.625L294.119 126.01C294.015 126.079 293.878 126.068 293.785 125.985L293.383 125.622C293.265 125.762 293.163 125.913 293.077 126.075L293.563 126.313C293.675 126.368 293.736 126.492 293.711 126.614L293.57 127.299C293.545 127.421 293.441 127.511 293.316 127.517L292.775 127.545C292.791 127.727 292.825 127.906 292.879 128.082L293.391 127.906C293.509 127.866 293.64 127.91 293.708 128.015L294.093 128.598C294.162 128.703 294.151 128.84 294.068 128.932L293.705 129.335C293.845 129.453 293.996 129.555 294.158 129.641L294.396 129.155C294.443 129.059 294.539 129.001 294.642 129.001Z" fill="white"/>
<path d="M295.4 133.533C294.966 133.533 294.525 133.486 294.09 133.392C293.949 133.362 293.856 133.228 293.876 133.086L293.985 132.319L292.851 131.848L292.385 132.464C292.298 132.578 292.138 132.606 292.017 132.528C291.278 132.047 290.66 131.427 290.18 130.684C290.102 130.564 290.131 130.404 290.245 130.317L290.862 129.853L290.394 128.718L289.626 128.824C289.484 128.845 289.351 128.75 289.321 128.61C289.23 128.182 289.185 127.747 289.185 127.317C289.185 126.883 289.232 126.442 289.326 126.006C289.356 125.866 289.489 125.773 289.632 125.793L290.399 125.902L290.87 124.768L290.254 124.302C290.14 124.215 290.112 124.055 290.19 123.934C290.671 123.195 291.291 122.577 292.033 122.097C292.154 122.019 292.314 122.048 292.401 122.162L292.865 122.779L294 122.311L293.893 121.543C293.874 121.401 293.967 121.268 294.108 121.238C294.967 121.056 295.843 121.056 296.711 121.243C296.852 121.273 296.945 121.406 296.925 121.549L296.816 122.316L297.95 122.787L298.416 122.171C298.502 122.057 298.663 122.029 298.783 122.107C299.523 122.588 300.141 123.208 300.62 123.951C300.698 124.071 300.67 124.231 300.555 124.318L299.938 124.782L300.172 125.35L300.406 125.917L301.174 125.811C301.316 125.791 301.45 125.885 301.479 126.025C301.57 126.453 301.616 126.888 301.616 127.318C301.616 127.751 301.568 128.192 301.474 128.628C301.444 128.769 301.31 128.862 301.169 128.842L300.402 128.734L299.93 129.867L300.546 130.333C300.661 130.42 300.689 130.58 300.61 130.701C300.129 131.44 299.509 132.058 298.767 132.538C298.646 132.616 298.486 132.587 298.4 132.473L297.936 131.855L296.801 132.324L296.907 133.092C296.927 133.234 296.833 133.367 296.692 133.397C296.265 133.487 295.83 133.533 295.4 133.533ZM294.454 132.905C295.082 133.012 295.706 133.012 296.329 132.909L296.23 132.189C296.213 132.065 296.281 131.946 296.396 131.898L297.923 131.269C298.038 131.221 298.171 131.257 298.246 131.357L298.681 131.935C299.196 131.569 299.641 131.126 300.008 130.612L299.431 130.175C299.332 130.1 299.296 129.967 299.344 129.852L299.978 128.328C300.026 128.212 300.146 128.144 300.269 128.162L300.988 128.263C301.042 127.947 301.069 127.63 301.069 127.317C301.069 127.009 301.043 126.697 300.991 126.388L300.272 126.488C300.148 126.505 300.028 126.436 299.981 126.321L299.351 124.795C299.304 124.679 299.34 124.546 299.44 124.472L300.018 124.037C299.652 123.521 299.208 123.076 298.695 122.709L298.258 123.286C298.183 123.386 298.05 123.422 297.935 123.374L296.41 122.739C296.295 122.692 296.227 122.572 296.244 122.448L296.346 121.73C295.718 121.623 295.094 121.623 294.471 121.726L294.571 122.446C294.588 122.569 294.519 122.689 294.404 122.736L292.877 123.366C292.762 123.414 292.629 123.377 292.554 123.278L292.12 122.699C291.604 123.065 291.159 123.509 290.792 124.022L291.369 124.459C291.468 124.534 291.504 124.667 291.457 124.782L290.822 126.307C290.774 126.422 290.655 126.49 290.531 126.473L289.812 126.371C289.759 126.687 289.732 127.005 289.732 127.317C289.732 127.626 289.757 127.937 289.809 128.246L290.529 128.147C290.652 128.13 290.771 128.198 290.819 128.313L291.449 129.84C291.496 129.955 291.46 130.088 291.36 130.163L290.782 130.598C291.148 131.113 291.592 131.558 292.105 131.926L292.542 131.348C292.617 131.249 292.75 131.213 292.865 131.261L294.39 131.895C294.505 131.943 294.573 132.063 294.556 132.186L294.454 132.905ZM295.4 131.509C293.089 131.509 291.209 129.629 291.209 127.317C291.209 125.006 293.089 123.126 295.4 123.126C297.712 123.126 299.592 125.006 299.592 127.317C299.592 129.629 297.712 131.509 295.4 131.509ZM295.4 123.673C293.391 123.673 291.756 125.308 291.756 127.317C291.756 129.327 293.391 130.962 295.4 130.962C297.41 130.962 299.045 129.327 299.045 127.317C299.045 125.308 297.41 123.673 295.4 123.673Z" fill="white"/>
<path d="M295.397 128.834C295.098 128.834 294.806 128.745 294.553 128.574C294.217 128.348 293.99 128.004 293.912 127.606C293.835 127.209 293.917 126.805 294.144 126.47C294.37 126.134 294.714 125.906 295.111 125.829C295.932 125.67 296.729 126.208 296.889 127.028C297.048 127.849 296.51 128.646 295.69 128.805C295.592 128.824 295.494 128.834 295.397 128.834ZM295.401 126.349C295.34 126.349 295.278 126.354 295.216 126.367C294.962 126.416 294.742 126.561 294.598 126.776C294.453 126.99 294.401 127.248 294.45 127.502C294.499 127.756 294.645 127.976 294.859 128.12C295.074 128.265 295.332 128.318 295.586 128.268C296.11 128.167 296.454 127.657 296.352 127.133C296.262 126.67 295.855 126.349 295.401 126.349Z" fill="white"/>
</g>
</g>
<path d="M16 0.5H362.667C371.227 0.500165 378.167 7.43969 378.167 16V224C378.167 232.56 371.227 239.5 362.667 239.5H16C7.43959 239.5 0.5 232.56 0.5 224V16C0.5 7.57345 7.22424 0.717246 15.5996 0.504883L16 0.5Z" stroke="#EDEDED"/>
<defs>
<clipPath id="clip0_204_5509">
<path d="M0 16C0 7.16344 7.16344 0 16 0H362.667C371.503 0 378.667 7.16344 378.667 16V224C378.667 232.837 371.503 240 362.667 240H16C7.16343 240 0 232.837 0 224V16Z" fill="white"/>
</clipPath>
<clipPath id="clip1_204_5509">
<rect width="378" height="378" fill="white" transform="translate(2 -25)"/>
</clipPath>
</defs>
</svg>
