<svg width="379" height="240" viewBox="0 0 379 240" fill="none" xmlns="http://www.w3.org/2000/svg">
<path d="M16 0.5H362.667C371.227 0.500165 378.167 7.43969 378.167 16V224C378.167 232.56 371.227 239.5 362.667 239.5H16C7.43959 239.5 0.5 232.56 0.5 224V16C0.5 7.57345 7.22424 0.717246 15.5996 0.504883L16 0.5Z" fill="white"/>
<path d="M16 0.5H362.667C371.227 0.500165 378.167 7.43969 378.167 16V224C378.167 232.56 371.227 239.5 362.667 239.5H16C7.43959 239.5 0.5 232.56 0.5 224V16C0.5 7.57345 7.22424 0.717246 15.5996 0.504883L16 0.5Z" stroke="#EDEDED"/>
<path d="M128.06 115.392L154.939 83.6157" stroke="black" stroke-width="2" stroke-miterlimit="10" stroke-linecap="round" stroke-linejoin="round"/>
<path d="M166.186 83.2776L181.387 99.251" stroke="black" stroke-width="2" stroke-miterlimit="10" stroke-linecap="round" stroke-linejoin="round"/>
<path d="M193.158 97.7126L206.888 77.2583" stroke="black" stroke-width="2" stroke-miterlimit="10" stroke-linecap="round" stroke-linejoin="round"/>
<path d="M217.939 72.4893L246.39 82.76" stroke="black" stroke-width="2" stroke-miterlimit="10" stroke-linecap="round" stroke-linejoin="round"/>
<path d="M143.616 93.3593C143.007 90.4275 142.687 87.3897 142.687 84.2771C142.687 59.7616 162.56 39.8879 187.076 39.8879C208.028 39.8879 225.59 54.4048 230.252 73.9291" stroke="black" stroke-width="2" stroke-miterlimit="10" stroke-linecap="round" stroke-linejoin="round"/>
<path d="M231.344 80.9751C231.424 82.0653 231.465 83.1664 231.465 84.277C231.465 108.793 211.591 128.666 187.076 128.666C167.741 128.666 151.293 116.304 145.205 99.0525" stroke="black" stroke-width="2" stroke-miterlimit="10" stroke-linecap="round" stroke-linejoin="round"/>
<path d="M258.926 91.3455C261.944 88.3271 261.944 83.4332 258.926 80.4147C255.907 77.3962 251.013 77.3962 247.995 80.4147C244.976 83.4332 244.976 88.3271 247.995 91.3455C251.013 94.364 255.907 94.364 258.926 91.3455Z" stroke="black" stroke-width="2" stroke-miterlimit="10" stroke-linecap="round" stroke-linejoin="round"/>
<path d="M217.801 67.9016C218.074 68.6913 218.221 69.5388 218.221 70.421C218.221 74.6898 214.761 78.1503 210.492 78.1503C206.223 78.1503 202.763 74.6897 202.763 70.421C202.763 66.1522 206.223 62.6917 210.492 62.6917C211.432 62.6917 212.332 62.8593 213.165 63.1664C213.555 63.3101 213.93 63.4844 214.288 63.6864" stroke="#38B601" stroke-width="2" stroke-miterlimit="10" stroke-linecap="round" stroke-linejoin="round"/>
<path d="M187.916 111.12C192.185 111.12 195.645 107.659 195.645 103.391C195.645 99.1219 192.185 95.6614 187.916 95.6614C183.647 95.6614 180.187 99.1219 180.187 103.391C180.187 107.659 183.647 111.12 187.916 111.12Z" stroke="#38B601" stroke-width="2" stroke-miterlimit="10" stroke-linecap="round" stroke-linejoin="round"/>
<path d="M168.015 76.795C168.093 77.235 168.133 77.6879 168.133 78.1502C168.133 82.4191 164.673 85.8796 160.404 85.8796C156.135 85.8796 152.675 82.419 152.675 78.1502C152.675 73.8814 156.135 70.4209 160.404 70.4209C162.783 70.4209 164.911 71.4957 166.329 73.1862" stroke="#38B601" stroke-width="2" stroke-miterlimit="10" stroke-linecap="round" stroke-linejoin="round"/>
<path d="M128.138 126.399C131.157 123.381 131.157 118.487 128.138 115.469C125.12 112.45 120.226 112.45 117.208 115.469C114.189 118.487 114.189 123.381 117.208 126.399C120.226 129.418 125.12 129.418 128.138 126.399Z" stroke="black" stroke-width="2" stroke-miterlimit="10" stroke-linecap="round" stroke-linejoin="round"/>
<path d="M154.177 126.186L121.308 173.173C119.2 176.186 120.048 180.349 123.166 182.298C126.058 184.105 129.859 183.336 131.821 180.546L165.307 132.917" stroke="black" stroke-width="2" stroke-miterlimit="10" stroke-linecap="round" stroke-linejoin="round"/>
<path d="M243.637 154.217V209H227.568V131.228H243.637V148.652" stroke="black" stroke-width="2" stroke-miterlimit="10" stroke-linecap="round" stroke-linejoin="round"/>
<path d="M227.568 152.885H211.499V209H227.568V152.885Z" stroke="black" stroke-width="2" stroke-miterlimit="10" stroke-linecap="round" stroke-linejoin="round"/>
<path d="M211.5 168.808H195.431V209H211.5V168.808Z" stroke="black" stroke-width="2" stroke-miterlimit="10" stroke-linecap="round" stroke-linejoin="round"/>
<path d="M195.43 182.195H179.361V209H195.43V182.195Z" stroke="black" stroke-width="2" stroke-miterlimit="10" stroke-linecap="round" stroke-linejoin="round"/>
<path d="M179.361 192.931H163.292V209H179.361V192.931Z" stroke="black" stroke-width="2" stroke-miterlimit="10" stroke-linecap="round" stroke-linejoin="round"/>
<path d="M259.707 171.157H243.638V209H259.707V171.157Z" stroke="black" stroke-width="2" stroke-miterlimit="10" stroke-linecap="round" stroke-linejoin="round"/>
<path d="M187.076 137.554C216.5 137.554 240.353 113.701 240.353 84.2771C240.353 54.853 216.5 31 187.076 31C157.652 31 133.799 54.853 133.799 84.2771C133.799 113.701 157.652 137.554 187.076 137.554Z" stroke="black" stroke-width="2" stroke-miterlimit="10" stroke-linecap="round" stroke-linejoin="round"/>
<path d="M154.938 209H268.059" stroke="black" stroke-width="2" stroke-miterlimit="10" stroke-linecap="round" stroke-linejoin="round"/>
<path d="M263.378 142.948H270.065" stroke="black" stroke-width="2" stroke-miterlimit="10" stroke-linecap="round" stroke-linejoin="round"/>
<path d="M266.722 139.604V146.292" stroke="black" stroke-width="2" stroke-miterlimit="10" stroke-linecap="round" stroke-linejoin="round"/>
<path d="M111.602 82.0171H118.289" stroke="black" stroke-width="2" stroke-miterlimit="10" stroke-linecap="round" stroke-linejoin="round"/>
<path d="M114.945 78.6736V85.3608" stroke="black" stroke-width="2" stroke-miterlimit="10" stroke-linecap="round" stroke-linejoin="round"/>
</svg>
