<svg width="379" height="240" viewBox="0 0 379 240" fill="none" xmlns="http://www.w3.org/2000/svg">
<path d="M16 0.5H362.667C371.227 0.500165 378.167 7.43969 378.167 16V224C378.167 232.56 371.227 239.5 362.667 239.5H16C7.43959 239.5 0.5 232.56 0.5 224V16C0.5 7.57345 7.22424 0.717246 15.5996 0.504883L16 0.5Z" fill="white"/>
<path d="M16 0.5H362.667C371.227 0.500165 378.167 7.43969 378.167 16V224C378.167 232.56 371.227 239.5 362.667 239.5H16C7.43959 239.5 0.5 232.56 0.5 224V16C0.5 7.57345 7.22424 0.717246 15.5996 0.504883L16 0.5Z" stroke="#EDEDED"/>
<path d="M189.288 88.9141C191.99 88.9141 194.458 89.912 196.343 91.5602V57.3204H165.559C166.906 55.6398 167.715 53.5076 167.715 51.1856C167.715 45.7647 163.32 41.3701 157.899 41.3701C152.478 41.3701 148.084 45.7647 148.084 51.1856C148.084 53.5074 148.892 55.6398 150.239 57.3204H120.887V92.9203C118.918 90.5359 115.939 89.0163 112.605 89.0163C106.676 89.0163 101.869 93.8228 101.869 99.7519C101.869 105.681 106.676 110.488 112.605 110.488C115.939 110.488 118.918 108.968 120.887 106.584V132.368H149.648C148.658 130.836 148.084 129.012 148.084 127.051C148.084 121.63 152.478 117.236 157.899 117.236C163.32 117.236 167.715 121.63 167.715 127.051C167.715 129.012 167.14 130.836 166.15 132.368H196.343V107.739C194.458 109.388 191.99 110.385 189.288 110.385C183.36 110.385 178.553 105.578 178.553 99.6498C178.553 93.7217 183.36 88.9141 189.288 88.9141Z" fill="#4E5565"/>
<path d="M102.334 103.669C101.857 102.42 101.615 101.101 101.615 99.752C101.615 93.6921 106.545 88.7619 112.605 88.7619C115.668 88.7619 118.556 90.0234 120.633 92.2453V57.0658H149.726C148.484 55.3468 147.83 53.3247 147.83 51.1857C147.83 45.6331 152.347 41.1157 157.9 41.1157C163.452 41.1157 167.97 45.6331 167.97 51.1857C167.97 53.3248 167.316 55.3468 166.073 57.0658H196.598V75.464H196.089V57.5748H165.029L165.361 57.161C166.735 55.448 167.461 53.3818 167.461 51.1856C167.461 45.9136 163.172 41.6246 157.9 41.6246C152.628 41.6246 148.339 45.9136 148.339 51.1856C148.339 53.3817 149.065 55.448 150.439 57.161L150.77 57.5748H121.142V93.6281L120.691 93.0823C118.69 90.66 115.743 89.2707 112.605 89.2707C106.826 89.2707 102.124 93.9726 102.124 99.7519C102.124 101.039 102.355 102.296 102.809 103.488L102.334 103.669Z" fill="#404040"/>
<path d="M271.903 132.609V207.657H196.446V132.609H224.991C224.388 133.951 224.052 135.44 224.052 137.006C224.052 142.934 228.86 147.742 234.788 147.742C240.716 147.742 245.524 142.934 245.524 137.006C245.524 135.44 245.188 133.951 244.585 132.609H271.903Z" fill="white"/>
<path d="M271.902 207.912H196.446C196.305 207.912 196.191 207.798 196.191 207.657V132.609C196.191 132.469 196.305 132.355 196.446 132.355H224.99C225.077 132.355 225.157 132.399 225.204 132.471C225.251 132.544 225.258 132.635 225.223 132.714C224.615 134.066 224.306 135.51 224.306 137.006C224.306 142.786 229.008 147.487 234.787 147.487C240.567 147.487 245.269 142.785 245.269 137.006C245.269 135.51 244.96 134.066 244.353 132.714C244.317 132.635 244.324 132.544 244.371 132.471C244.418 132.399 244.498 132.355 244.585 132.355H271.902C272.043 132.355 272.157 132.469 272.157 132.609V207.657C272.157 207.798 272.043 207.912 271.902 207.912ZM196.7 207.403H271.648V132.864H244.971C245.507 134.178 245.778 135.569 245.778 137.006C245.778 143.066 240.848 147.996 234.788 147.996C228.728 147.996 223.798 143.066 223.798 137.006C223.798 135.569 224.069 134.178 224.605 132.864H196.701V207.403H196.7Z" fill="#404040"/>
<path d="M284.018 86.6015L281.938 81.3591C281.938 81.3591 276.672 78.8506 276.726 79.2391C276.78 79.6277 280.958 87.3715 280.958 87.3715L284.018 86.6015Z" fill="white"/>
<path d="M280.957 87.6257C280.865 87.6257 280.778 87.5758 280.733 87.492C279.471 85.1517 276.528 79.6658 276.474 79.2743C276.459 79.1698 276.502 79.0665 276.586 79.0049C276.724 78.9038 276.981 78.7163 282.047 81.1292C282.105 81.1569 282.15 81.2054 282.174 81.2651L284.255 86.5077C284.282 86.5758 284.278 86.6523 284.244 86.7176C284.211 86.7829 284.151 86.8306 284.08 86.8485L281.019 87.6184C280.998 87.6234 280.978 87.6257 280.957 87.6257ZM277.121 79.5343C277.674 80.6913 279.664 84.4347 281.087 87.0762L283.674 86.4254L281.737 81.5458C279.916 80.6804 277.927 79.8013 277.121 79.5343Z" fill="#404040"/>
<path d="M265.358 96.6127C265.358 102.541 270.166 107.348 276.094 107.348C279.667 107.348 282.834 105.602 284.785 102.915V128.002H256.758C257.422 129.396 257.792 130.957 257.792 132.603C257.792 138.531 252.985 143.339 247.057 143.339C241.129 143.339 236.321 138.531 236.321 132.603C236.321 130.957 236.691 129.397 237.356 128.002H209.328V103.297C207.367 105.412 204.566 106.735 201.455 106.735C195.527 106.735 190.72 101.927 190.72 95.9992C190.72 90.0711 195.527 85.2635 201.455 85.2635C204.566 85.2635 207.367 86.5865 209.328 88.701V52.9541H237.91C236.904 54.5899 236.321 56.5142 236.321 58.5776C236.321 64.5057 241.129 69.3133 247.057 69.3133C252.985 69.3133 257.792 64.5057 257.792 58.5776C257.792 56.5144 257.209 54.5901 256.203 52.9541H284.785V90.3102C282.834 87.6232 279.667 85.8769 276.094 85.8769C270.166 85.8769 265.358 90.6845 265.358 96.6127Z" fill="#B9B9B9"/>
<path d="M300.396 83.6811C300.789 84.2585 300.499 85.1404 299.748 85.651C298.998 86.1615 298.071 86.1074 297.678 85.53C297.285 84.9526 297.575 84.0706 298.326 83.5601C299.077 83.0495 300.004 83.1037 300.396 83.6811Z" fill="white"/>
<path d="M196.65 132.609H121.193V207.657H196.65V182.242C198.478 183.685 200.785 184.55 203.296 184.55C209.225 184.55 214.031 179.743 214.031 173.814C214.031 167.885 209.225 163.078 203.296 163.078C200.785 163.078 198.478 163.942 196.65 165.386V132.609Z" fill="#E4E4E4"/>
<path d="M162.336 207.657H196.65V182.242C198.479 183.686 200.786 184.55 203.296 184.55C209.225 184.55 214.032 179.743 214.032 173.814C214.032 167.885 209.225 163.079 203.296 163.079C200.786 163.079 198.479 163.943 196.65 165.386V132.609L162.336 207.657Z" fill="#E4E4E4"/>
<path d="M196.905 207.911H121.336V207.402H138.366H196.396V181.717L196.808 182.042C198.675 183.516 200.918 184.295 203.296 184.295C209.076 184.295 213.778 179.593 213.778 173.814C213.778 168.035 209.076 163.333 203.296 163.333C200.918 163.333 198.675 164.112 196.808 165.586L196.396 165.911V132.609H196.905V164.876C198.777 163.531 200.975 162.824 203.296 162.824C209.356 162.824 214.287 167.754 214.287 173.814C214.287 179.874 209.356 184.804 203.296 184.804C200.975 184.804 198.776 184.096 196.905 182.752L196.905 207.911Z" fill="#404040"/>
<path d="M80.7724 89.8227C78.1893 89.8227 76.0879 87.7211 76.0879 85.1382C76.0879 82.555 78.1893 80.4536 80.7724 80.4536C83.3556 80.4536 85.457 82.5552 85.457 85.1382C85.457 87.7211 83.3556 89.8227 80.7724 89.8227ZM80.7724 80.9625C78.4701 80.9625 76.5969 82.8357 76.5969 85.138C76.5969 87.4403 78.47 89.3135 80.7724 89.3135C83.0748 89.3135 84.948 87.4403 84.948 85.138C84.948 82.8357 83.0749 80.9625 80.7724 80.9625Z" fill="#44BB11"/>
<path d="M97.0752 72.6231C98.1253 72.6231 98.9766 71.7718 98.9766 70.7217C98.9766 69.6716 98.1253 68.8203 97.0752 68.8203C96.0251 68.8203 95.1738 69.6716 95.1738 70.7217C95.1738 71.7718 96.0251 72.6231 97.0752 72.6231Z" fill="#E4E4E4"/>
<path d="M205.87 35.0136C203.287 35.0136 201.186 32.912 201.186 30.3291C201.186 27.746 203.287 25.6445 205.87 25.6445C208.453 25.6445 210.555 27.746 210.555 30.3291C210.555 32.9122 208.453 35.0136 205.87 35.0136ZM205.87 26.1536C203.568 26.1536 201.695 28.0268 201.695 30.3291C201.695 32.6316 203.568 34.5046 205.87 34.5046C208.172 34.5046 210.046 32.6316 210.046 30.3291C210.046 28.0268 208.173 26.1536 205.87 26.1536Z" fill="#44BB11"/>
<path d="M189.288 38.3682C190.338 38.3682 191.189 37.5169 191.189 36.4668C191.189 35.4167 190.338 34.5654 189.288 34.5654C188.238 34.5654 187.387 35.4167 187.387 36.4668C187.387 37.5169 188.238 38.3682 189.288 38.3682Z" fill="#38B601"/>
<path d="M334.306 153.313C331.723 153.313 329.622 151.212 329.622 148.629C329.622 146.046 331.724 143.944 334.306 143.944C336.889 143.944 338.991 146.046 338.991 148.629C338.991 151.212 336.889 153.313 334.306 153.313ZM334.306 144.453C332.004 144.453 330.131 146.326 330.131 148.629C330.131 150.931 332.004 152.804 334.306 152.804C336.609 152.804 338.482 150.931 338.482 148.629C338.482 146.326 336.609 144.453 334.306 144.453Z" fill="#44BB11"/>
<path d="M306.191 56.5997C305.449 57.3422 304.245 57.3422 303.502 56.5997C302.76 55.8572 302.76 54.6534 303.502 53.9109C304.245 53.1684 305.449 53.1684 306.191 53.9109C306.934 54.6534 306.934 55.8572 306.191 56.5997Z" fill="#38B601"/>
<path d="M349.289 162.647C348.546 163.389 347.342 163.389 346.6 162.647C345.857 161.904 345.857 160.7 346.6 159.958C347.342 159.215 348.546 159.215 349.289 159.958C350.031 160.7 350.031 161.904 349.289 162.647Z" fill="#38B601"/>
</svg>
