<svg width="379" height="240" viewBox="0 0 379 240" fill="none" xmlns="http://www.w3.org/2000/svg">
<g clip-path="url(#clip0_307_8575)">
<path d="M0 16C0 7.16344 7.16344 0 16 0H362.667C371.503 0 378.667 7.16345 378.667 16V224C378.667 232.837 371.503 240 362.667 240H16C7.16343 240 0 232.837 0 224V16Z" fill="white"/>
<g clip-path="url(#clip1_307_8575)">
<path d="M359.333 -8H22.333V242H359.333V-8Z" fill="white"/>
<path d="M50.544 89.6044C50.4009 82.5316 54.1834 75.5057 60.1527 71.7551C66.1228 68.0045 74.0659 67.6644 80.3313 70.8913C79.434 63.8057 83.8085 56.3834 90.4237 53.7678C97.039 51.1521 105.275 53.5885 109.425 59.3883C113.951 55.8903 120.374 55.05 125.641 57.2665C130.909 59.4837 134.818 64.6716 135.512 70.3669C140.869 66.0122 148.53 64.7108 155.014 67.0532C161.498 69.3956 166.579 75.3008 167.95 82.0862L50.544 89.603V89.6044Z" fill="white"/>
<path d="M252.922 98.5089C249.824 94.2289 250.087 88.4234 253.375 84.6899C257.045 80.5244 263.666 79.8648 268.363 83.4902C268.405 83.0697 269.235 76.011 275.342 73.0303C280.37 70.5769 286.779 71.9587 290.83 76.5789C291.8 71.6706 295.146 68.1114 298.906 67.7271C302.341 67.3756 304.989 69.7885 305.816 70.5413C310.051 74.3994 309.808 80.0712 309.753 80.9841C314.845 78.3464 320.874 78.8957 324.862 82.3069C329.879 86.5982 330.913 94.774 326.595 100.962L252.921 98.5089H252.922Z" fill="white"/>
<path d="M322.696 129.055C323.442 129.055 324.047 128.448 324.047 127.698C324.047 126.949 323.442 126.341 322.696 126.341C321.95 126.341 321.346 126.949 321.346 127.698C321.346 128.448 321.95 129.055 322.696 129.055Z" fill="#9CC4FF"/>
<path d="M162.118 163.154C162.863 163.154 163.468 162.546 163.468 161.797C163.468 161.047 162.863 160.44 162.118 160.44C161.372 160.44 160.767 161.047 160.767 161.797C160.767 162.546 161.372 163.154 162.118 163.154Z" fill="#3CBD00"/>
<path d="M62.4863 115.291C63.2321 115.291 63.8368 114.683 63.8368 113.934C63.8368 113.185 63.2321 112.577 62.4863 112.577C61.7404 112.577 61.1357 113.185 61.1357 113.934C61.1357 114.683 61.7404 115.291 62.4863 115.291Z" fill="#9CC4FF"/>
<path d="M316.93 228.199H64.4336V228.548H316.93V228.199Z" fill="#020202"/>
<path opacity="0.15" d="M190.833 224C245.785 224 290.333 220.642 290.333 216.5C290.333 212.358 245.785 209 190.833 209C135.881 209 91.333 212.358 91.333 216.5C91.333 220.642 135.881 224 190.833 224Z" fill="black" fill-opacity="0.4"/>
<path d="M142.772 214.999H276.333V49.4004C276.333 41.4802 269.837 35 261.894 35H128.333C136.275 35 142.772 41.479 142.772 49.4004V215V214.999Z" fill="#A5A5A5"/>
<path d="M237.333 147H265.333V154H237.333V147Z" fill="white"/>
<path d="M154.333 147H229.333V154H154.333V147Z" fill="white"/>
<path d="M194.333 161H265.333V168H194.333V161Z" fill="white"/>
<path d="M154.333 161H186.333V168H154.333V161Z" fill="white"/>
<path d="M218.333 191H265.333V198H218.333V191Z" fill="white"/>
<path d="M154.333 191H211.333V198H154.333V191Z" fill="white"/>
<path d="M175.333 176H265.333V183H175.333V176Z" fill="white"/>
<path d="M154.333 176H168.333V183H154.333V176Z" fill="white"/>
<path d="M194.333 133H265.333V140H194.333V133Z" fill="white"/>
<path d="M154.333 133H186.333V140H154.333V133Z" fill="white"/>
<path d="M154.333 114H265.333V121H154.333V114Z" fill="white"/>
<path d="M237.333 82H265.333V89H237.333V82Z" fill="white"/>
<path d="M154.333 82H229.333V89H154.333V82Z" fill="white"/>
<path d="M194.333 97H265.333V103H194.333V97Z" fill="white"/>
<path d="M154.333 97H186.333V103H154.333V97Z" fill="white"/>
<path d="M128.332 35C136.583 35 143.333 41.3807 143.333 49.1819V74H113.333V49.1819C113.333 41.3819 120.082 35 128.334 35H128.332Z" fill="#7B7B7B"/>
<path d="M205.332 211.167C205.332 212.316 204.936 213.276 204.145 214.042C203.354 214.617 202.561 215 201.374 215H114.291C113.302 215 112.311 214.617 111.52 214.042C110.729 213.276 110.333 212.316 110.333 211.167V155H205.333V211.167H205.332Z" fill="#BCBCBC"/>
<path d="M203.333 214.054C202.547 214.622 201.76 215 200.581 215H114.085C113.103 215 112.119 214.622 111.333 214.054L157.333 176L203.333 214.054Z" fill="#909090"/>
<path d="M205.333 154L191.875 163.654L160.406 186.114C158.822 187.295 156.646 187.295 155.062 186.114L123.791 163.654L110.333 154L123.791 144.346L153.083 123.463L155.26 121.886C156.844 120.705 159.02 120.705 160.604 121.886L162.781 123.463L176.833 133.511L183.76 138.436L191.875 144.346L205.333 154Z" fill="#909090"/>
<path d="M199.333 155V158.893L160.195 186.141C158.619 187.286 156.453 187.286 154.877 186.141L116.333 159.171V155H199.333Z" fill="white"/>
<path d="M155.339 68V60H158.496C159.102 60 159.619 60.1159 160.046 60.3477C160.473 60.5768 160.799 60.8958 161.023 61.3047C161.25 61.7109 161.363 62.1797 161.363 62.7109C161.363 63.2422 161.248 63.7109 161.019 64.1172C160.79 64.5234 160.458 64.8398 160.023 65.0664C159.591 65.293 159.067 65.4062 158.453 65.4062H156.441V64.0508H158.179C158.505 64.0508 158.773 63.9948 158.984 63.8828C159.197 63.7682 159.356 63.6107 159.46 63.4102C159.567 63.207 159.621 62.974 159.621 62.7109C159.621 62.4453 159.567 62.2135 159.46 62.0156C159.356 61.8151 159.197 61.6602 158.984 61.5508C158.77 61.4388 158.5 61.3828 158.171 61.3828H157.031V68H155.339ZM162.461 68V60H165.618C166.222 60 166.737 60.1081 167.165 60.3242C167.594 60.5378 167.921 60.8411 168.145 61.2344C168.372 61.625 168.485 62.0846 168.485 62.6133C168.485 63.1445 168.37 63.6016 168.141 63.9844C167.912 64.3646 167.58 64.6562 167.145 64.8594C166.713 65.0625 166.189 65.1641 165.575 65.1641H163.461V63.8047H165.301C165.624 63.8047 165.892 63.7604 166.106 63.6719C166.319 63.5833 166.478 63.4505 166.583 63.2734C166.689 63.0964 166.743 62.8763 166.743 62.6133C166.743 62.3477 166.689 62.1237 166.583 61.9414C166.478 61.7591 166.318 61.6211 166.102 61.5273C165.889 61.431 165.619 61.3828 165.293 61.3828H164.153V68H162.461ZM166.782 64.3594L168.77 68H166.903L164.958 64.3594H166.782ZM177.032 64C177.032 64.8724 176.866 65.6146 176.536 66.2266C176.208 66.8385 175.76 67.306 175.192 67.6289C174.627 67.9492 173.991 68.1094 173.286 68.1094C172.575 68.1094 171.937 67.9479 171.372 67.625C170.806 67.3021 170.36 66.8346 170.032 66.2227C169.704 65.6107 169.54 64.8698 169.54 64C169.54 63.1276 169.704 62.3854 170.032 61.7734C170.36 61.1615 170.806 60.6953 171.372 60.375C171.937 60.0521 172.575 59.8906 173.286 59.8906C173.991 59.8906 174.627 60.0521 175.192 60.375C175.76 60.6953 176.208 61.1615 176.536 61.7734C176.866 62.3854 177.032 63.1276 177.032 64ZM175.317 64C175.317 63.4349 175.232 62.9583 175.063 62.5703C174.896 62.1823 174.661 61.888 174.356 61.6875C174.051 61.487 173.694 61.3867 173.286 61.3867C172.877 61.3867 172.52 61.487 172.215 61.6875C171.911 61.888 171.674 62.1823 171.504 62.5703C171.338 62.9583 171.254 63.4349 171.254 64C171.254 64.5651 171.338 65.0417 171.504 65.4297C171.674 65.8177 171.911 66.112 172.215 66.3125C172.52 66.513 172.877 66.6133 173.286 66.6133C173.694 66.6133 174.051 66.513 174.356 66.3125C174.661 66.112 174.896 65.8177 175.063 65.4297C175.232 65.0417 175.317 64.5651 175.317 64ZM181.121 68H178.285V60H181.144C181.949 60 182.641 60.1602 183.222 60.4805C183.803 60.7982 184.25 61.2552 184.562 61.8516C184.877 62.4479 185.035 63.1615 185.035 63.9922C185.035 64.8255 184.877 65.5417 184.562 66.1406C184.25 66.7396 183.8 67.1992 183.214 67.5195C182.631 67.8398 181.933 68 181.121 68ZM179.976 66.5508H181.05C181.55 66.5508 181.971 66.4622 182.312 66.2852C182.656 66.1055 182.914 65.8281 183.085 65.4531C183.26 65.0755 183.347 64.5885 183.347 63.9922C183.347 63.401 183.26 62.918 183.085 62.543C182.914 62.168 182.657 61.8919 182.316 61.7148C181.975 61.5378 181.554 61.4492 181.054 61.4492H179.976V66.5508ZM191.229 60H192.92V65.1953C192.92 65.7786 192.781 66.2891 192.502 66.7266C192.226 67.1641 191.84 67.5052 191.342 67.75C190.845 67.9922 190.265 68.1133 189.604 68.1133C188.94 68.1133 188.359 67.9922 187.862 67.75C187.364 67.5052 186.978 67.1641 186.702 66.7266C186.426 66.2891 186.288 65.7786 186.288 65.1953V60H187.979V65.0508C187.979 65.3555 188.045 65.6263 188.178 65.8633C188.314 66.1003 188.504 66.2865 188.749 66.4219C188.993 66.5573 189.278 66.625 189.604 66.625C189.932 66.625 190.217 66.5573 190.459 66.4219C190.704 66.2865 190.893 66.1003 191.026 65.8633C191.161 65.6263 191.229 65.3555 191.229 65.0508V60ZM201.371 62.8008H199.66C199.628 62.5794 199.565 62.3828 199.468 62.2109C199.372 62.0365 199.248 61.888 199.097 61.7656C198.946 61.6432 198.772 61.5495 198.574 61.4844C198.378 61.4193 198.166 61.3867 197.937 61.3867C197.523 61.3867 197.162 61.4896 196.855 61.6953C196.548 61.8984 196.309 62.1953 196.14 62.5859C195.971 62.974 195.886 63.4453 195.886 64C195.886 64.5703 195.971 65.0495 196.14 65.4375C196.312 65.8255 196.552 66.1185 196.859 66.3164C197.166 66.5143 197.522 66.6133 197.925 66.6133C198.152 66.6133 198.361 66.5833 198.554 66.5234C198.75 66.4635 198.923 66.3763 199.074 66.2617C199.225 66.1445 199.35 66.0026 199.449 65.8359C199.55 65.6693 199.621 65.4792 199.66 65.2656L201.371 65.2734C201.326 65.6406 201.216 65.9948 201.039 66.3359C200.864 66.6745 200.628 66.9779 200.332 67.2461C200.037 67.5117 199.686 67.7227 199.277 67.8789C198.871 68.0326 198.411 68.1094 197.898 68.1094C197.184 68.1094 196.546 67.9479 195.984 67.625C195.424 67.3021 194.981 66.8346 194.656 66.2227C194.333 65.6107 194.171 64.8698 194.171 64C194.171 63.1276 194.335 62.3854 194.664 61.7734C194.992 61.1615 195.437 60.6953 196 60.375C196.562 60.0521 197.195 59.8906 197.898 59.8906C198.361 59.8906 198.791 59.9557 199.187 60.0859C199.585 60.2161 199.938 60.4062 200.246 60.6562C200.553 60.9036 200.803 61.207 200.996 61.5664C201.191 61.9258 201.316 62.3372 201.371 62.8008ZM202.279 61.3945V60H208.849V61.3945H206.4V68H204.728V61.3945H202.279ZM217.418 60H219.11V65.1953C219.11 65.7786 218.971 66.2891 218.692 66.7266C218.416 67.1641 218.029 67.5052 217.532 67.75C217.034 67.9922 216.455 68.1133 215.793 68.1133C215.129 68.1133 214.549 67.9922 214.051 67.75C213.554 67.5052 213.167 67.1641 212.891 66.7266C212.615 66.2891 212.477 65.7786 212.477 65.1953V60H214.168V65.0508C214.168 65.3555 214.235 65.6263 214.368 65.8633C214.503 66.1003 214.693 66.2865 214.938 66.4219C215.183 66.5573 215.468 66.625 215.793 66.625C216.122 66.625 216.407 66.5573 216.649 66.4219C216.894 66.2865 217.083 66.1003 217.215 65.8633C217.351 65.6263 217.418 65.3555 217.418 65.0508V60ZM220.501 68V60H223.658C224.264 60 224.781 60.1159 225.208 60.3477C225.636 60.5768 225.961 60.8958 226.185 61.3047C226.412 61.7109 226.525 62.1797 226.525 62.7109C226.525 63.2422 226.41 63.7109 226.181 64.1172C225.952 64.5234 225.62 64.8398 225.185 65.0664C224.753 65.293 224.229 65.4062 223.615 65.4062H221.603V64.0508H223.341C223.667 64.0508 223.935 63.9948 224.146 63.8828C224.36 63.7682 224.518 63.6107 224.623 63.4102C224.729 63.207 224.783 62.974 224.783 62.7109C224.783 62.4453 224.729 62.2135 224.623 62.0156C224.518 61.8151 224.36 61.6602 224.146 61.5508C223.932 61.4388 223.662 61.3828 223.333 61.3828H222.193V68H220.501ZM230.459 68H227.624V60H230.483C231.288 60 231.98 60.1602 232.561 60.4805C233.142 60.7982 233.588 61.2552 233.901 61.8516C234.216 62.4479 234.374 63.1615 234.374 63.9922C234.374 64.8255 234.216 65.5417 233.901 66.1406C233.588 66.7396 233.139 67.1992 232.553 67.5195C231.97 67.8398 231.272 68 230.459 68ZM229.315 66.5508H230.389C230.889 66.5508 231.31 66.4622 231.651 66.2852C231.995 66.1055 232.252 65.8281 232.424 65.4531C232.599 65.0755 232.686 64.5885 232.686 63.9922C232.686 63.401 232.599 62.918 232.424 62.543C232.252 62.168 231.996 61.8919 231.655 61.7148C231.314 61.5378 230.893 61.4492 230.393 61.4492H229.315V66.5508ZM236.554 68H234.742L237.503 60H239.683L242.441 68H240.628L238.625 61.8281H238.562L236.554 68ZM236.441 64.8555H240.722V66.1758H236.441V64.8555ZM242.122 61.3945V60H248.692V61.3945H246.243V68H244.571V61.3945H242.122ZM249.774 68V60H255.165V61.3945H251.465V63.3008H254.887V64.6953H251.465V66.6055H255.18V68H249.774ZM260.849 62.3008C260.818 61.9857 260.684 61.7409 260.447 61.5664C260.21 61.3919 259.888 61.3047 259.482 61.3047C259.206 61.3047 258.973 61.3437 258.783 61.4219C258.593 61.4974 258.447 61.6029 258.345 61.7383C258.246 61.8737 258.197 62.0273 258.197 62.1992C258.192 62.3424 258.222 62.4674 258.287 62.5742C258.354 62.681 258.447 62.7734 258.564 62.8516C258.681 62.9271 258.817 62.9935 258.97 63.0508C259.124 63.1055 259.288 63.1523 259.462 63.1914L260.181 63.3633C260.53 63.4414 260.85 63.5456 261.142 63.6758C261.434 63.806 261.686 63.9661 261.9 64.1562C262.113 64.3464 262.279 64.5703 262.396 64.8281C262.516 65.0859 262.577 65.3815 262.58 65.7148C262.577 66.2044 262.452 66.6289 262.205 66.9883C261.96 67.3451 261.606 67.6224 261.142 67.8203C260.681 68.0156 260.125 68.1133 259.474 68.1133C258.828 68.1133 258.266 68.0143 257.787 67.8164C257.31 67.6185 256.938 67.3255 256.669 66.9375C256.404 66.5469 256.264 66.0638 256.251 65.4883H257.888C257.906 65.7565 257.983 65.9805 258.119 66.1602C258.257 66.3372 258.44 66.4714 258.669 66.5625C258.901 66.651 259.163 66.6953 259.455 66.6953C259.741 66.6953 259.99 66.6536 260.201 66.5703C260.414 66.487 260.58 66.3711 260.697 66.2227C260.814 66.0742 260.873 65.9036 260.873 65.7109C260.873 65.5312 260.819 65.3802 260.712 65.2578C260.608 65.1354 260.455 65.0312 260.251 64.9453C260.051 64.8594 259.805 64.7812 259.513 64.7109L258.642 64.4922C257.968 64.3281 257.435 64.0716 257.044 63.7227C256.654 63.3737 256.46 62.9036 256.462 62.3125C256.46 61.8281 256.589 61.4049 256.849 61.043C257.112 60.681 257.473 60.3984 257.931 60.1953C258.389 59.9922 258.91 59.8906 259.494 59.8906C260.087 59.8906 260.606 59.9922 261.048 60.1953C261.494 60.3984 261.84 60.681 262.087 61.043C262.335 61.4049 262.462 61.8242 262.47 62.3008H260.849Z" fill="white"/>
</g>
</g>
<path d="M16 0.5H362.667C371.227 0.50016 378.167 7.43969 378.167 16V224C378.167 232.56 371.227 239.5 362.667 239.5H16C7.43959 239.5 0.5 232.56 0.5 224V16C0.5 7.43959 7.43959 0.5 16 0.5Z" stroke="#EDEDED"/>
<defs>
<clipPath id="clip0_307_8575">
<path d="M0 16C0 7.16344 7.16344 0 16 0H362.667C371.503 0 378.667 7.16345 378.667 16V224C378.667 232.837 371.503 240 362.667 240H16C7.16343 240 0 232.837 0 224V16Z" fill="white"/>
</clipPath>
<clipPath id="clip1_307_8575">
<rect width="337" height="250" fill="white" transform="translate(22.333 -8)"/>
</clipPath>
</defs>
</svg>
