<svg width="303" height="202" viewBox="0 0 303 202" fill="none" xmlns="http://www.w3.org/2000/svg">
<g clip-path="url(#clip0_467_4497)">
<path d="M84.7677 88.855H79.7267L71.1829 113.838H75.3657L77.4719 107.664H86.8739L88.9464 113.838H93.3452L84.7635 88.855H84.7677ZM78.4745 104.165L82.1231 93.209L85.8376 104.165H78.4745ZM106.609 95.5652V104.951C106.609 108.556 104.859 110.626 102.033 110.626C99.2065 110.626 97.9585 108.839 97.9585 105.593V95.5652H94.0603V105.983C94.0603 112.05 97.3864 114.049 101.142 114.049C103.894 114.049 105.573 112.871 106.683 111.515L107.076 113.838H110.472V95.5652H106.609ZM122.73 110.447C121.266 110.447 120.766 109.91 120.766 108.483V98.9546H126.985V95.5652H120.766V90.458H116.869V95.5652H112.294V98.9546H116.87V108.875C116.87 112.194 118.368 113.838 121.875 113.838H127.164V110.447H122.733H122.73ZM137.349 95.3496C131.844 95.3496 128.129 99.1352 128.129 104.702C128.129 110.269 131.846 114.054 137.349 114.054C142.851 114.054 146.573 110.307 146.573 104.702C146.573 99.0988 142.82 95.3496 137.349 95.3496ZM137.349 110.766C134.168 110.766 132.059 108.234 132.059 104.703C132.059 101.172 134.168 98.6354 137.349 98.6354C140.529 98.6354 142.604 101.169 142.604 104.703C142.604 108.237 140.495 110.766 137.349 110.766ZM158.942 95.3496C156.119 95.3496 154.258 96.6698 153.043 98.2392V88.855H149.184V113.838H152.545L152.975 111.231C154.083 112.873 156.014 114.049 158.837 114.049C163.845 114.049 167.526 110.303 167.526 104.699C167.526 98.8104 163.878 95.3468 158.945 95.3468L158.942 95.3496ZM158.262 110.804C155.079 110.804 153.006 108.27 153.006 104.662C153.006 101.055 155.079 98.6326 158.262 98.6326C161.445 98.6326 163.552 101.129 163.552 104.7C163.552 108.27 161.446 110.8 158.262 110.8V110.804ZM182.285 110.447V113.838H167.88V110.447H173.169V93.0144C173.169 92.8104 173.088 92.6148 172.943 92.4704C172.799 92.326 172.603 92.2448 172.399 92.2444H167.88V88.8564H173.169V91.4758C173.169 91.9 173.515 92.2458 173.94 92.2458H177.029V110.447H182.285ZM191.723 95.3496C186.218 95.3496 182.501 99.1352 182.501 104.702C182.501 110.269 186.218 114.054 191.723 114.054C197.228 114.054 200.944 110.307 200.944 104.702C200.944 99.0988 197.192 95.3496 191.723 95.3496ZM191.723 110.766C188.54 110.766 186.431 108.234 186.431 104.703C186.431 101.172 188.54 98.6354 191.723 98.6354C194.906 98.6354 196.98 101.169 196.98 104.703C196.98 108.237 194.87 110.766 191.723 110.766ZM211.669 110.766C208.596 110.766 206.556 108.304 206.556 104.737C206.556 101.168 208.596 98.6354 211.669 98.6354C213.993 98.6354 215.528 99.9556 216.03 102.096H220.071C219.357 97.9564 216.422 95.3496 211.741 95.3496C206.236 95.3496 202.626 99.096 202.626 104.737C202.626 110.377 206.13 114.052 211.634 114.052C216.282 114.052 219.391 111.445 220.071 107.307H215.996C215.53 109.41 213.956 110.766 211.669 110.766ZM232.366 103.026L239.587 95.568H234.977L226.396 104.416V88.8564H222.536V113.838H226.396V109.162L229.651 105.771L235.3 113.838H239.91L232.366 103.023V103.026Z" fill="#060808"/>
<path d="M247.703 103.026C245.095 102.704 243.45 102.385 243.45 100.671C243.45 99.173 244.843 98.3862 247.131 98.3862C249.419 98.3862 250.953 99.5286 251.169 101.172H254.961C254.709 97.4258 251.566 95.3524 247.095 95.3524C242.623 95.3524 239.698 97.6036 239.698 101.064C239.698 104.955 243.06 105.774 247.275 106.275C249.921 106.597 251.496 106.916 251.496 108.596C251.496 110.164 250.032 111.06 247.636 111.06C244.921 111.06 243.238 109.669 243.097 107.811H239.304C239.45 111.735 242.774 114.055 247.599 114.055C251.997 114.055 255.288 111.843 255.288 108.344C255.288 104.347 251.927 103.527 247.71 103.03L247.703 103.026ZM261.595 88.855H264.078L268.308 101.168H266.141L265.117 98.1244H260.484L259.444 101.168H257.381L261.591 88.855H261.595ZM264.606 96.401L262.773 91.0026L260.975 96.401H264.606ZM269.293 99.411H271.918V90.6162H269.293V88.855H276.568V90.6162H273.943V99.411H276.568V101.172H269.293V99.411Z" fill="#060808"/>
<path d="M58.7815 97.7101V110.101L57.6528 112.057L46.9018 118.258L45.1953 117.281V107.142C45.1953 105.894 44.1885 104.879 42.9377 104.879C42.3355 104.882 41.7591 105.123 41.335 105.55C41.1239 105.758 40.9567 106.006 40.843 106.279C40.7294 106.553 40.6716 106.846 40.6731 107.142V117.281L38.9764 118.258L28.2241 112.056L27.0854 110.101V97.7115L28.792 96.7231L32.4294 98.8273C32.4294 98.8273 32.4392 98.8371 32.4476 98.8371L37.577 101.798H37.5854C37.8425 101.947 38.1265 102.043 38.421 102.082C38.7154 102.12 39.0147 102.1 39.3015 102.023C39.5884 101.946 39.8572 101.814 40.0925 101.633C40.3279 101.452 40.5252 101.226 40.6731 100.969C40.8729 100.627 40.9788 100.238 40.9802 99.8423C40.9802 99.0597 40.5693 98.2967 39.843 97.8781L34.7136 94.9269L31.0496 92.8129V90.8585L41.8005 84.6565H44.0665L54.8188 90.8585V92.8129L46.024 97.8781C45.5041 98.1788 45.1248 98.673 44.9692 99.2524C44.8136 99.8319 44.8944 100.449 45.1939 100.969C45.4961 101.487 45.9911 101.865 46.571 102.02C47.1509 102.175 47.7688 102.096 48.29 101.798L53.4278 98.8371C53.4278 98.8371 53.446 98.8273 53.4559 98.8189L57.0834 96.7231L58.7815 97.7101Z" fill="#AC03FC"/>
</g>
<path d="M55 1H11C5.47715 1 1 5.47715 1 11V55" stroke="#343434" stroke-width="2"/>
<path d="M248 1H292C297.523 1 302 5.47715 302 11V55" stroke="#343434" stroke-width="2"/>
<path d="M55 201H11C5.47715 201 1 196.523 1 191V147" stroke="#343434" stroke-width="2"/>
<path d="M248 201H292C297.523 201 302 196.523 302 191V147" stroke="#343434" stroke-width="2"/>
<defs>
<clipPath id="clip0_467_4497">
<rect width="251" height="35" fill="white" transform="translate(26 83.5)"/>
</clipPath>
</defs>
</svg>
