<svg width="1440" height="348" viewBox="0 0 1440 348" fill="none" xmlns="http://www.w3.org/2000/svg">
<mask id="mask0_418_49509" style="mask-type:alpha" maskUnits="userSpaceOnUse" x="0" y="0" width="1440" height="1440">
<rect width="1440" height="1440" fill="url(#paint0_radial_418_49509)"/>
</mask>
<g mask="url(#mask0_418_49509)">
<g clip-path="url(#clip0_418_49509)">
<g clip-path="url(#clip1_418_49509)">
<line x1="0.5" x2="0.5" y2="1440" stroke="#E9EAEB"/>
<line x1="80.5" x2="80.5" y2="1440" stroke="#E9EAEB"/>
<line x1="160.5" x2="160.5" y2="1440" stroke="#E9EAEB"/>
<line x1="240.5" x2="240.5" y2="1440" stroke="#E9EAEB"/>
<line x1="320.5" x2="320.5" y2="1440" stroke="#E9EAEB"/>
<line x1="400.5" x2="400.5" y2="1440" stroke="#E9EAEB"/>
<line x1="480.5" x2="480.5" y2="1440" stroke="#E9EAEB"/>
<line x1="560.5" x2="560.5" y2="1440" stroke="#E9EAEB"/>
<line x1="640.5" x2="640.5" y2="1440" stroke="#E9EAEB"/>
<line x1="720.5" x2="720.5" y2="1440" stroke="#E9EAEB"/>
<line x1="800.5" x2="800.5" y2="1440" stroke="#E9EAEB"/>
<line x1="880.5" x2="880.5" y2="1440" stroke="#E9EAEB"/>
<line x1="960.5" x2="960.5" y2="1440" stroke="#E9EAEB"/>
<line x1="1040.5" x2="1040.5" y2="1440" stroke="#E9EAEB"/>
<line x1="1120.5" x2="1120.5" y2="1440" stroke="#E9EAEB"/>
<line x1="1200.5" x2="1200.5" y2="1440" stroke="#E9EAEB"/>
<line x1="1280.5" x2="1280.5" y2="1440" stroke="#E9EAEB"/>
<line x1="1360.5" x2="1360.5" y2="1440" stroke="#E9EAEB"/>
</g>
<g clip-path="url(#clip2_418_49509)">
<line x1="-240" y1="79.5" x2="1680" y2="79.5" stroke="#E9EAEB"/>
<line x1="-240" y1="159.5" x2="1680" y2="159.5" stroke="#E9EAEB"/>
<line x1="-240" y1="239.5" x2="1680" y2="239.5" stroke="#E9EAEB"/>
<line x1="-240" y1="319.5" x2="1680" y2="319.5" stroke="#E9EAEB"/>
</g>
</g>
</g>
<defs>
<radialGradient id="paint0_radial_418_49509" cx="0" cy="0" r="1" gradientUnits="userSpaceOnUse" gradientTransform="translate(720 -0.000171661) rotate(90) scale(1440 751.588)">
<stop/>
<stop offset="0.953125" stop-opacity="0"/>
</radialGradient>
<clipPath id="clip0_418_49509">
<rect width="1920" height="1440" fill="white" transform="translate(-240)"/>
</clipPath>
<clipPath id="clip1_418_49509">
<rect width="1920" height="1440" fill="white" transform="translate(-240)"/>
</clipPath>
<clipPath id="clip2_418_49509">
<rect width="1920" height="1440" fill="white" transform="translate(-240)"/>
</clipPath>
</defs>
</svg>
